<svg width="512" height="512" viewBox="0 0 512 512" fill="none" xmlns="http://www.w3.org/2000/svg">
<path d="M262.45 64.0532C159.386 61.6139 74.8688 143.352 74.0066 246.434C73.6386 290.247 88.6115 330.538 113.836 362.322L91.093 402.098C83.4698 415.42 93.0908 432.001 108.442 432.001H256.489C358.838 432.001 443.135 348.254 441.988 245.908C440.905 146.738 361.33 66.3979 262.45 64.0532Z" stroke="black" stroke-width="20"/>
<path d="M178.638 204.45C192.558 204.45 203.842 193.167 203.842 179.248C203.842 165.329 192.558 154.045 178.638 154.045C164.719 154.045 153.435 165.329 153.435 179.248C153.435 193.167 164.719 204.45 178.638 204.45Z" fill="black"/>
<path d="M337.525 204.45C351.445 204.45 362.729 193.167 362.729 179.248C362.729 165.329 351.445 154.045 337.525 154.045C323.605 154.045 312.321 165.329 312.321 179.248C312.321 193.167 323.605 204.45 337.525 204.45Z" fill="black"/>
<path d="M178.638 341.956C192.558 341.956 203.842 330.673 203.842 316.754C203.842 302.834 192.558 291.551 178.638 291.551C164.719 291.551 153.435 302.834 153.435 316.754C153.435 330.673 164.719 341.956 178.638 341.956Z" fill="black"/>
<path d="M337.525 341.956C351.445 341.956 362.729 330.673 362.729 316.754C362.729 302.834 351.445 291.551 337.525 291.551C323.605 291.551 312.321 302.834 312.321 316.754C312.321 330.673 323.605 341.956 337.525 341.956Z" fill="black"/>
<path d="M178.638 273.203C192.558 273.203 203.842 261.92 203.842 248.001C203.842 234.082 192.558 222.798 178.638 222.798C164.719 222.798 153.435 234.082 153.435 248.001C153.435 261.92 164.719 273.203 178.638 273.203Z" fill="black"/>
<path d="M337.525 273.203C351.445 273.203 362.729 261.92 362.729 248.001C362.729 234.082 351.445 222.798 337.525 222.798C323.605 222.798 312.321 234.082 312.321 248.001C312.321 261.92 323.605 273.203 337.525 273.203Z" fill="black"/>
<path d="M258.013 273.203C271.933 273.203 283.217 261.92 283.217 248.001C283.217 234.082 271.933 222.798 258.013 222.798C244.094 222.798 232.81 234.082 232.81 248.001C232.81 261.92 244.094 273.203 258.013 273.203Z" fill="black"/>
<path d="M258.013 341.956C271.933 341.956 283.217 330.673 283.217 316.754C283.217 302.834 271.933 291.551 258.013 291.551C244.094 291.551 232.81 302.834 232.81 316.754C232.81 330.673 244.094 341.956 258.013 341.956Z" fill="black"/>
</svg>
