<?xml version="1.0" encoding="UTF-8"?>
<svg width="512" height="512" fill="none" version="1.1" viewBox="0 0 512 512" xmlns="http://www.w3.org/2000/svg">
 <path d="m262.11 78.047c-95.221-2.2441-173.3 73.266-174.1 168.51-0.34 40.48 13.483 77.706 36.798 107.06l-21.012 36.75c-7.0337 12.308 1.855 27.627 16.038 27.627h136.78c94.56 0 172.43-77.374 171.38-171.92-1.01-91.636-74.529-165.86-165.88-168.03zm-77.434 256.77c-12.862 0-23.295-10.433-23.295-23.295s10.433-23.285 23.295-23.285 23.286 10.423 23.286 23.285-10.424 23.295-23.286 23.295zm0-63.522c-12.862 0-23.295-10.433-23.295-23.295s10.433-23.285 23.295-23.285 23.286 10.423 23.286 23.285-10.424 23.295-23.286 23.295zm0-63.522c-12.862 0-23.295-10.424-23.295-23.285 0-12.862 10.433-23.295 23.295-23.295s23.286 10.433 23.286 23.295c0 12.861-10.424 23.285-23.286 23.285zm73.334 127.04c-12.862 0-23.285-10.433-23.285-23.295s10.423-23.285 23.285-23.285 23.295 10.423 23.295 23.285-10.433 23.295-23.295 23.295zm0-63.522c-12.862 0-23.285-10.433-23.285-23.295s10.423-23.285 23.285-23.285 23.295 10.423 23.295 23.285-10.433 23.295-23.295 23.295zm73.47 63.522c-12.872 0-23.295-10.433-23.295-23.295s10.423-23.285 23.295-23.285c12.871 0 23.285 10.423 23.285 23.285s-10.423 23.295-23.285 23.295zm0-63.522c-12.872 0-23.295-10.433-23.295-23.295s10.423-23.285 23.295-23.285c12.871 0 23.285 10.423 23.285 23.285s-10.423 23.295-23.285 23.295zm0-63.522c-12.872 0-23.295-10.424-23.295-23.285 0-12.862 10.423-23.295 23.295-23.295 12.871 0 23.285 10.433 23.285 23.295 0 12.861-10.423 23.285-23.285 23.285z" fill="#000"/>
</svg>
