<?xml version="1.0" encoding="UTF-8"?>
<svg width="512" height="512" fill="none" version="1.1" viewBox="0 0 512 512" xmlns="http://www.w3.org/2000/svg">
 <path d="m262.11 78.049c-95.223-2.2537-173.31 73.265-174.11 168.5-0.34 40.48 13.494 77.705 36.799 107.07l-21.013 36.749c-7.0427 12.308 1.846 27.628 16.03 27.628h136.78c94.562 0 172.44-77.375 171.38-171.93-1-91.625-74.521-165.85-165.88-168.02z" fill="url(#a)"/>
 <path d="m184.68 207.76c12.86 0 23.286-10.425 23.286-23.285s-10.426-23.285-23.286-23.285c-12.861 0-23.286 10.425-23.286 23.285s10.425 23.285 23.286 23.285z" fill="#CABAFF"/>
 <path d="m331.47 207.76c12.86 0 23.286-10.425 23.286-23.285s-10.426-23.285-23.286-23.285c-12.861 0-23.286 10.425-23.286 23.285s10.425 23.285 23.286 23.285z" fill="#CABAFF"/>
 <path d="m184.68 271.29c12.86 0 23.286-10.425 23.286-23.285s-10.426-23.286-23.286-23.286c-12.861 0-23.286 10.426-23.286 23.286s10.425 23.285 23.286 23.285z" fill="#A98DFF"/>
 <path d="m331.47 271.29c12.86 0 23.286-10.425 23.286-23.285s-10.426-23.286-23.286-23.286c-12.861 0-23.286 10.426-23.286 23.286s10.425 23.285 23.286 23.285z" fill="#A98DFF"/>
 <path d="m184.68 334.81c12.86 0 23.286-10.425 23.286-23.285s-10.426-23.285-23.286-23.285c-12.861 0-23.286 10.425-23.286 23.285s10.425 23.285 23.286 23.285z" fill="#7753FF"/>
 <path d="m331.47 334.81c12.86 0 23.286-10.425 23.286-23.285s-10.426-23.285-23.286-23.285c-12.861 0-23.286 10.425-23.286 23.285s10.425 23.285 23.286 23.285z" fill="#7753FF"/>
 <path d="m258.01 271.29c12.861 0 23.286-10.425 23.286-23.285s-10.425-23.286-23.286-23.286c-12.86 0-23.286 10.426-23.286 23.286s10.426 23.285 23.286 23.285z" fill="#A98DFF"/>
 <path d="m258.01 334.81c12.861 0 23.286-10.425 23.286-23.285s-10.425-23.285-23.286-23.285c-12.86 0-23.286 10.425-23.286 23.285s10.426 23.285 23.286 23.285z" fill="#7753FF"/>
 <defs>
  <linearGradient id="a" x1="258" x2="258" y1="418" y2="77.996" gradientUnits="userSpaceOnUse">
   <stop stop-color="#E1D6FF" offset="0"/>
   <stop stop-color="#fff" offset="1"/>
  </linearGradient>
 </defs>
</svg>
