<?xml version="1.0" encoding="UTF-8"?>
<svg width="512" height="512" fill="none" version="1.1" viewBox="0 0 512 512" xmlns="http://www.w3.org/2000/svg">
 <path d="m262.43 64.053c-108.47-2.6086-199.14 91.016-187.44 203.06 3.633 34.779 17.101 67.803 38.827 95.203-7.5933 13.227-15.135 26.484-22.691 39.733-7.8564 13.666 2.5434 29.963 17.355 29.946h148c102.35 0 186.64-83.744 185.5-186.1-1.1283-98.865-80.713-179.47-179.56-181.85zm-59.803 244.95c0 14.228-11.591 25.818-25.818 25.818-14.854-0.0263-25.801-12.309-25.773-25.875v-121.9c0-14.226 11.589-25.818 25.819-25.818 14.217 0.0125 25.795 11.598 25.795 25.818zm81.159 0c0 14.228-11.591 25.818-25.818 25.818-14.23 0-25.819-11.592-25.819-25.818v-70.415c0-14.229 11.591-25.818 25.819-25.818 14.226 0 25.818 11.588 25.818 25.818zm81.159-0.057c0 14.228-11.591 25.817-25.819 25.817-14.223-0.0125-25.801-11.601-25.807-25.817v-121.9c6e-3 -14.229 11.601-25.818 25.83-25.818 14.219 0.0125 25.796 11.599 25.796 25.818z" fill="#000"/>
</svg>
