<svg width="512" height="512" viewBox="0 0 512 512" fill="none" xmlns="http://www.w3.org/2000/svg">
<path d="M262.444 64.0528C159.383 61.624 74.8688 143.351 74.0066 246.444C73.6386 290.257 88.6005 330.548 113.835 362.322L91.0923 402.097C83.48 415.419 93.1006 432 108.451 432H256.492C358.838 432 443.121 348.254 441.985 245.918C440.892 146.737 361.32 66.3974 262.444 64.0528ZM178.634 341.966C164.713 341.966 153.421 330.674 153.421 316.753C153.421 302.832 164.713 291.55 178.634 291.55C192.555 291.55 203.837 302.832 203.837 316.753C203.837 330.674 192.555 341.966 178.634 341.966ZM178.634 273.213C164.713 273.213 153.421 261.921 153.421 248C153.421 234.079 164.713 222.797 178.634 222.797C192.555 222.797 203.837 234.079 203.837 248C203.837 261.921 192.555 273.213 178.634 273.213ZM178.634 204.46C164.713 204.46 153.421 193.179 153.421 179.258C153.421 165.337 164.713 154.044 178.634 154.044C192.555 154.044 203.837 165.337 203.837 179.258C203.837 193.179 192.555 204.46 178.634 204.46ZM258.007 341.966C244.086 341.966 232.804 330.674 232.804 316.753C232.804 302.832 244.086 291.55 258.007 291.55C271.927 291.55 283.22 302.832 283.22 316.753C283.22 330.674 271.927 341.966 258.007 341.966ZM258.007 273.213C244.086 273.213 232.804 261.921 232.804 248C232.804 234.079 244.086 222.797 258.007 222.797C271.927 222.797 283.22 234.079 283.22 248C283.22 261.921 271.927 273.213 258.007 273.213ZM337.526 341.966C323.595 341.966 312.313 330.674 312.313 316.753C312.313 302.832 323.595 291.55 337.526 291.55C351.457 291.55 362.729 302.832 362.729 316.753C362.729 330.674 351.447 341.966 337.526 341.966ZM337.526 273.213C323.595 273.213 312.313 261.921 312.313 248C312.313 234.079 323.595 222.797 337.526 222.797C351.457 222.797 362.729 234.079 362.729 248C362.729 261.921 351.447 273.213 337.526 273.213ZM337.526 204.46C323.595 204.46 312.313 193.179 312.313 179.258C312.313 165.337 323.595 154.044 337.526 154.044C351.457 154.044 362.729 165.337 362.729 179.258C362.729 193.179 351.447 204.46 337.526 204.46Z" fill="black"/>
</svg>
