<svg width="512" height="512" viewBox="0 0 512 512" fill="none" xmlns="http://www.w3.org/2000/svg">
<path d="M262.437 64.0523C159.376 61.6235 74.862 143.351 73.9998 246.444C73.6318 290.257 88.5936 330.547 113.828 362.322L91.0855 402.097C83.4732 415.419 93.0937 432 108.445 432H256.486C358.832 432 443.114 348.253 441.979 245.918C440.885 146.737 361.313 66.397 262.437 64.0523ZM178.627 341.966C164.707 341.966 153.414 330.674 153.414 316.753C153.414 302.832 164.707 291.55 178.627 291.55C192.548 291.55 203.83 302.832 203.83 316.753C203.83 330.674 192.548 341.966 178.627 341.966ZM178.627 273.213C164.707 273.213 153.414 261.921 153.414 248C153.414 234.079 164.707 222.797 178.627 222.797C192.548 222.797 203.83 234.079 203.83 248C203.83 261.921 192.548 273.213 178.627 273.213ZM178.627 204.46C164.707 204.46 153.414 193.178 153.414 179.257C153.414 165.336 164.707 154.044 178.627 154.044C192.548 154.044 203.83 165.336 203.83 179.257C203.83 193.178 192.548 204.46 178.627 204.46ZM258 341.966C244.079 341.966 232.797 330.674 232.797 316.753C232.797 302.832 244.079 291.55 258 291.55C271.921 291.55 283.213 302.832 283.213 316.753C283.213 330.674 271.921 341.966 258 341.966ZM258 273.213C244.079 273.213 232.797 261.921 232.797 248C232.797 234.079 244.079 222.797 258 222.797C271.921 222.797 283.213 234.079 283.213 248C283.213 261.921 271.921 273.213 258 273.213ZM337.519 341.966C323.588 341.966 312.306 330.674 312.306 316.753C312.306 302.832 323.588 291.55 337.519 291.55C351.451 291.55 362.722 302.832 362.722 316.753C362.722 330.674 351.44 341.966 337.519 341.966ZM337.519 273.213C323.588 273.213 312.306 261.921 312.306 248C312.306 234.079 323.588 222.797 337.519 222.797C351.451 222.797 362.722 234.079 362.722 248C362.722 261.921 351.44 273.213 337.519 273.213ZM337.519 204.46C323.588 204.46 312.306 193.178 312.306 179.257C312.306 165.336 323.588 154.044 337.519 154.044C351.451 154.044 362.722 165.336 362.722 179.257C362.722 193.178 351.44 204.46 337.519 204.46Z" fill="#7152FF"/>
<path d="M262.437 64.0523C159.376 61.6235 74.862 143.351 73.9998 246.444C73.6318 290.257 88.5936 330.547 113.828 362.322L91.0855 402.097C83.4732 415.419 93.0937 432 108.445 432H256.486C358.832 432 443.114 348.253 441.979 245.918C440.885 146.737 361.313 66.397 262.437 64.0523ZM178.627 341.966C164.707 341.966 153.414 330.674 153.414 316.753C153.414 302.832 164.707 291.55 178.627 291.55C192.548 291.55 203.83 302.832 203.83 316.753C203.83 330.674 192.548 341.966 178.627 341.966ZM178.627 273.213C164.707 273.213 153.414 261.921 153.414 248C153.414 234.079 164.707 222.797 178.627 222.797C192.548 222.797 203.83 234.079 203.83 248C203.83 261.921 192.548 273.213 178.627 273.213ZM178.627 204.46C164.707 204.46 153.414 193.178 153.414 179.257C153.414 165.336 164.707 154.044 178.627 154.044C192.548 154.044 203.83 165.336 203.83 179.257C203.83 193.178 192.548 204.46 178.627 204.46ZM258 341.966C244.079 341.966 232.797 330.674 232.797 316.753C232.797 302.832 244.079 291.55 258 291.55C271.921 291.55 283.213 302.832 283.213 316.753C283.213 330.674 271.921 341.966 258 341.966ZM258 273.213C244.079 273.213 232.797 261.921 232.797 248C232.797 234.079 244.079 222.797 258 222.797C271.921 222.797 283.213 234.079 283.213 248C283.213 261.921 271.921 273.213 258 273.213ZM337.519 341.966C323.588 341.966 312.306 330.674 312.306 316.753C312.306 302.832 323.588 291.55 337.519 291.55C351.451 291.55 362.722 302.832 362.722 316.753C362.722 330.674 351.44 341.966 337.519 341.966ZM337.519 273.213C323.588 273.213 312.306 261.921 312.306 248C312.306 234.079 323.588 222.797 337.519 222.797C351.451 222.797 362.722 234.079 362.722 248C362.722 261.921 351.44 273.213 337.519 273.213ZM337.519 204.46C323.588 204.46 312.306 193.178 312.306 179.257C312.306 165.336 323.588 154.044 337.519 154.044C351.451 154.044 362.722 165.336 362.722 179.257C362.722 193.178 351.44 204.46 337.519 204.46Z" fill="url(#paint0_linear_313_2561)"/>
<path d="M262.437 64.0523C159.376 61.6235 74.862 143.351 73.9998 246.444C73.6318 290.257 88.5936 330.547 113.828 362.322L91.0855 402.097C83.4732 415.419 93.0937 432 108.445 432H256.486C358.832 432 443.114 348.253 441.979 245.918C440.885 146.737 361.313 66.397 262.437 64.0523ZM178.627 341.966C164.707 341.966 153.414 330.674 153.414 316.753C153.414 302.832 164.707 291.55 178.627 291.55C192.548 291.55 203.83 302.832 203.83 316.753C203.83 330.674 192.548 341.966 178.627 341.966ZM178.627 273.213C164.707 273.213 153.414 261.921 153.414 248C153.414 234.079 164.707 222.797 178.627 222.797C192.548 222.797 203.83 234.079 203.83 248C203.83 261.921 192.548 273.213 178.627 273.213ZM178.627 204.46C164.707 204.46 153.414 193.178 153.414 179.257C153.414 165.336 164.707 154.044 178.627 154.044C192.548 154.044 203.83 165.336 203.83 179.257C203.83 193.178 192.548 204.46 178.627 204.46ZM258 341.966C244.079 341.966 232.797 330.674 232.797 316.753C232.797 302.832 244.079 291.55 258 291.55C271.921 291.55 283.213 302.832 283.213 316.753C283.213 330.674 271.921 341.966 258 341.966ZM258 273.213C244.079 273.213 232.797 261.921 232.797 248C232.797 234.079 244.079 222.797 258 222.797C271.921 222.797 283.213 234.079 283.213 248C283.213 261.921 271.921 273.213 258 273.213ZM337.519 341.966C323.588 341.966 312.306 330.674 312.306 316.753C312.306 302.832 323.588 291.55 337.519 291.55C351.451 291.55 362.722 302.832 362.722 316.753C362.722 330.674 351.44 341.966 337.519 341.966ZM337.519 273.213C323.588 273.213 312.306 261.921 312.306 248C312.306 234.079 323.588 222.797 337.519 222.797C351.451 222.797 362.722 234.079 362.722 248C362.722 261.921 351.44 273.213 337.519 273.213ZM337.519 204.46C323.588 204.46 312.306 193.178 312.306 179.257C312.306 165.336 323.588 154.044 337.519 154.044C351.451 154.044 362.722 165.336 362.722 179.257C362.722 193.178 351.44 204.46 337.519 204.46Z" fill="url(#paint1_linear_313_2561)"/>
<path d="M337.509 273.203C351.428 273.203 362.712 261.919 362.712 248C362.712 234.081 351.428 222.797 337.509 222.797C323.59 222.797 312.307 234.081 312.307 248C312.307 261.919 323.59 273.203 337.509 273.203Z" fill="white" fill-opacity="0.3333"/>
<path d="M258 273.203C271.919 273.203 283.202 261.919 283.202 248C283.202 234.081 271.919 222.797 258 222.797C244.081 222.797 232.797 234.081 232.797 248C232.797 261.919 244.081 273.203 258 273.203Z" fill="white" fill-opacity="0.3333"/>
<path d="M178.628 273.203C192.547 273.203 203.83 261.919 203.83 248C203.83 234.081 192.547 222.797 178.628 222.797C164.708 222.797 153.425 234.081 153.425 248C153.425 261.919 164.708 273.203 178.628 273.203Z" fill="white" fill-opacity="0.3333"/>
<path d="M337.509 204.45C351.428 204.45 362.712 193.166 362.712 179.247C362.712 165.328 351.428 154.044 337.509 154.044C323.59 154.044 312.307 165.328 312.307 179.247C312.307 193.166 323.59 204.45 337.509 204.45Z" fill="white" fill-opacity="0.6666"/>
<path d="M178.628 204.45C192.547 204.45 203.83 193.166 203.83 179.247C203.83 165.328 192.547 154.044 178.628 154.044C164.708 154.044 153.425 165.328 153.425 179.247C153.425 193.166 164.708 204.45 178.628 204.45Z" fill="white" fill-opacity="0.6666"/>
<defs>
<linearGradient id="paint0_linear_313_2561" x1="257.984" y1="432" x2="257.984" y2="63.9952" gradientUnits="userSpaceOnUse">
<stop stop-color="#A687FF"/>
<stop offset="1" stop-color="#ECE6FF"/>
</linearGradient>
<linearGradient id="paint1_linear_313_2561" x1="257.984" y1="432" x2="257.984" y2="63.9952" gradientUnits="userSpaceOnUse">
<stop stop-color="#FFDAF5"/>
<stop offset="0.402147" stop-color="white"/>
</linearGradient>
</defs>
</svg>
