<?xml version="1.0" encoding="UTF-8"?>
<svg width="470" height="470" version="1.1" viewBox="0 0 470 470" xml:space="preserve" xmlns="http://www.w3.org/2000/svg"><path d="m235 0 0.00782 0.0078125c-129.78 0-235 105.2-235 234.98 0 77.285 37.311 145.85 94.9 188.68l-0.007813-0.00195-26.783 46.305h165.67c0.40508 2e-3 0.80928 0.00782 1.2148 0.00782 129.78-3e-3 235-105.21 235-234.99 0-129.78-105.21-234.98-235-234.98zm0.67188 85.734c36.805 0 66.676 29.871 66.676 66.676v26.67h13.336c14.669 0 26.67 12.001 26.67 26.67v133.35c0 14.669-12.001 26.67-26.67 26.67h-160.02c-14.669 0-26.67-12.001-26.67-26.67v-133.35c0-14.669 12.001-26.67 26.67-26.67h121.35v-26.67c0-22.803-18.537-41.34-41.34-41.34-22.803 0-41.338 18.537-41.338 41.34h-25.336c0-36.805 29.869-66.676 66.674-66.676zm0 160.02c-14.669 0-26.67 12.001-26.67 26.67 0 14.669 12.001 26.67 26.67 26.67 14.669 0 26.67-12.001 26.67-26.67 0-14.669-12.001-26.67-26.67-26.67z" stroke-width=".99997"/></svg>
