<?xml version="1.0" encoding="UTF-8" standalone="no"?>
<svg
   width="470"
   height="470"
   version="1.1"
   viewBox="0 0 470 470"
   xml:space="preserve"
   id="svg924"
   sodipodi:docname="molly_notify_backup.svg"
   inkscape:version="1.1.2 (0a00cf5339, 2022-02-04)"
   xmlns:inkscape="http://www.inkscape.org/namespaces/inkscape"
   xmlns:sodipodi="http://sodipodi.sourceforge.net/DTD/sodipodi-0.dtd"
   xmlns="http://www.w3.org/2000/svg"
   xmlns:svg="http://www.w3.org/2000/svg"><defs
     id="defs928"><clipPath
       clipPathUnits="userSpaceOnUse"
       id="clipPath20916"><path
         d="M 0,807 H 712 V 0 H 0 Z"
         id="path20914" /></clipPath><mask
       maskUnits="userSpaceOnUse"
       x="0"
       y="0"
       width="1"
       height="1"
       id="mask20930"><g
         id="g20946"><g
           clip-path="url(#clipPath20924)"
           id="g20944"><path
             d="m 163.75,548.25 h 384.5 v -384.5 h -384.5 z"
             style="fill:#000000;fill-opacity:1;fill-rule:nonzero;stroke:none"
             id="path20932" /><g
             id="g20942"><g
               id="g20934" /><g
               id="g20940"><g
                 clip-path="url(#clipPath20928)"
                 id="g20938"><path
                   d="M 99.917,612.083 H 612.586 V 99.414 H 99.917 Z"
                   style="fill:#ffffff;fill-opacity:1;fill-rule:nonzero;stroke:none"
                   id="path20936" /></g></g></g></g></g></mask><clipPath
       clipPathUnits="userSpaceOnUse"
       id="clipPath20924"><path
         d="m 163.75,548.25 h 384.5 v -384.5 h -384.5 z"
         id="path20922" /></clipPath><clipPath
       clipPathUnits="userSpaceOnUse"
       id="clipPath20928"><path
         d="m 163.75,548.25 h 384.5 v -384.5 h -384.5 z"
         id="path20926" /></clipPath><clipPath
       clipPathUnits="userSpaceOnUse"
       id="clipPath20954"><path
         d="m 163.75,548.25 h 384.5 v -384.5 h -384.5 z"
         id="path20952" /></clipPath><clipPath
       clipPathUnits="userSpaceOnUse"
       id="clipPath20958"><path
         d="M 164,548 H 548 V 164 H 164 Z"
         id="path20956" /></clipPath><clipPath
       clipPathUnits="userSpaceOnUse"
       id="clipPath20962"><path
         d="M 164.066,547.968 H 547.999 V 163.956 H 164.066 Z"
         id="path20960" /></clipPath><clipPath
       clipPathUnits="userSpaceOnUse"
       id="clipPath20966"><path
         d="M 164.02,547.93 H 547.835 V 164.176 H 164.02 Z"
         id="path20964" /></clipPath><clipPath
       clipPathUnits="userSpaceOnUse"
       id="clipPath20970"><path
         d="m 299.75,548.25 h 0.5 v -384.5 h -0.5 z"
         id="path20968" /></clipPath><clipPath
       clipPathUnits="userSpaceOnUse"
       id="clipPath20974"><path
         d="m 355.75,548.25 h 0.5 v -384.5 h -0.5 z"
         id="path20972" /></clipPath><clipPath
       clipPathUnits="userSpaceOnUse"
       id="clipPath20978"><path
         d="m 411.83,548.25 h 0.5 v -384.5 h -0.5 z"
         id="path20976" /></clipPath><clipPath
       clipPathUnits="userSpaceOnUse"
       id="clipPath20982"><path
         d="m 163.9,412.1 h 383.933 v -0.2 H 163.9 Z"
         id="path20980" /></clipPath><clipPath
       clipPathUnits="userSpaceOnUse"
       id="clipPath20986"><path
         d="m 163.9,356.1 h 383.933 v -0.2 H 163.9 Z"
         id="path20984" /></clipPath><clipPath
       clipPathUnits="userSpaceOnUse"
       id="clipPath20990"><path
         d="m 163.75,300.25 h 384.233 v -0.5 H 163.75 Z"
         id="path20988" /></clipPath></defs><sodipodi:namedview
     id="namedview926"
     pagecolor="#ffffff"
     bordercolor="#666666"
     borderopacity="1.0"
     inkscape:pageshadow="2"
     inkscape:pageopacity="0.0"
     inkscape:pagecheckerboard="0"
     showgrid="false"
     inkscape:zoom="0.99"
     inkscape:cx="250"
     inkscape:cy="255.55556"
     inkscape:window-width="2560"
     inkscape:window-height="1411"
     inkscape:window-x="1920"
     inkscape:window-y="240"
     inkscape:window-maximized="1"
     inkscape:current-layer="svg924"
     inkscape:object-paths="true"
     inkscape:snap-object-midpoints="true"
     inkscape:snap-midpoints="true"
     inkscape:snap-bbox="true"
     inkscape:snap-global="true"
     inkscape:snap-intersection-paths="true"
     inkscape:snap-smooth-nodes="true"
     inkscape:snap-others="false"
     inkscape:object-nodes="false"
     inkscape:bbox-nodes="true"
     inkscape:snap-nodes="true" /><path
     d="M 235.00299,0.00719665 C 105.22135,0.00719665 0,105.21 0,234.99111 0,312.27583 37.311477,380.84114 94.901211,423.66822 l -0.0079,-0.002 -26.783343,46.30384 H 233.78219 c 0.40508,0.002 0.80927,0.009 1.21483,0.009 C 364.77867,469.97606 470.00004,364.7651 470.00004,234.98398 470.00004,105.20281 364.78868,0 234.99705,0 Z"
     fill="#7663f0"
     id="path920"
     sodipodi:nodetypes="cscccccscc"
     style="display:inline;stroke-width:0.999972"
     inkscape:label="chat_bubble" /><path
     id="path6491"
     style="display:inline;fill:#fdffff;fill-opacity:1;stroke:#7663f0;stroke-width:1.09053;stroke-miterlimit:4;stroke-dasharray:0, 11.9958;stroke-dashoffset:10.9053"
     d="m 235.25711,97.849032 c -75.74006,0 -137.155013,61.414988 -137.155013,137.155058 h -45.71837 l 60.957823,60.95779 60.95783,-60.95779 h -45.71842 c 0,-58.97667 47.69952,-106.67617 106.67615,-106.67617 58.97672,0 106.67618,47.6995 106.67618,106.67617 0,58.97666 -47.69946,106.67614 -106.67618,106.67614 -23.01153,0 -44.3468,-7.46729 -61.87213,-19.81126 l -21.64,21.94479 c 23.16391,17.67777 52.11889,28.34539 83.51213,28.34539 75.74005,0 137.15513,-61.41497 137.15513,-137.15506 0,-75.74007 -61.41508,-137.155058 -137.15513,-137.155058 z"
     inkscape:transform-center-x="243.09831"
     inkscape:transform-center-y="-0.87383975"
     inkscape:label="backup_icon"
     sodipodi:nodetypes="scccccsssccsss" /><g
     id="g20898"
     inkscape:label="playstore_icon_template"
     transform="matrix(1.3337674,0,0,-1.3337045,-312.97525,499.51198)"
     style="display:none"
     sodipodi:insensitive="true"><g
       id="g20910"
       transform="translate(53.540455,-157.65921)"><g
         id="g20912"
         clip-path="url(#clipPath20916)"
         transform="translate(1.5)"><g
           id="g20918"><g
             id="g20920" /><g
             id="g20948"
             mask="url(#mask20930)"><g
               id="g20950" /><g
               id="g21122"
               inkscape:label="g21122"><g
                 clip-path="url(#clipPath20954)"
                 id="g21120"><g
                   id="g20992" /><g
                   id="g20998"><g
                     clip-path="url(#clipPath20958)"
                     opacity="0.100006"
                     id="g20996"><path
                       d="M 164,548 H 548 V 164 H 164 Z"
                       style="fill:#66ddb7;fill-opacity:1;fill-rule:nonzero;stroke:none"
                       id="path20994" /></g></g><path
                   d="M 164,548 H 548 V 164 H 164 Z"
                   style="fill:none;stroke:#65dcb7;stroke-width:0.5;stroke-linecap:butt;stroke-linejoin:miter;stroke-miterlimit:4;stroke-dasharray:none;stroke-opacity:1"
                   id="path21002" /><g
                   transform="translate(183.0039,484)"
                   id="g21006"><path
                     d="m 0,0 h 345.992 c 1.659,0 3.004,-1.345 3.004,-3.004 v -249.992 c 0,-1.659 -1.345,-3.004 -3.004,-3.004 L 0,-256 c -1.659,0 -3.004,1.345 -3.004,3.004 V -3.004 C -3.004,-1.345 -1.659,0 0,0 Z"
                     style="fill:none;stroke:#65dcb7;stroke-width:0.5;stroke-linecap:butt;stroke-linejoin:miter;stroke-miterlimit:4;stroke-dasharray:none;stroke-opacity:1"
                     id="path21004" /></g><g
                   transform="translate(231.0039,532)"
                   id="g21010"><path
                     d="m 0,0 h 249.992 c 1.659,0 3.004,-1.345 3.004,-3.004 v -345.992 c 0,-1.659 -1.345,-3.004 -3.004,-3.004 L 0,-352 c -1.659,0 -3.004,1.345 -3.004,3.004 V -3.004 C -3.004,-1.345 -1.659,0 0,0 Z"
                     style="fill:none;stroke:#65dcb7;stroke-width:0.5;stroke-linecap:butt;stroke-linejoin:miter;stroke-miterlimit:4;stroke-dasharray:none;stroke-opacity:1"
                     id="path21008" /></g><g
                   transform="translate(207.0039,508)"
                   id="g21014"><path
                     d="m 0,0 h 297.992 c 1.659,0 3.004,-1.345 3.004,-3.004 v -297.992 c 0,-1.659 -1.345,-3.004 -3.004,-3.004 L 0,-304 c -1.659,0 -3.004,1.345 -3.004,3.004 V -3.004 C -3.004,-1.345 -1.659,0 0,0 Z"
                     style="fill:none;stroke:#65dcb7;stroke-width:0.5;stroke-linecap:butt;stroke-linejoin:miter;stroke-miterlimit:4;stroke-dasharray:none;stroke-opacity:1"
                     id="path21012" /></g><g
                   transform="translate(356,532)"
                   id="g21018"><path
                     d="m 0,0 c 97.202,0 176,-78.798 176,-176 0,-97.202 -78.798,-176 -176,-176 -97.202,0 -176,78.798 -176,176 0,97.202 78.798,176 176,176 z"
                     style="fill:none;stroke:#65dcb7;stroke-width:0.5;stroke-linecap:butt;stroke-linejoin:miter;stroke-miterlimit:4;stroke-dasharray:none;stroke-opacity:1"
                     id="path21016" /></g><g
                   transform="translate(356,436.00001)"
                   id="g21022"><path
                     d="m 0,6.73886e-5 c 44.183,0 80,-35.8169993886 80,-79.9999993886 0,-44.182998 -35.817,-79.999998 -80,-79.999998 -44.183,0 -80,35.817 -80,79.999998 0,44.183 35.817,79.9999993886 80,79.9999993886 z"
                     style="fill:none;stroke:#65dcb7;stroke-width:0.5;stroke-linecap:butt;stroke-linejoin:miter;stroke-miterlimit:4;stroke-dasharray:none;stroke-opacity:1"
                     id="path21020" /></g><g
                   id="g21034"><g
                     id="g21024" /><g
                     id="g21032"><g
                       clip-path="url(#clipPath20962)"
                       opacity="0.300003"
                       id="g21030"><g
                         transform="translate(164.4194,164.3096)"
                         id="g21028"><path
                           d="M 0,0 383.226,383.305"
                           style="fill:none;stroke:#65dcb7;stroke-width:0.5;stroke-linecap:square;stroke-linejoin:miter;stroke-miterlimit:4;stroke-dasharray:none;stroke-opacity:1"
                           id="path21026" /></g></g></g></g><g
                   id="g21046"><g
                     id="g21036" /><g
                     id="g21044"><g
                       clip-path="url(#clipPath20966)"
                       opacity="0.300003"
                       id="g21042"><g
                         transform="translate(547.4814,164.5293)"
                         id="g21040"><path
                           d="M 0,0 -383.107,383.047"
                           style="fill:none;stroke:#65dcb7;stroke-width:0.5;stroke-linecap:square;stroke-linejoin:miter;stroke-miterlimit:4;stroke-dasharray:none;stroke-opacity:1"
                           id="path21038" /></g></g></g></g><g
                   id="g21058"><g
                     id="g21048" /><g
                     id="g21056"><g
                       clip-path="url(#clipPath20970)"
                       opacity="0.300003"
                       id="g21054"><g
                         transform="translate(300,548)"
                         id="g21052"><path
                           d="M 0,0 V -384"
                           style="fill:none;stroke:#65dcb7;stroke-width:0.5;stroke-linecap:square;stroke-linejoin:miter;stroke-miterlimit:4;stroke-dasharray:none;stroke-opacity:1"
                           id="path21050" /></g></g></g></g><g
                   id="g21070"><g
                     id="g21060" /><g
                     id="g21068"><g
                       clip-path="url(#clipPath20974)"
                       opacity="0.300003"
                       id="g21066"><g
                         transform="translate(356,548)"
                         id="g21064"><path
                           d="M 0,0 V -384"
                           style="fill:none;stroke:#65dcb7;stroke-width:0.5;stroke-linecap:square;stroke-linejoin:miter;stroke-miterlimit:4;stroke-dasharray:none;stroke-opacity:1"
                           id="path21062" /></g></g></g></g><g
                   id="g21082"><g
                     id="g21072" /><g
                     id="g21080"><g
                       clip-path="url(#clipPath20978)"
                       opacity="0.300003"
                       id="g21078"><g
                         transform="translate(412.0801,548)"
                         id="g21076"><path
                           d="M 0,0 V -384"
                           style="fill:none;stroke:#65dcb7;stroke-width:0.5;stroke-linecap:square;stroke-linejoin:miter;stroke-miterlimit:4;stroke-dasharray:none;stroke-opacity:1"
                           id="path21074" /></g></g></g></g><g
                   id="g21094"><g
                     id="g21084" /><g
                     id="g21092"><g
                       clip-path="url(#clipPath20982)"
                       opacity="0.300003"
                       id="g21090"><g
                         transform="translate(547.7334,412)"
                         id="g21088"><path
                           d="M 0,0 H -383.733"
                           style="fill:none;stroke:#65dcb7;stroke-width:0.2;stroke-linecap:square;stroke-linejoin:miter;stroke-miterlimit:4;stroke-dasharray:none;stroke-opacity:1"
                           id="path21086" /></g></g></g></g><g
                   id="g21106"><g
                     id="g21096" /><g
                     id="g21104"><g
                       clip-path="url(#clipPath20986)"
                       opacity="0.300003"
                       id="g21102"><g
                         transform="translate(547.7334,356)"
                         id="g21100"><path
                           d="M 0,0 H -383.733"
                           style="fill:none;stroke:#65dcb7;stroke-width:0.2;stroke-linecap:square;stroke-linejoin:miter;stroke-miterlimit:4;stroke-dasharray:none;stroke-opacity:1"
                           id="path21098" /></g></g></g></g><g
                   id="g21118"><g
                     id="g21108" /><g
                     id="g21116"><g
                       clip-path="url(#clipPath20990)"
                       opacity="0.300003"
                       id="g21114"><g
                         transform="translate(547.7334,300)"
                         id="g21112"><path
                           d="M 0,0 H -383.733"
                           style="fill:none;stroke:#65dcb7;stroke-width:0.5;stroke-linecap:square;stroke-linejoin:miter;stroke-miterlimit:4;stroke-dasharray:none;stroke-opacity:1"
                           id="path21110" /></g></g></g></g></g></g></g></g></g></g></g></svg>
