<?xml version="1.0" encoding="UTF-8" standalone="no"?>
<svg
   width="470"
   height="470"
   version="1.1"
   viewBox="0 0 470 470"
   xml:space="preserve"
   id="svg924"
   sodipodi:docname="molly_notify_lock_open.svg"
   inkscape:version="1.1.2 (0a00cf5339, 2022-02-04)"
   inkscape:label="lock_open_icon"
   xmlns:inkscape="http://www.inkscape.org/namespaces/inkscape"
   xmlns:sodipodi="http://sodipodi.sourceforge.net/DTD/sodipodi-0.dtd"
   xmlns="http://www.w3.org/2000/svg"
   xmlns:svg="http://www.w3.org/2000/svg"><defs
     id="defs928"><clipPath
       clipPathUnits="userSpaceOnUse"
       id="clipPath20916"><path
         d="M 0,807 H 712 V 0 H 0 Z"
         id="path20914" /></clipPath><mask
       maskUnits="userSpaceOnUse"
       x="0"
       y="0"
       width="1"
       height="1"
       id="mask20930"><g
         id="g20946"><g
           clip-path="url(#clipPath20924)"
           id="g20944"><path
             d="m 163.75,548.25 h 384.5 v -384.5 h -384.5 z"
             style="fill:#000000;fill-opacity:1;fill-rule:nonzero;stroke:none"
             id="path20932" /><g
             id="g20942"><g
               id="g20934" /><g
               id="g20940"><g
                 clip-path="url(#clipPath20928)"
                 id="g20938"><path
                   d="M 99.917,612.083 H 612.586 V 99.414 H 99.917 Z"
                   style="fill:#ffffff;fill-opacity:1;fill-rule:nonzero;stroke:none"
                   id="path20936" /></g></g></g></g></g></mask><clipPath
       clipPathUnits="userSpaceOnUse"
       id="clipPath20924"><path
         d="m 163.75,548.25 h 384.5 v -384.5 h -384.5 z"
         id="path20922" /></clipPath><clipPath
       clipPathUnits="userSpaceOnUse"
       id="clipPath20928"><path
         d="m 163.75,548.25 h 384.5 v -384.5 h -384.5 z"
         id="path20926" /></clipPath><clipPath
       clipPathUnits="userSpaceOnUse"
       id="clipPath20954"><path
         d="m 163.75,548.25 h 384.5 v -384.5 h -384.5 z"
         id="path20952" /></clipPath><clipPath
       clipPathUnits="userSpaceOnUse"
       id="clipPath20958"><path
         d="M 164,548 H 548 V 164 H 164 Z"
         id="path20956" /></clipPath><clipPath
       clipPathUnits="userSpaceOnUse"
       id="clipPath20962"><path
         d="M 164.066,547.968 H 547.999 V 163.956 H 164.066 Z"
         id="path20960" /></clipPath><clipPath
       clipPathUnits="userSpaceOnUse"
       id="clipPath20966"><path
         d="M 164.02,547.93 H 547.835 V 164.176 H 164.02 Z"
         id="path20964" /></clipPath><clipPath
       clipPathUnits="userSpaceOnUse"
       id="clipPath20970"><path
         d="m 299.75,548.25 h 0.5 v -384.5 h -0.5 z"
         id="path20968" /></clipPath><clipPath
       clipPathUnits="userSpaceOnUse"
       id="clipPath20974"><path
         d="m 355.75,548.25 h 0.5 v -384.5 h -0.5 z"
         id="path20972" /></clipPath><clipPath
       clipPathUnits="userSpaceOnUse"
       id="clipPath20978"><path
         d="m 411.83,548.25 h 0.5 v -384.5 h -0.5 z"
         id="path20976" /></clipPath><clipPath
       clipPathUnits="userSpaceOnUse"
       id="clipPath20982"><path
         d="m 163.9,412.1 h 383.933 v -0.2 H 163.9 Z"
         id="path20980" /></clipPath><clipPath
       clipPathUnits="userSpaceOnUse"
       id="clipPath20986"><path
         d="m 163.9,356.1 h 383.933 v -0.2 H 163.9 Z"
         id="path20984" /></clipPath><clipPath
       clipPathUnits="userSpaceOnUse"
       id="clipPath20990"><path
         d="m 163.75,300.25 h 384.233 v -0.5 H 163.75 Z"
         id="path20988" /></clipPath></defs><sodipodi:namedview
     id="namedview926"
     pagecolor="#ffffff"
     bordercolor="#666666"
     borderopacity="1.0"
     inkscape:pageshadow="2"
     inkscape:pageopacity="0.0"
     inkscape:pagecheckerboard="0"
     showgrid="false"
     inkscape:zoom="0.86"
     inkscape:cx="250.5814"
     inkscape:cy="262.7907"
     inkscape:window-width="2560"
     inkscape:window-height="1411"
     inkscape:window-x="1920"
     inkscape:window-y="240"
     inkscape:window-maximized="1"
     inkscape:current-layer="svg924"
     inkscape:object-paths="true"
     inkscape:snap-object-midpoints="true"
     inkscape:snap-midpoints="true"
     inkscape:snap-bbox="true"
     inkscape:snap-global="true"
     inkscape:snap-intersection-paths="true"
     inkscape:snap-smooth-nodes="false"
     inkscape:snap-others="false"
     inkscape:object-nodes="true"
     inkscape:bbox-nodes="true"
     inkscape:snap-nodes="true" /><path
     d="M 235.00299,0.00719665 C 105.22135,0.00719665 0,105.21 0,234.99111 0,312.27583 37.311477,380.84114 94.901211,423.66822 l -0.0079,-0.002 -26.783343,46.30384 H 233.78219 c 0.40508,0.002 0.80927,0.009 1.21483,0.009 C 364.77867,469.97606 470.00004,364.7651 470.00004,234.98398 470.00004,105.20281 364.78868,0 234.99705,0 Z"
     fill="#7663f0"
     id="path920"
     sodipodi:nodetypes="cscccccscc"
     style="display:inline;stroke-width:0.999972"
     inkscape:label="chat_bubble" /><g
     id="g13778"
     transform="matrix(0.91360699,0,0,0.91360699,20.36013,27.110539)"
     inkscape:label="lock_open"><path
       style="fill:#ffffff;fill-opacity:1;stroke:none;stroke-width:156.71;stroke-miterlimit:4;stroke-dasharray:none;stroke-opacity:1"
       d="m 323.2452,166.34011 h -14.59607 v -29.19216 c 0,-40.285152 -32.69524,-72.980349 -72.98044,-72.980349 -40.28519,0 -72.9804,32.695197 -72.9804,72.980349 h 27.73255 c 0,-24.9593 20.28856,-45.2478 45.24785,-45.2478 24.9593,0 45.24786,20.2885 45.24786,45.2478 v 29.19216 H 148.09222 c -16.05569,0 -29.19219,13.13647 -29.19219,29.19219 v 145.96079 c 0,16.05569 13.1365,29.19219 29.19219,29.19219 H 323.2452 c 16.05569,0 29.19216,-13.1365 29.19216,-29.19219 V 195.5323 c 0,-16.05572 -13.13647,-29.19219 -29.19216,-29.19219 z"
       id="path9748" /><path
       style="fill:#7663f0;fill-opacity:1;stroke:none;stroke-width:156.71;stroke-miterlimit:4;stroke-dasharray:none;stroke-opacity:1"
       d="m 235.66869,297.70486 c 16.05571,0 29.19216,-13.13647 29.19216,-29.19217 0,-16.05569 -13.13645,-29.19216 -29.19216,-29.19216 -16.05569,0 -29.19213,13.13647 -29.19213,29.19216 0,16.0557 13.13644,29.19217 29.19213,29.19217 z"
       id="path9242" /></g><g
     id="g20898"
     inkscape:label="playstore_icon_template"
     transform="matrix(1.331428,0,0,-1.3313652,-311.60206,499.04801)"
     style="display:none"
     sodipodi:insensitive="true"><g
       id="g20910"
       transform="translate(53.540455,-157.65921)"><g
         id="g20912"
         clip-path="url(#clipPath20916)"
         transform="translate(1.5)"><g
           id="g20918"><g
             id="g20920" /><g
             id="g20948"
             mask="url(#mask20930)"><g
               id="g20950" /><g
               id="g21122"
               inkscape:label="g21122"><g
                 clip-path="url(#clipPath20954)"
                 id="g21120"><g
                   id="g20992" /><g
                   id="g20998"><g
                     clip-path="url(#clipPath20958)"
                     opacity="0.100006"
                     id="g20996"><path
                       d="M 164,548 H 548 V 164 H 164 Z"
                       style="fill:#66ddb7;fill-opacity:1;fill-rule:nonzero;stroke:none"
                       id="path20994" /></g></g><path
                   d="M 164,548 H 548 V 164 H 164 Z"
                   style="fill:none;stroke:#65dcb7;stroke-width:0.5;stroke-linecap:butt;stroke-linejoin:miter;stroke-miterlimit:4;stroke-dasharray:none;stroke-opacity:1"
                   id="path21002" /><g
                   transform="translate(183.0039,484)"
                   id="g21006"><path
                     d="m 0,0 h 345.992 c 1.659,0 3.004,-1.345 3.004,-3.004 v -249.992 c 0,-1.659 -1.345,-3.004 -3.004,-3.004 L 0,-256 c -1.659,0 -3.004,1.345 -3.004,3.004 V -3.004 C -3.004,-1.345 -1.659,0 0,0 Z"
                     style="fill:none;stroke:#65dcb7;stroke-width:0.5;stroke-linecap:butt;stroke-linejoin:miter;stroke-miterlimit:4;stroke-dasharray:none;stroke-opacity:1"
                     id="path21004" /></g><g
                   transform="translate(231.0039,532)"
                   id="g21010"><path
                     d="m 0,0 h 249.992 c 1.659,0 3.004,-1.345 3.004,-3.004 v -345.992 c 0,-1.659 -1.345,-3.004 -3.004,-3.004 L 0,-352 c -1.659,0 -3.004,1.345 -3.004,3.004 V -3.004 C -3.004,-1.345 -1.659,0 0,0 Z"
                     style="fill:none;stroke:#65dcb7;stroke-width:0.5;stroke-linecap:butt;stroke-linejoin:miter;stroke-miterlimit:4;stroke-dasharray:none;stroke-opacity:1"
                     id="path21008" /></g><g
                   transform="translate(207.0039,508)"
                   id="g21014"><path
                     d="m 0,0 h 297.992 c 1.659,0 3.004,-1.345 3.004,-3.004 v -297.992 c 0,-1.659 -1.345,-3.004 -3.004,-3.004 L 0,-304 c -1.659,0 -3.004,1.345 -3.004,3.004 V -3.004 C -3.004,-1.345 -1.659,0 0,0 Z"
                     style="fill:none;stroke:#65dcb7;stroke-width:0.5;stroke-linecap:butt;stroke-linejoin:miter;stroke-miterlimit:4;stroke-dasharray:none;stroke-opacity:1"
                     id="path21012" /></g><g
                   transform="translate(356,532)"
                   id="g21018"><path
                     d="m 0,0 c 97.202,0 176,-78.798 176,-176 0,-97.202 -78.798,-176 -176,-176 -97.202,0 -176,78.798 -176,176 0,97.202 78.798,176 176,176 z"
                     style="fill:none;stroke:#65dcb7;stroke-width:0.5;stroke-linecap:butt;stroke-linejoin:miter;stroke-miterlimit:4;stroke-dasharray:none;stroke-opacity:1"
                     id="path21016" /></g><g
                   transform="translate(356,436.00001)"
                   id="g21022"><path
                     d="m 0,6.73886e-5 c 44.183,0 80,-35.8169993886 80,-79.9999993886 0,-44.182998 -35.817,-79.999998 -80,-79.999998 -44.183,0 -80,35.817 -80,79.999998 0,44.183 35.817,79.9999993886 80,79.9999993886 z"
                     style="fill:none;stroke:#65dcb7;stroke-width:0.5;stroke-linecap:butt;stroke-linejoin:miter;stroke-miterlimit:4;stroke-dasharray:none;stroke-opacity:1"
                     id="path21020" /></g><g
                   id="g21034"><g
                     id="g21024" /><g
                     id="g21032"><g
                       clip-path="url(#clipPath20962)"
                       opacity="0.300003"
                       id="g21030"><g
                         transform="translate(164.4194,164.3096)"
                         id="g21028"><path
                           d="M 0,0 383.226,383.305"
                           style="fill:none;stroke:#65dcb7;stroke-width:0.5;stroke-linecap:square;stroke-linejoin:miter;stroke-miterlimit:4;stroke-dasharray:none;stroke-opacity:1"
                           id="path21026" /></g></g></g></g><g
                   id="g21046"><g
                     id="g21036" /><g
                     id="g21044"><g
                       clip-path="url(#clipPath20966)"
                       opacity="0.300003"
                       id="g21042"><g
                         transform="translate(547.4814,164.5293)"
                         id="g21040"><path
                           d="M 0,0 -383.107,383.047"
                           style="fill:none;stroke:#65dcb7;stroke-width:0.5;stroke-linecap:square;stroke-linejoin:miter;stroke-miterlimit:4;stroke-dasharray:none;stroke-opacity:1"
                           id="path21038" /></g></g></g></g><g
                   id="g21058"><g
                     id="g21048" /><g
                     id="g21056"><g
                       clip-path="url(#clipPath20970)"
                       opacity="0.300003"
                       id="g21054"><g
                         transform="translate(300,548)"
                         id="g21052"><path
                           d="M 0,0 V -384"
                           style="fill:none;stroke:#65dcb7;stroke-width:0.5;stroke-linecap:square;stroke-linejoin:miter;stroke-miterlimit:4;stroke-dasharray:none;stroke-opacity:1"
                           id="path21050" /></g></g></g></g><g
                   id="g21070"><g
                     id="g21060" /><g
                     id="g21068"><g
                       clip-path="url(#clipPath20974)"
                       opacity="0.300003"
                       id="g21066"><g
                         transform="translate(356,548)"
                         id="g21064"><path
                           d="M 0,0 V -384"
                           style="fill:none;stroke:#65dcb7;stroke-width:0.5;stroke-linecap:square;stroke-linejoin:miter;stroke-miterlimit:4;stroke-dasharray:none;stroke-opacity:1"
                           id="path21062" /></g></g></g></g><g
                   id="g21082"><g
                     id="g21072" /><g
                     id="g21080"><g
                       clip-path="url(#clipPath20978)"
                       opacity="0.300003"
                       id="g21078"><g
                         transform="translate(412.0801,548)"
                         id="g21076"><path
                           d="M 0,0 V -384"
                           style="fill:none;stroke:#65dcb7;stroke-width:0.5;stroke-linecap:square;stroke-linejoin:miter;stroke-miterlimit:4;stroke-dasharray:none;stroke-opacity:1"
                           id="path21074" /></g></g></g></g><g
                   id="g21094"><g
                     id="g21084" /><g
                     id="g21092"><g
                       clip-path="url(#clipPath20982)"
                       opacity="0.300003"
                       id="g21090"><g
                         transform="translate(547.7334,412)"
                         id="g21088"><path
                           d="M 0,0 H -383.733"
                           style="fill:none;stroke:#65dcb7;stroke-width:0.2;stroke-linecap:square;stroke-linejoin:miter;stroke-miterlimit:4;stroke-dasharray:none;stroke-opacity:1"
                           id="path21086" /></g></g></g></g><g
                   id="g21106"><g
                     id="g21096" /><g
                     id="g21104"><g
                       clip-path="url(#clipPath20986)"
                       opacity="0.300003"
                       id="g21102"><g
                         transform="translate(547.7334,356)"
                         id="g21100"><path
                           d="M 0,0 H -383.733"
                           style="fill:none;stroke:#65dcb7;stroke-width:0.2;stroke-linecap:square;stroke-linejoin:miter;stroke-miterlimit:4;stroke-dasharray:none;stroke-opacity:1"
                           id="path21098" /></g></g></g></g><g
                   id="g21118"><g
                     id="g21108" /><g
                     id="g21116"><g
                       clip-path="url(#clipPath20990)"
                       opacity="0.300003"
                       id="g21114"><g
                         transform="translate(547.7334,300)"
                         id="g21112"><path
                           d="M 0,0 H -383.733"
                           style="fill:none;stroke:#65dcb7;stroke-width:0.5;stroke-linecap:square;stroke-linejoin:miter;stroke-miterlimit:4;stroke-dasharray:none;stroke-opacity:1"
                           id="path21110" /></g></g></g></g></g></g></g></g></g></g></g></svg>
