<?xml version="1.0" encoding="UTF-8"?>
<svg width="470" height="470" version="1.1" viewBox="0 0 470 470" xml:space="preserve" xmlns="http://www.w3.org/2000/svg"><path d="m235 0 0.00782 0.0078125c-129.78 0-235 105.2-235 234.98 0 77.285 37.311 145.85 94.9 188.68l-0.007813-0.00195-26.783 46.305h165.67c0.40508 2e-3 0.80928 0.00782 1.2148 0.00782 129.78-3e-3 235-105.21 235-234.99 0-129.78-105.21-234.98-235-234.98zm-59.582 99.367 60.322 60.322h-45.242v171.78l-29.385 0.08789-0.77735-171.87h-45.24l60.322-60.322zm134.92 39.127 0.64258 171.81h45.141l-60.188 60.186-60.186-60.186h45.141v-171.79l29.449-0.02539z" stroke-width=".99997"/></svg>
