<?xml version="1.0" encoding="UTF-8"?>
<svg width="512" height="512" version="1.1" viewBox="0 0 682.67 682.67" xml:space="preserve" xmlns="http://www.w3.org/2000/svg"><rect transform="scale(1,-1)" x="-1.4211e-14" y="-682.67" width="682.67" height="682.67" fill="#7663f0" stroke-width="1.3333"/><g transform="matrix(1.1595 0 0 1.1596 -54.457 -54.497)"><path d="m220.51 504.06 120.82 39.937 1.2e-4 4e-5 -143.92-5e-5zm323.49-162.73c0 111.93-90.737 202.67-202.67 202.67-111.93-1e-5 -202.67-90.737-202.67-202.67s90.737-202.67 202.67-202.67c111.93 0 202.67 90.737 202.67 202.67z" fill="#fff" fill-opacity=".95"/><g transform="translate(-5.1601e-6 -4.0973)"><circle cx="341" cy="433.47" r="23.536" fill="#7663f0" stroke-width=".64448"/><circle cx="439.19" cy="375.64" r="23.536" fill="#aaa4ce" stroke-width=".64448"/><circle cx="242.81" cy="375.64" r="23.536" fill="#cba1fe" stroke-width=".64447"/><g stroke-width=".64448"><circle cx="439.19" cy="433.47" r="23.536" fill="#7663f0"/><circle cx="439.19" cy="317.82" r="23.536" fill="#aacdf4"/><circle cx="242.81" cy="260" r="23.536" fill="#4b0f9f"/></g><circle cx="242.81" cy="317.82" r="23.536" fill="#aaa4ce" stroke-width=".64447"/><g stroke-width=".64448"><circle cx="242.81" cy="433.47" r="23.536" fill="#7663f0"/><circle cx="341" cy="317.82" r="23.536" fill="#4b0f9f"/><circle cx="341" cy="375.64" r="23.536" fill="#aacdf4"/></g><circle cx="439.19" cy="260" r="23.536" fill="#4b0f9f" stroke-width=".64447"/></g></g></svg>
