<?xml version="1.0" encoding="UTF-8"?>
<svg width="470" height="470" version="1.1" viewBox="0 0 470 470" xml:space="preserve" xmlns="http://www.w3.org/2000/svg"><g transform="matrix(1.1595,0,0,1.1596,-160.78,-160.79)"><path transform="matrix(.86244 0 0 .86237 138.66 138.66)" d="m235-0.011719c-129.78 0-235 105.21-235 235 0 77.29 37.311 145.86 94.9 188.69l-0.0078-2e-3 -26.783 46.307h165.67c0.40509 2e-3 0.80927 8e-3 1.2148 8e-3 129.78-0.00154 235-105.22 235-235.01 0-129.79-105.21-235-235-235zm-114.25 108.67a27.29 27.292 0 0 1 27.291 27.293 27.29 27.292 0 0 1-27.291 27.293 27.29 27.292 0 0 1-27.289-27.293 27.29 27.292 0 0 1 27.289-27.293zm227.7 0a27.29 27.292 0 0 1 27.289 27.293 27.29 27.292 0 0 1-27.289 27.293 27.29 27.292 0 0 1-27.291-27.293 27.29 27.292 0 0 1 27.291-27.293zm-227.7 67.049a27.29 27.292 0 0 1 27.291 27.291 27.29 27.292 0 0 1-27.291 27.293 27.29 27.292 0 0 1-27.289-27.293 27.29 27.292 0 0 1 27.289-27.291zm113.85 0a27.29 27.292 0 0 1 27.291 27.291 27.29 27.292 0 0 1-27.291 27.293 27.29 27.292 0 0 1-27.289-27.293 27.29 27.292 0 0 1 27.289-27.291zm113.85 0a27.29 27.292 0 0 1 27.289 27.291 27.29 27.292 0 0 1-27.289 27.293 27.29 27.292 0 0 1-27.291-27.293 27.29 27.292 0 0 1 27.291-27.291zm-227.7 67.047a27.29 27.292 0 0 1 27.291 27.293 27.29 27.292 0 0 1-27.291 27.293 27.29 27.292 0 0 1-27.289-27.293 27.29 27.292 0 0 1 27.289-27.293zm113.85 0a27.29 27.292 0 0 1 27.291 27.293 27.29 27.292 0 0 1-27.291 27.293 27.29 27.292 0 0 1-27.289-27.293 27.29 27.292 0 0 1 27.289-27.293zm113.85 0a27.29 27.292 0 0 1 27.289 27.293 27.29 27.292 0 0 1-27.289 27.293 27.29 27.292 0 0 1-27.291-27.293 27.29 27.292 0 0 1 27.291-27.293zm-227.7 67.061a27.29 27.292 0 0 1 27.291 27.293 27.29 27.292 0 0 1-27.291 27.291 27.29 27.292 0 0 1-27.289-27.291 27.29 27.292 0 0 1 27.289-27.293zm113.85 0a27.29 27.292 0 0 1 27.291 27.293 27.29 27.292 0 0 1-27.291 27.291 27.29 27.292 0 0 1-27.289-27.291 27.29 27.292 0 0 1 27.289-27.293zm113.85 0a27.29 27.292 0 0 1 27.289 27.293 27.29 27.292 0 0 1-27.289 27.291 27.29 27.292 0 0 1-27.291-27.291 27.29 27.292 0 0 1 27.291-27.293z" fill="#7663f0"/></g></svg>
