<?xml version="1.0" encoding="UTF-8"?>
<svg width="470" height="470" version="1.1" viewBox="0 0 470 470" xml:space="preserve" xmlns="http://www.w3.org/2000/svg"><path d="m235 0 0.00782 0.0078125c-129.78 0-235 105.2-235 234.98 0 77.285 37.311 145.85 94.9 188.68l-0.007813-0.00195-26.783 46.305h165.67c0.40508 2e-3 0.80928 0.00782 1.2148 0.00782 129.78-3e-3 235-105.21 235-234.99 0-129.78-105.21-234.98-235-234.98zm0.26172 97.85c75.74 0 137.15 61.414 137.15 137.15 0 75.74-61.414 137.15-137.15 137.15-31.393 0-60.35-10.666-83.514-28.344l21.641-21.945c17.525 12.344 38.862 19.811 61.873 19.811 58.977 0 106.68-47.699 106.68-106.68 0-58.977-47.699-106.68-106.68-106.68-58.977 0-106.68 47.699-106.68 106.68h45.719l-60.957 60.957-60.959-60.957h45.719c0-75.74 61.416-137.15 137.16-137.15z" stroke-width=".99997"/></svg>
