<?xml version="1.0" encoding="UTF-8"?>
<svg width="470" height="470" version="1.1" viewBox="0 0 470 470" xml:space="preserve" xmlns="http://www.w3.org/2000/svg"><g transform="matrix(1.1595 0 0 1.1596 -160.78 -160.79)"><path d="m220.51 504.03 120.82 39.934 1.2e-4 4e-5 -143.92-5e-5zm323.5-162.72c0 111.92-90.739 202.66-202.67 202.66-111.93-1e-5 -202.67-90.731-202.67-202.66 0-111.93 90.739-202.66 202.67-202.66 111.93 0 202.67 90.731 202.67 202.66z" fill="#7663f0" stroke-width=".99998"/><g transform="translate(-5.1601e-6,-4.0973)"><circle cx="341" cy="433.47" r="23.536" fill="#fff" fill-opacity=".95" stroke-width=".64448"/><circle cx="439.19" cy="375.64" r="23.536" fill="#aaa4ce" stroke-width=".64448"/><circle cx="242.81" cy="375.64" r="23.536" fill="#cba1fe" stroke-width=".64447"/><circle cx="439.19" cy="433.47" r="23.536" fill="#fff" fill-opacity=".95" stroke-width=".64448"/><circle cx="439.19" cy="317.82" r="23.536" fill="#aacdf4" stroke-width=".64448"/><circle cx="242.81" cy="260" r="23.536" fill="#4b0f9f" stroke-width=".64448"/><circle cx="242.81" cy="317.82" r="23.536" fill="#aaa4ce" stroke-width=".64447"/><circle cx="242.81" cy="433.47" r="23.536" fill="#fff" fill-opacity=".95" stroke-width=".64448"/><circle cx="341" cy="317.82" r="23.536" fill="#4b0f9f" stroke-width=".64448"/><circle cx="341" cy="375.64" r="23.536" fill="#aacdf4" stroke-width=".64448"/><circle cx="439.19" cy="260" r="23.536" fill="#4b0f9f" stroke-width=".64447"/></g></g></svg>
