<svg width="512" height="512" viewBox="0 0 512 512" fill="none" xmlns="http://www.w3.org/2000/svg">
<rect width="512" height="512" fill="url(#paint0_linear_274_247)"/>
<g filter="url(#filter0_d_274_247)">
<path d="M262.437 64.0526C159.376 61.6133 74.8622 143.351 74 246.433C73.632 290.246 88.6044 330.537 113.828 362.322L91.0858 402.097C83.4629 415.419 93.0835 432 108.434 432H256.475C358.822 432 443.115 348.254 441.969 245.908C440.886 146.737 361.313 66.3973 262.437 64.0526Z" fill="url(#paint1_linear_274_247)"/>
</g>
<path d="M178.628 204.45C192.547 204.45 203.83 193.166 203.83 179.247C203.83 165.328 192.547 154.044 178.628 154.044C164.709 154.044 153.425 165.328 153.425 179.247C153.425 193.166 164.709 204.45 178.628 204.45Z" fill="#CABAFF"/>
<path d="M337.509 204.45C351.428 204.45 362.712 193.166 362.712 179.247C362.712 165.328 351.428 154.044 337.509 154.044C323.59 154.044 312.306 165.328 312.306 179.247C312.306 193.166 323.59 204.45 337.509 204.45Z" fill="#CABAFF"/>
<path d="M178.628 273.203C192.547 273.203 203.83 261.919 203.83 248C203.83 234.081 192.547 222.797 178.628 222.797C164.709 222.797 153.425 234.081 153.425 248C153.425 261.919 164.709 273.203 178.628 273.203Z" fill="#A98DFF"/>
<path d="M337.509 273.203C351.428 273.203 362.712 261.919 362.712 248C362.712 234.081 351.428 222.797 337.509 222.797C323.59 222.797 312.306 234.081 312.306 248C312.306 261.919 323.59 273.203 337.509 273.203Z" fill="#A98DFF"/>
<path d="M178.628 341.956C192.547 341.956 203.83 330.672 203.83 316.753C203.83 302.834 192.547 291.55 178.628 291.55C164.709 291.55 153.425 302.834 153.425 316.753C153.425 330.672 164.709 341.956 178.628 341.956Z" fill="#7753FF"/>
<path d="M337.509 341.956C351.428 341.956 362.712 330.672 362.712 316.753C362.712 302.834 351.428 291.55 337.509 291.55C323.59 291.55 312.306 302.834 312.306 316.753C312.306 330.672 323.59 341.956 337.509 341.956Z" fill="#7753FF"/>
<path d="M258 273.203C271.919 273.203 283.203 261.919 283.203 248C283.203 234.081 271.919 222.797 258 222.797C244.081 222.797 232.797 234.081 232.797 248C232.797 261.919 244.081 273.203 258 273.203Z" fill="#A98DFF"/>
<path d="M258 341.956C271.919 341.956 283.203 330.672 283.203 316.753C283.203 302.834 271.919 291.55 258 291.55C244.081 291.55 232.797 302.834 232.797 316.753C232.797 330.672 244.081 341.956 258 341.956Z" fill="#7753FF"/>
<defs>
<filter id="filter0_d_274_247" x="33.8458" y="43.9256" width="448.282" height="448.296" filterUnits="userSpaceOnUse" color-interpolation-filters="sRGB">
<feFlood flood-opacity="0" result="BackgroundImageFix"/>
<feColorMatrix in="SourceAlpha" type="matrix" values="0 0 0 0 0 0 0 0 0 0 0 0 0 0 0 0 0 0 127 0" result="hardAlpha"/>
<feOffset dy="20.0738"/>
<feGaussianBlur stdDeviation="20.0738"/>
<feComposite in2="hardAlpha" operator="out"/>
<feColorMatrix type="matrix" values="0 0 0 0 0.342831 0 0 0 0 0.236667 0 0 0 0 0.8875 0 0 0 0.5 0"/>
<feBlend mode="normal" in2="BackgroundImageFix" result="effect1_dropShadow_274_247"/>
<feBlend mode="normal" in="SourceGraphic" in2="effect1_dropShadow_274_247" result="shape"/>
</filter>
<linearGradient id="paint0_linear_274_247" x1="430.85" y1="558.85" x2="81.15" y2="-46.85" gradientUnits="userSpaceOnUse">
<stop offset="0.13" stop-color="#553BFF"/>
<stop offset="0.86" stop-color="#9064FF"/>
</linearGradient>
<linearGradient id="paint1_linear_274_247" x1="257.992" y1="432" x2="257.992" y2="63.9951" gradientUnits="userSpaceOnUse">
<stop stop-color="#E1D6FF"/>
<stop offset="1" stop-color="white"/>
</linearGradient>
</defs>
</svg>
