<?xml version="1.0" encoding="UTF-8" standalone="no"?>
<svg
   width="470"
   height="470"
   viewBox="0 0 470 470"
   fill="none"
   version="1.1"
   id="svg1"
   xmlns="http://www.w3.org/2000/svg"
   xmlns:svg="http://www.w3.org/2000/svg">
  <defs
     id="defs1" />
  <path
     d="M 240.66,0.0679573 C 96.819412,-3.3914182 -13.125957,121.58505 1.27186,259.418 5.91181,303.836 23.113,346.013 50.8606,381.007 c -9.697252,16.89396 -19.329784,33.82493 -28.9796,50.746 -4.536325,7.89386 -4.518532,17.64182 0.0458,25.519 4.56601,7.87769 13.014563,12.73816 22.1185,12.728 H 233.066 C 363.79,470 471.44,363.044 469.985,232.324 468.54771,106.06266 366.90444,3.1140824 240.66,0.0679573 Z M 164.282,312.915 c 0,18.1724 -14.80382,32.974 -32.975,32.974 -17.58968,-0.0325 -32.957545,-14.3632 -32.9157,-33.047 V 157.153 c 0,-18.17752 14.80824,-32.974 32.9747,-32.974 18.15963,0.0166 32.945,14.81175 32.945,32.974 z m 103.654,0 c 0,18.1724 -14.80382,32.974 -32.975,32.974 -18.1748,0 -32.975,-14.80627 -32.975,-32.974 v -89.932 c 0,-18.1684 14.80088,-32.974 32.975,-32.974 18.17156,0 32.975,14.80198 32.975,32.974 z m 103.654,-0.073 c 0,18.16913 -14.80095,32.974 -32.975,32.974 -18.16258,-0.0166 -32.95169,-14.81176 -32.96,-32.974 V 157.153 c 0.008,-18.17566 14.81722,-32.974 32.989,-32.974 18.16272,0.0166 32.946,14.81471 32.946,32.974 z"
     fill="#7152ff"
     id="path1" />
</svg>
