<svg width="470" height="470" viewBox="0 0 470 470" fill="none" xmlns="http://www.w3.org/2000/svg">
<g clip-path="url(#clip0_274_272)">
<path d="M240.667 0.0671429C109.04 -3.03486 1.10119 101.345 5.02835e-05 233.013C-0.46995 288.969 18.6389 340.428 50.8675 381.009L21.8215 431.809C12.0992 448.823 24.3863 470 43.992 470H233.066C363.78 470 471.423 363.041 469.973 232.341C468.577 105.669 366.949 3.06171 240.667 0.0671429ZM133.628 355.011C115.848 355.011 101.426 340.589 101.426 322.809C101.426 305.03 115.848 290.621 133.628 290.621C151.407 290.621 165.816 305.03 165.816 322.809C165.816 340.589 151.407 355.011 133.628 355.011ZM133.628 267.202C115.848 267.202 101.426 252.779 101.426 235C101.426 217.221 115.848 202.812 133.628 202.812C151.407 202.812 165.816 217.221 165.816 235C165.816 252.779 151.407 267.202 133.628 267.202ZM133.628 179.392C115.848 179.392 101.426 164.983 101.426 147.204C101.426 129.425 115.848 115.002 133.628 115.002C151.407 115.002 165.816 129.425 165.816 147.204C165.816 164.983 151.407 179.392 133.628 179.392ZM235 355.011C217.221 355.011 202.812 340.589 202.812 322.809C202.812 305.03 217.221 290.621 235 290.621C252.779 290.621 267.202 305.03 267.202 322.809C267.202 340.589 252.779 355.011 235 355.011ZM235 267.202C217.221 267.202 202.812 252.779 202.812 235C202.812 217.221 217.221 202.812 235 202.812C252.779 202.812 267.202 217.221 267.202 235C267.202 252.779 252.779 267.202 235 267.202ZM336.56 355.011C318.767 355.011 304.359 340.589 304.359 322.809C304.359 305.03 318.767 290.621 336.56 290.621C354.353 290.621 368.749 305.03 368.749 322.809C368.749 340.589 354.34 355.011 336.56 355.011ZM336.56 267.202C318.767 267.202 304.359 252.779 304.359 235C304.359 217.221 318.767 202.812 336.56 202.812C354.353 202.812 368.749 217.221 368.749 235C368.749 252.779 354.34 267.202 336.56 267.202ZM336.56 179.392C318.767 179.392 304.359 164.983 304.359 147.204C304.359 129.425 318.767 115.002 336.56 115.002C354.353 115.002 368.749 129.425 368.749 147.204C368.749 164.983 354.34 179.392 336.56 179.392Z" fill="#7152FF"/>
</g>
<defs>
<clipPath id="clip0_274_272">
<rect width="470" height="470" fill="white"/>
</clipPath>
</defs>
</svg>
