<?xml version="1.0" encoding="UTF-8"?>
<svg width="470" height="470" fill="none" version="1.1" viewBox="0 0 470 470" xmlns="http://www.w3.org/2000/svg">
 <g clip-path="url(#b)">
  <path d="m240.67 0.067132c-131.63-3.1154-239.57 101.28-240.67 232.93-0.47 55.957 18.652 107.42 50.867 148.01l-29.046 50.8c-9.7357 17.014 2.5514 38.191 22.157 38.191h189.07c130.71 0 238.37-106.96 236.91-237.67-1.383-126.66-103.01-229.27-229.29-232.26z" fill="url(#a)"/>
  <path d="m133.63 179.38c17.777 0 32.188-14.411 32.188-32.188 0-17.778-14.411-32.189-32.188-32.189s-32.189 14.411-32.189 32.189c0 17.777 14.412 32.188 32.189 32.188z" fill="#A98DFF"/>
  <path d="m336.55 179.38c17.777 0 32.188-14.411 32.188-32.188 0-17.778-14.411-32.189-32.188-32.189s-32.188 14.411-32.188 32.189c0 17.777 14.411 32.188 32.188 32.188z" fill="#A98DFF"/>
  <path d="m133.63 267.19c17.777 0 32.188-14.411 32.188-32.188s-14.411-32.188-32.188-32.188-32.189 14.411-32.189 32.188 14.412 32.188 32.189 32.188z" fill="#CABAFF"/>
  <path d="m336.55 267.19c17.777 0 32.188-14.411 32.188-32.188s-14.411-32.188-32.188-32.188-32.188 14.411-32.188 32.188 14.411 32.188 32.188 32.188z" fill="#CABAFF"/>
  <path d="m133.63 355c17.777 0 32.188-14.411 32.188-32.189 0-17.777-14.411-32.188-32.188-32.188s-32.189 14.411-32.189 32.188c0 17.778 14.412 32.189 32.189 32.189z" fill="#fff"/>
  <path d="m336.55 355c17.777 0 32.188-14.411 32.188-32.189 0-17.777-14.411-32.188-32.188-32.188s-32.188 14.411-32.188 32.188c0 17.778 14.411 32.189 32.188 32.189z" fill="#fff"/>
  <path d="m235 267.19c17.777 0 32.188-14.411 32.188-32.188s-14.411-32.188-32.188-32.188-32.188 14.411-32.188 32.188 14.411 32.188 32.188 32.188z" fill="#CABAFF"/>
  <path d="m235 355c17.777 0 32.188-14.411 32.188-32.189 0-17.777-14.411-32.188-32.188-32.188s-32.188 14.411-32.188 32.188c0 17.778 14.411 32.189 32.188 32.189z" fill="#fff"/>
 </g>
 <defs>
  <linearGradient id="a" x1="395.49" x2="74.458" y1="513.01" y2="-42.978" gradientUnits="userSpaceOnUse">
   <stop stop-color="#553BFF" offset=".13"/>
   <stop stop-color="#9064FF" offset=".86"/>
  </linearGradient>
  <clipPath id="b">
   <rect width="470" height="470" fill="#fff"/>
  </clipPath>
 </defs>
</svg>
