<svg width="512" height="512" viewBox="0 0 512 512" fill="none" xmlns="http://www.w3.org/2000/svg">
<path fill-rule="evenodd" clip-rule="evenodd" d="M372 82H140C113.49 82 92 103.49 92 130V383C92 409.51 113.49 431 140 431H372C398.51 431 420 409.51 420 383V130C420 103.49 398.51 82 372 82ZM416 184H96V362C96 386.301 115.699 406 140 406H372C396.301 406 416 386.301 416 362V184ZM154 230C141.85 230 132 239.85 132 252C132 264.15 141.85 274 154 274H332C344.15 274 354 264.15 354 252C354 239.85 344.15 230 332 230H154ZM132 322C132 309.85 141.85 300 154 300H249C261.15 300 271 309.85 271 322C271 334.15 261.15 344 249 344H154C141.85 344 132 334.15 132 322Z" fill="black"/>
</svg>
