<svg width="512" height="512" viewBox="0 0 512 512" fill="none" xmlns="http://www.w3.org/2000/svg">
<path fill-rule="evenodd" clip-rule="evenodd" d="M212.067 162.553C212.067 156.293 217.142 151.218 223.402 151.218H336.752C343.012 151.218 348.087 156.293 348.087 162.553V309.908L348.087 309.952C348.075 321.961 343.3 333.476 334.807 341.968C326.304 350.471 314.772 355.248 302.747 355.248C290.722 355.248 279.189 350.471 270.687 341.968C262.184 333.465 257.407 321.933 257.407 309.908C257.407 297.883 262.184 286.351 270.687 277.848C279.189 269.345 290.722 264.568 302.747 264.568C310.775 264.568 318.583 266.697 325.417 270.642V219.228H234.737V309.834L234.737 309.908C234.737 321.933 229.96 333.465 221.457 341.968C212.954 350.471 201.422 355.248 189.397 355.248C177.372 355.248 165.839 350.471 157.336 341.968C148.834 333.465 144.057 321.933 144.057 309.908C144.057 297.883 148.834 286.351 157.336 277.848C165.839 269.345 177.372 264.568 189.397 264.568C197.425 264.568 205.233 266.697 212.067 270.642V207.933C212.067 207.92 212.067 207.906 212.067 207.893C212.067 207.88 212.067 207.867 212.067 207.853V162.553ZM234.737 196.558H325.417V173.888H234.737V196.558ZM212.067 309.908V309.852C212.052 303.86 209.665 298.116 205.427 293.878C201.175 289.626 195.409 287.238 189.397 287.238C183.384 287.238 177.618 289.626 173.367 293.878C169.115 298.129 166.727 303.896 166.727 309.908C166.727 315.92 169.115 321.687 173.367 325.938C177.618 330.19 183.384 332.578 189.397 332.578C195.409 332.578 201.175 330.19 205.427 325.938C209.671 321.694 212.058 315.941 212.067 309.941L212.067 309.908ZM286.717 293.878C290.968 289.626 296.734 287.238 302.747 287.238C308.759 287.238 314.526 289.626 318.777 293.878C323.028 298.129 325.417 303.896 325.417 309.908C325.417 315.92 323.028 321.687 318.777 325.938C314.526 330.19 308.759 332.578 302.747 332.578C296.734 332.578 290.968 330.19 286.717 325.938C282.465 321.687 280.077 315.92 280.077 309.908C280.077 303.896 282.465 298.129 286.717 293.878Z" fill="black"/>
<circle cx="256.5" cy="255.5" r="172.5" stroke="black" stroke-width="15"/>
</svg>
