<svg width="512" height="512" viewBox="0 0 512 512" fill="none" xmlns="http://www.w3.org/2000/svg">
<path fill-rule="evenodd" clip-rule="evenodd" d="M414.392 151.01C431.551 178.62 441.602 211.109 441.985 245.918C443.121 348.254 358.838 432 256.492 432H108.451C93.1006 432 83.48 415.419 91.0923 402.097L113.835 362.322C88.6005 330.548 73.6386 290.257 74.0066 246.444C74.8688 143.351 159.383 61.624 262.444 64.0528C300.882 64.9643 336.403 77.663 365.53 98.6737L348.694 105.126C345.233 106.466 343 109.816 343 113.5C343 117.184 345.233 120.534 348.694 121.874L374.15 131.699C375.089 132.083 375.929 132.418 376.647 132.704C377.809 133.167 378.649 133.502 379.063 133.709C379.621 134.044 380.068 134.49 380.403 135.049C380.85 135.607 381.519 137.393 382.413 139.961L392.126 165.306C393.466 168.767 396.816 171 400.5 171C404.184 171 407.534 168.767 408.874 165.306L414.392 151.01ZM408.271 141.791L400.5 162.068L390.675 136.612C389.335 133.039 388.665 131.252 387.549 129.801C386.655 128.461 385.427 127.345 384.087 126.34C382.636 125.223 380.85 124.553 377.277 123.214L351.932 113.5L373.849 105.041C386.928 115.652 398.522 128.023 408.271 141.791ZM153.421 316.753C153.421 330.674 164.713 341.966 178.634 341.966C192.555 341.966 203.837 330.674 203.837 316.753C203.837 302.832 192.555 291.55 178.634 291.55C164.713 291.55 153.421 302.832 153.421 316.753ZM153.421 248C153.421 261.921 164.713 273.213 178.634 273.213C192.555 273.213 203.837 261.921 203.837 248C203.837 234.079 192.555 222.797 178.634 222.797C164.713 222.797 153.421 234.079 153.421 248ZM153.421 179.258C153.421 193.179 164.713 204.46 178.634 204.46C192.555 204.46 203.837 193.179 203.837 179.258C203.837 165.337 192.555 154.044 178.634 154.044C164.713 154.044 153.421 165.337 153.421 179.258ZM232.804 316.753C232.804 330.674 244.086 341.966 258.007 341.966C271.927 341.966 283.22 330.674 283.22 316.753C283.22 302.832 271.927 291.55 258.007 291.55C244.086 291.55 232.804 302.832 232.804 316.753ZM232.804 248C232.804 261.921 244.086 273.213 258.007 273.213C271.927 273.213 283.22 261.921 283.22 248C283.22 234.079 271.927 222.797 258.007 222.797C244.086 222.797 232.804 234.079 232.804 248ZM312.313 316.753C312.313 330.674 323.595 341.966 337.526 341.966C351.447 341.966 362.729 330.674 362.729 316.753C362.729 302.832 351.457 291.55 337.526 291.55C323.595 291.55 312.313 302.832 312.313 316.753ZM312.313 248C312.313 261.921 323.595 273.213 337.526 273.213C351.447 273.213 362.729 261.921 362.729 248C362.729 234.079 351.457 222.797 337.526 222.797C323.595 222.797 312.313 234.079 312.313 248ZM312.313 179.258C312.313 193.179 323.595 204.46 337.526 204.46C351.447 204.46 362.729 193.179 362.729 179.258C362.729 165.337 351.457 154.044 337.526 154.044C323.595 154.044 312.313 165.337 312.313 179.258Z" fill="black"/>
<path d="M400.501 64.9326L410.326 90.3889C411.666 93.9617 412.336 95.7482 413.452 97.1996C414.345 98.5394 415.573 99.6559 416.913 100.661C418.365 101.777 420.151 102.447 423.724 103.787L449.069 113.501L423.612 123.326C420.039 124.666 418.253 125.336 416.802 126.452C415.462 127.345 414.345 128.573 413.34 129.913C412.224 131.365 411.554 133.151 410.214 136.724L400.501 162.069L390.675 136.612C389.336 133.039 388.666 131.253 387.549 129.802C386.656 128.462 385.428 127.345 384.088 126.34C382.636 125.224 380.85 124.554 377.277 123.214L351.933 113.501L377.389 103.675C380.962 102.336 382.748 101.666 384.2 100.549C385.539 99.6559 386.656 98.4278 387.661 97.088C388.777 95.6365 389.447 93.8501 390.787 90.2773L400.501 64.9326Z" fill="black"/>
</svg>
