<svg width="512" height="512" viewBox="0 0 512 512" fill="none" xmlns="http://www.w3.org/2000/svg">
<circle cx="256.5" cy="185.5" r="112.5" stroke="black" stroke-width="4"/>
<circle cx="256.207" cy="185.794" r="84.5953" stroke="black" stroke-width="8"/>
<circle cx="256.206" cy="185.794" r="55.2219" stroke="black" stroke-width="12"/>
<path d="M165 432C156.25 432 148.812 428.938 142.688 422.812C136.562 416.688 133.5 409.25 133.5 400.5C133.5 394.375 135.25 388.615 138.75 383.219C142.25 377.823 146.917 373.958 152.75 371.625L221 344.5V305.125C205.25 323.5 186.948 337.573 166.094 347.344C145.24 357.115 122.708 362 98.5 362V327C118.333 327 136.344 322.917 152.531 314.75C168.719 306.583 183.375 294.917 196.5 279.75L220.125 251.75C223.625 247.667 227.708 244.604 232.375 242.562C237.042 240.521 242 239.5 247.25 239.5H264.75C270 239.5 274.958 240.521 279.625 242.562C284.292 244.604 288.375 247.667 291.875 251.75L315.5 279.75C328.625 294.917 343.281 306.583 359.469 314.75C375.656 322.917 393.667 327 413.5 327V362C389.292 362 366.76 357.115 345.906 347.344C325.052 337.573 306.75 323.5 291 305.125V344.5L359.25 371.625C365.083 373.958 369.75 377.823 373.25 383.219C376.75 388.615 378.5 394.375 378.5 400.5C378.5 409.25 375.438 416.688 369.312 422.812C363.188 428.938 355.75 432 347 432H221V423.25C221 415.667 223.479 409.396 228.438 404.438C233.396 399.479 239.667 397 247.25 397H299.75C302.375 397 304.49 396.198 306.094 394.594C307.698 392.99 308.5 390.875 308.5 388.25C308.5 385.625 307.698 383.51 306.094 381.906C304.49 380.302 302.375 379.5 299.75 379.5H247.25C235 379.5 224.646 383.729 216.188 392.188C207.729 400.646 203.5 411 203.5 423.25V432H165ZM256 222C246.375 222 238.135 218.573 231.281 211.719C224.427 204.865 221 196.625 221 187C221 177.375 224.427 169.135 231.281 162.281C238.135 155.427 246.375 152 256 152C265.625 152 273.865 155.427 280.719 162.281C287.573 169.135 291 177.375 291 187C291 196.625 287.573 204.865 280.719 211.719C273.865 218.573 265.625 222 256 222Z" fill="black"/>
</svg>
