<svg width="512" height="512" viewBox="0 0 512 512" fill="none" xmlns="http://www.w3.org/2000/svg">
<g clip-path="url(#clip0_311_2075)">
<path fill-rule="evenodd" clip-rule="evenodd" d="M206.576 432H257.716V414.931H206.576V432ZM138.425 432H189.574V414.931H138.425V432ZM273.457 414.334L275.979 431.213L284.39 429.952C296.177 428.188 307.765 425.286 318.992 421.285L327.024 418.44L321.334 402.367L313.293 405.212C303.105 408.838 292.591 411.47 281.896 413.073L273.457 414.334ZM109.522 425.106L116.842 429.506L125.633 414.855L118.312 410.475C114.482 408.127 111.183 405.007 108.624 401.314C106.066 397.621 104.305 393.436 103.453 389.025L101.869 380.633L85.1041 383.8L86.6877 392.183C87.9776 398.963 90.6766 405.397 94.61 411.068C98.5433 416.74 103.623 421.522 109.522 425.106ZM335.236 395.796L343.969 410.456L351.318 406.084C361.548 399.982 371.173 392.917 380.06 384.985L386.423 379.296L375.043 366.561L368.681 372.25C360.603 379.455 351.859 385.875 342.566 391.424L335.236 395.796ZM385.55 355.276L399.101 365.66L404.288 358.908C411.523 349.428 417.818 339.265 423.082 328.564L426.875 320.912L411.58 313.326L407.787 320.978C403.001 330.676 397.285 339.885 390.718 348.477L385.55 355.276ZM81.5861 300.325L84.0326 308.508L100.4 303.653L97.972 295.47C94.8976 285.101 92.8303 274.46 91.7988 263.694L90.9928 255.159L74 256.771L74.806 265.306C75.9353 277.17 78.2058 288.897 81.5861 300.325ZM417.051 299.026L433.542 303.435L435.779 295.185C438.851 283.663 440.789 271.867 441.564 259.967L442.114 251.433L425.045 250.333L424.495 258.867C423.795 269.649 422.039 280.337 419.251 290.776L417.051 299.026ZM74.0474 238.138L91.0686 239.807L91.8747 231.358C92.9247 220.595 95.0175 209.959 98.1237 199.601L100.551 191.38L84.2222 186.43L81.7757 194.613C78.3557 206.027 76.0471 217.745 74.8819 229.604L74.0474 238.138ZM423.499 226.494L424.581 234.961L441.516 232.79L440.426 224.322C438.907 212.497 436.239 200.848 432.461 189.54L429.758 181.451L413.571 186.866L416.274 194.954C419.697 205.209 422.117 215.771 423.499 226.494ZM91.3342 169.171L106.402 177.175L110.404 169.636C115.494 160.097 121.502 151.077 128.345 142.705L133.74 136.068L120.455 125.267L115.069 131.905C107.541 141.133 100.932 151.073 95.3358 161.585L91.3342 169.171ZM403.046 165.464L407.265 172.841L422.087 164.345L417.857 156.929C411.938 146.597 405.034 136.86 397.242 127.856L391.666 121.398L378.761 132.597L384.346 139.055C391.418 147.232 397.681 156.077 403.046 165.464ZM133.589 112.01L144.522 125.115L151.074 119.653C159.376 112.728 168.331 106.627 177.815 101.437L185.307 97.3502L177.123 82.3678L169.632 86.4642C159.172 92.1846 149.295 98.9112 140.141 106.548L133.589 112.01ZM360.895 116.657L367.6 121.929L378.173 108.492L371.459 103.22C362.089 95.8518 352.025 89.4113 341.409 83.9893L333.823 80.1204L326.047 95.3494L333.633 99.2183C343.267 104.128 352.398 109.969 360.895 116.657ZM194.334 75.0567L199.445 91.3383L207.619 88.8254C217.936 85.5899 228.543 83.3669 239.291 82.1876L247.778 81.2393L245.881 64.275L237.394 65.2233C225.547 66.5284 213.855 68.9768 202.479 72.5343L194.334 75.0567ZM303.478 87.422L311.728 89.7452L316.365 73.3214L308.153 70.9981C296.689 67.7693 284.939 65.6575 273.068 64.6922L264.533 64L263.092 81.0402L271.626 81.7324C282.403 82.5954 293.07 84.5008 303.478 87.422ZM91.0686 361.336L105.88 369.804L118.407 347.994C119.186 346.631 119.575 345.08 119.53 343.51C119.485 341.941 119.007 340.415 118.151 339.099C115.297 334.718 112.622 330.129 110.185 325.482L106.231 317.896L91.0591 325.804L95.0133 333.391C96.8814 336.965 98.8917 340.512 100.997 343.964L91.0686 361.336Z" fill="white" fill-opacity="0.6"/>
<path d="M261.379 96.0435C176.401 94.0409 106.716 161.428 106.005 246.432C105.702 282.557 118.039 315.779 138.845 341.978L120.093 374.774C113.817 385.758 121.749 399.43 134.407 399.43H256.472C340.86 399.43 410.354 330.378 409.418 245.999C408.516 164.22 342.906 97.9768 261.379 96.0435ZM192.275 325.194C180.797 325.194 171.486 315.883 171.486 304.404C171.486 292.926 180.797 283.624 192.275 283.624C203.753 283.624 213.056 292.926 213.056 304.404C213.056 315.883 203.753 325.194 192.275 325.194ZM192.275 268.504C180.797 268.504 171.486 259.193 171.486 247.715C171.486 236.237 180.797 226.934 192.275 226.934C203.753 226.934 213.056 236.237 213.056 247.715C213.056 259.193 203.753 268.504 192.275 268.504ZM192.275 211.815C180.797 211.815 171.486 202.513 171.486 191.034C171.486 179.556 180.797 170.245 192.275 170.245C203.753 170.245 213.056 179.556 213.056 191.034C213.056 202.513 203.753 211.815 192.275 211.815ZM257.72 325.194C246.242 325.194 236.94 315.883 236.94 304.404C236.94 292.926 246.242 283.624 257.72 283.624C269.199 283.624 278.51 292.926 278.51 304.404C278.51 315.883 269.199 325.194 257.72 325.194ZM257.72 268.504C246.242 268.504 236.94 259.193 236.94 247.715C236.94 236.237 246.242 226.934 257.72 226.934C269.199 226.934 278.51 236.237 278.51 247.715C278.51 259.193 269.199 268.504 257.72 268.504ZM323.287 325.194C311.8 325.194 302.498 315.883 302.498 304.404C302.498 292.926 311.8 283.624 323.287 283.624C334.774 283.624 344.068 292.926 344.068 304.404C344.068 315.883 334.766 325.194 323.287 325.194ZM323.287 268.504C311.8 268.504 302.498 259.193 302.498 247.715C302.498 236.237 311.8 226.934 323.287 226.934C334.774 226.934 344.068 236.237 344.068 247.715C344.068 259.193 334.766 268.504 323.287 268.504ZM323.287 211.815C311.8 211.815 302.498 202.513 302.498 191.034C302.498 179.556 311.8 170.245 323.287 170.245C334.774 170.245 344.068 179.556 344.068 191.034C344.068 202.513 334.766 211.815 323.287 211.815Z" fill="white"/>
</g>
<defs>
<clipPath id="clip0_311_2075">
<rect width="368.076" height="368" fill="white" transform="translate(74 64)"/>
</clipPath>
</defs>
</svg>
