<svg xmlns="http://www.w3.org/2000/svg" viewBox="0 0 15984 432" width="15984" height="432"><path d="M0 0h432v432H0z" fill="#7152ff"/><path d="M216 216z" fill="#e2dcff"/><path d="M216 216zM75.43 216c0-77.635 62.934-140.57 140.57-140.57 77.635 0 140.57 62.935 140.57 140.57 0 77.635-62.935 140.57-140.57 140.57-77.636 0-140.57-62.935-140.57-140.57z" fill="none"/><path d="M216 216z" fill="#ffffff"/><path d="M432 0h432v432H432z" fill="#7152ff"/><path d="M625.547847 216c0-12.400035 10.051959-22.452153 22.452153-22.452153 12.400035 0 22.452153 10.052118 22.452153 22.452153 0 12.400035-10.052118 22.452153-22.452153 22.452153-12.400194 0-22.452153-10.052118-22.452153-22.452153z" fill="#e2dcff" fill-opacity=".840278"/><path d="M601.73902 216c0-25.549344 20.711307-46.26098 46.26098-46.26098 25.549344 0 46.26098 20.711636 46.26098 46.26098 0 25.549344-20.711636 46.26098-46.26098 46.26098-25.549673 0-46.26098-20.711636-46.26098-46.26098z" fill="none" stroke="#ffffff" stroke-opacity=".0164" stroke-width="31.916497860968"/><path d="M507.43 216c0-77.635 62.934-140.57 140.57-140.57 77.635 0 140.57 62.935 140.57 140.57 0 77.635-62.935 140.57-140.57 140.57-77.636 0-140.57-62.935-140.57-140.57z" fill="none"/><path d="M647.80128 215.126452c-.15856.038229-.30294.120844-.41623.23817s-.190805.264508-.223456.424303c-.032661.159788-.019106.325581.039069.477938.058185.152362.158573.284999.289414.382361l-.015805.060047-.03888.146541c-.004184.015782-.004147.032395.0001.048159.004257.01577.012578.030139.024142.041678.011557.01154.025947.019837.04172.024057.015777.004228.03239.004225.048163.00001l.667227-.177951c.461247-.123016.740424-.601723.612289-1.061639-.059748-.214144-.20027-.396748-.391971-.509357-.191709-.112606-.419641-.146419-.635782-.094317z" fill="#ffffff"/><path d="M864 0h432v432H864z" fill="#7152ff"/><path d="M1037.048056 216c0-23.721806 19.229833-42.951944 42.951944-42.951944 23.721806 0 42.951944 19.230138 42.951944 42.951944 0 23.721806-19.230138 42.951944-42.951944 42.951944-23.722111 0-42.951944-19.230138-42.951944-42.951944z" fill="#e2dcff" fill-opacity=".694444"/><path d="M1004.674724 216c0-41.60118 33.72356-75.325276 75.325276-75.325276 41.60118 0 75.325276 33.724097 75.325276 75.325276 0 41.60118-33.724097 75.325276-75.325276 75.325276-41.601715 0-75.325276-33.724097-75.325276-75.325276z" fill="none" stroke="#ffffff" stroke-opacity=".087584" stroke-width="44.950021741552"/><path d="M939.43 216c0-77.635 62.934-140.57 140.57-140.57 77.635 0 140.57 62.935 140.57 140.57 0 77.635-62.935 140.57-140.57 140.57-77.636 0-140.57-62.935-140.57-140.57z" fill="none"/><path d="M1079.109854 212.022897c-.721928.171395-1.38005.544936-1.897294 1.076876s-.872213 1.200271-1.023286 1.92669c-.15112.726392-.092086 1.480831.170142 2.174856.262275.694051.716854 1.299036 1.310534 1.744036l-.072857.272915-.179201.666027c-.019284.071728-.01938.147302-.000308.219085.019117.071809.05674.137308.109166.189984.05239.052684.11772.090655.189413.110104.071703.019484.14728.019736.2191.00081l3.038175-.79894c2.10026-.552298 3.377897-2.725601 2.802285-4.819886-.268403-.975136-.904772-1.80807-1.775067-2.323392-.870332-.515314-1.906707-.672754-2.890802-.439165z" fill="#ffffff"/><path d="M1296 0h432v432h-432z" fill="#7152ff"/><path d="M1450.500625 216c0-33.965312 27.533625-61.499375 61.499375-61.499375 33.965312 0 61.499375 27.534063 61.499375 61.499375S1545.965312 277.499375 1512 277.499375c-33.96575 0-61.499375-27.534063-61.499375-61.499375z" fill="#e2dcff" fill-opacity=".5625"/><path d="M1415.696403 216c0-53.187236 43.115676-96.303597 96.303597-96.303597 53.187236 0 96.303597 43.116361 96.303597 96.303597S1565.187236 312.303597 1512 312.303597c-53.18792 0-96.303597-43.116361-96.303597-96.303597z" fill="none" stroke="#ffffff" stroke-opacity=".228626" stroke-width="39.689441086959995"/><path d="M1371.43 216c0-77.635 62.934-140.57 140.57-140.57 77.635 0 140.57 62.935 140.57 140.57 0 77.635-62.935 140.57-140.57 140.57-77.636 0-140.57-62.935-140.57-140.57z" fill="none"/><path d="M1509.75048 205.667659c-1.875685.4338-3.588873 1.393047-4.938933 2.7654-1.35006 1.372352-2.281142 3.101031-2.684079 4.983501-.403056 1.8824-.261276 3.840743.40862 5.645401.670014 1.80473 1.840325 3.381273 3.373955 4.544822l-.193152.706997-.475006 1.725356c-.051114.185812-.052504.381894-.004105.568427.048517.186603.145144.357115.280373.494577.135133.137485.304066.23699.489785.288532.185743.051637.381829.05343.568459.005411l7.894841-2.02705c5.457624-1.40128 8.80536-7.0208 7.343503-12.463274-.681671-2.534116-2.320207-4.704834-4.570478-6.055017-2.250366-1.350159-4.936944-1.774292-7.493782-1.183083z" fill="#ffffff"/><path d="M1728 0h432v432h-432z" fill="#7152ff"/><path d="M1865.905556 216c0-43.130556 34.963333-78.094444 78.094444-78.094444 43.130556 0 78.094444 34.963888 78.094444 78.094444S1987.130556 294.094444 1944 294.094444c-43.131111 0-78.094444-34.963888-78.094444-78.094444z" fill="#e2dcff" fill-opacity=".444444"/><path d="M1832.179964 216c0-61.756765 50.062475-111.820036 111.820036-111.820036 61.756765 0 111.820036 50.06327 111.820036 111.820036 0 61.756765-50.06327 111.820036-111.820036 111.820036-61.75756 0-111.820036-50.06327-111.820036-111.820036z" fill="none" stroke="#ffffff" stroke-opacity=".347617" stroke-width="28.66767830102"/><path d="M1803.43 216c0-77.635 62.934-140.57 140.57-140.57 77.635 0 140.57 62.935 140.57 140.57 0 77.635-62.935 140.57-140.57 140.57-77.636 0-140.57-62.935-140.57-140.57z" fill="none"/><path d="M1939.543293 194.69646c-3.867773.861394-7.409905 2.80698-10.211579 5.608898s-4.746988 6.344243-5.607863 10.211952c-.861119 3.867562-.60214 7.900563.746373 11.626108 1.348757 3.725692 3.73104 6.990122 6.868022 9.410627l-.409394 1.45189-1.006571 3.543132c-.108318.381577-.114466.785127-.01798 1.169856.09673.384876.292748.73744.568768 1.022628.275825.285236.62185.492866 1.00323.602063.381428.109393.784976.116371 1.1699.020667l16.282995-4.039688c11.256269-2.792596 18.240722-14.302462 15.323192-25.528567-1.360521-5.227098-4.696535-9.722295-9.305365-12.53894-4.609026-2.816597-10.13138-3.734578-15.403728-2.560626z" fill="#ffffff"/><g><path d="M2160 0h432v432h-432z" fill="#7152ff"/><path d="M2283.262847 216c0-51.217535 41.518959-92.737153 92.737153-92.737153 51.217535 0 92.737153 41.519618 92.737153 92.737153 0 51.217535-41.519618 92.737153-92.737153 92.737153-51.218194 0-92.737153-41.519618-92.737153-92.737153z" fill="#e2dcff" fill-opacity=".340278"/><path d="M2252.786897 216c0-68.04901 55.163217-123.213103 123.213103-123.213103 68.04901 0 123.213103 55.164093 123.213103 123.213103 0 68.04901-55.164093 123.213103-123.213103 123.213103-68.049886 0-123.213103-55.164093-123.213103-123.213103z" fill="none" stroke="#ffffff" stroke-opacity=".418566" stroke-width="20.145953305725"/><path d="M2235.43 216c0-77.635 62.934-140.57 140.57-140.57 77.635 0 140.57 62.935 140.57 140.57 0 77.635-62.935 140.57-140.57 140.57-77.636 0-140.57-62.935-140.57-140.57z" fill="none"/><path d="M2368.577194 178.566569c-6.797202 1.43927-13.043363 4.785435-18.006998 9.64661-4.963636 4.861175-8.439406 11.036233-10.019798 17.801699-1.580817 6.765204-1.200798 13.84104 1.09515 20.397816 2.296374 6.557039 6.413302 12.32432 11.868945 16.625803l-.74445 2.53809-1.829883 6.193708c-.19692.667031-.21511 1.374465-.053004 2.050784.16253.676582.499736 1.298334.978447 1.803422.478367.50517 1.081243.875562 1.747913 1.07402.66675.198803 1.374167.218448 2.050812.057717l28.623228-6.78383c19.786947-4.689592 32.244157-24.741654 27.334964-44.478006-2.289433-9.189678-8.055945-17.132383-16.084912-22.155444-8.029312-5.02298-17.694828-6.733878-26.960414-4.77239z" fill="#ffffff"/></g><g><path d="M2592 0h432v432h-432z" fill="#7152ff"/><path d="M2702.5725 216c0-58.22625 47.2005-105.4275 105.4275-105.4275 58.22625 0 105.4275 47.20125 105.4275 105.4275 0 58.22625-47.20125 105.4275-105.4275 105.4275-58.227 0-105.4275-47.20125-105.4275-105.4275z" fill="#e2dcff" fill-opacity=".25"/><path d="M2676.69809 216c0-72.516353 58.784623-131.30191 131.30191-131.30191 72.516353 0 131.30191 58.785557 131.30191 131.30191S2880.516352 347.30191 2808 347.30191c-72.517287 0-131.30191-58.785557-131.30191-131.30191z" fill="none" stroke="#ffffff" stroke-opacity=".460388" stroke-width="14.280618178704"/><path d="M2667.43 216c0-77.635 62.934-140.57 140.57-140.57 77.635 0 140.57 62.935 140.57 140.57 0 77.635-62.935 140.57-140.57 140.57-77.636 0-140.57-62.935-140.57-140.57z" fill="none"/><path d="M2797.663538 160.134517c-10.145855 2.013007-19.507755 6.875153-26.989333 14.017005-7.481578 7.141851-12.773328 16.267922-15.254836 26.308998-2.482136 10.040678-2.051255 20.58113 1.2416 30.385407 3.293484 9.804675 9.312124 18.468394 17.351528 24.975606l-1.156563 3.764059-2.842008 9.185195c-.30585.989202-.346405 2.041954-.117979 3.051823.229055 1.010267.719177 1.942243 1.42217 2.703248.70248.76112 1.592874 1.323979 2.581509 1.63211.988749.308644 2.041446.351368 3.051774.124994l42.73829-9.55314c29.544544-6.603988 48.470633-36.216472 41.53878-65.689886-3.23299-13.723535-11.665779-25.657056-23.522129-33.287456-11.856863-7.630285-26.212517-10.361324-40.042803-7.617963z" fill="#ffffff"/></g><g><path d="M3024 0h432v432h-432z" fill="#7152ff"/><path d="M3123.834514 216c0-64.156701 52.007958-116.165486 116.165486-116.165486 64.156701 0 116.165486 52.008785 116.165486 116.165486S3304.156701 332.165486 3240 332.165486c-64.157528 0-116.165486-52.008785-116.165486-116.165486z" fill="#e2dcff" fill-opacity=".173611"/><path d="M3103.359387 216c0-75.46485 61.17479-136.640613 136.640613-136.640613 75.46485 0 136.640613 61.175763 136.640613 136.640613S3315.46485 352.640613 3240 352.640613c-75.465822 0-136.640613-61.175763-136.640613-136.640613z" fill="none" stroke="#ffffff" stroke-opacity=".484396" stroke-width="10.567316374353"/><path d="M3099.43 216c0-77.635 62.934-140.57 140.57-140.57 77.635 0 140.57 62.935 140.57 140.57 0 77.635-62.935 140.57-140.57 140.57-77.636 0-140.57-62.935-140.57-140.57z" fill="none"/><path d="M3227.746442 143.674588c-13.13783 2.40069-25.319202 8.49499-35.117559 17.569162-9.798356 9.07417-16.80835 20.752778-20.20813 33.667561-3.400582 12.914256-3.050158 26.530622 1.009515 39.252463 4.060475 12.722368 11.66147 24.02496 21.913429 32.582917l-1.566659 4.836894-3.848478 11.802781c-.414177 1.271108-.487095 2.629441-.211914 3.937665.275984 1.308751.89054 2.521524 1.783259 3.517727.892053.99634 2.030578 1.740393 3.300908 2.157505 1.270469.417776 2.62869.493492 3.937466.22097l55.362622-11.498642c38.271619-7.948894 63.283931-45.809629 54.910367-83.995818-3.905843-17.78052-14.559697-33.351644-29.71748-43.434206-15.158449-10.082423-33.63857-13.888614-51.547346-10.616979z" fill="#ffffff"/><path d="M3208.655055 212.493466c-1.268364.263435-2.472183.774197-3.543367 1.502888-1.071045.729355-1.988258 1.661835-2.698766 2.744853-.709705 1.083544-1.199813 2.296224-1.441674 3.568988-.24186 1.272764-.230333 2.580273.033767 3.848499l9.472345 45.60659c.53184 2.56066 2.059089 4.805707 4.246662 6.240278 2.186908 1.43471 4.85378 1.941768 7.415104 1.409789 2.560521-.532506 4.8041-2.060143 6.238145-4.246913 1.43338-2.186632 1.940438-4.853504 1.408736-7.413498l-9.472345-45.606591c-.262633-1.267837-.77273-2.471795-1.500756-3.543116-.728553-1.07052-1.660368-1.98787-2.74272-2.698517-1.083156-.711172-2.295172-1.201418-3.567409-1.444081-1.272237-.242663-2.57922-.23194-3.847722.03083z" fill="#7152ff" fill-opacity=".063889"/></g><g><path d="M3456 0h432v432h-432z" fill="#7152ff"/><path d="M3547.048889 216c0-69.008889 55.941333-124.951111 124.951111-124.951111 69.008889 0 124.951111 55.942222 124.951111 124.951111S3741.00889 340.951111 3672 340.951111c-69.009778 0-124.951111-55.942222-124.951111-124.951111z" fill="#e2dcff" fill-opacity=".111111"/><path d="M3532.370771 216c0-77.115424 62.512812-139.629229 139.629229-139.629229 77.115424 0 139.629229 62.513805 139.629229 139.629229 0 77.115424-62.513805 139.629229-139.629229 139.629229-77.116417 0-139.629229-62.513805-139.629229-139.629229z" fill="none" stroke="#ffffff" stroke-opacity=".496481" stroke-width="8.589556724238001"/><path d="M3531.43 216c0-77.635 62.934-140.57 140.57-140.57 77.635 0 140.57 62.935 140.57 140.57 0 77.635-62.935 140.57-140.57 140.57-77.636 0-140.57-62.935-140.57-140.57z" fill="none"/><path d="M3659.05898 130.59168c-15.51792 2.556585-29.985607 9.481713-41.708757 19.964338-11.723149 10.482624-20.216783 24.089038-24.485131 39.22513-4.269282 15.135455-4.13653 31.174669.381903 46.236895 4.519368 15.062862 13.236549 28.526832 25.131403 38.813732l-1.944002 5.662798-4.773795 13.817591c-.513779 1.4881-.62755 3.085913-.330435 4.631882.298048 1.546605.996708 2.987163 2.027327 4.178446 1.029833 1.191433 2.35505 2.090885 3.842174 2.608103 1.487273.518003 3.084896.635065 4.63146.341093l65.42069-12.40079c45.224656-8.572541 75.452446-52.636011 66.37814-97.768811-4.233349-21.01519-16.457263-39.567705-34.096938-51.750508-17.640461-12.182655-39.320874-17.043891-60.474039-13.5599z" fill="#ffffff"/><path d="M3634.163486 205.936869c-1.498796.284103-2.926679.860738-4.202874 1.696689-1.276047.836737-2.375145 1.915796-3.23396 3.176346-.85788 1.261188-1.45986 2.678935-1.770786 4.172526-.310926 1.49359-.324226 3.033299-.039337 4.531945l10.215517 53.89222c.573567 3.02587 2.325622 5.700592 4.871804 7.434625 2.545396 1.734183 5.67497 2.386006 8.701626 1.81229 3.025721-.574353 5.698723-2.326895 7.43212-4.872143 1.732612-2.545098 2.384435-5.674673 1.811017-8.699757l-10.215517-53.89222c-.283169-1.498158-.859018-2.92619-1.694184-4.202535-.835802-1.27541-1.914076-2.374656-3.17384-3.23362-1.2607-.859601-2.677662-1.46173-4.170616-1.77359-1.492954-.31186-3.032026-.326094-4.53097-.042776z" fill="#7152ff" fill-opacity=".122222"/></g><g><path d="M3888 0h432v432h-432z" fill="#7152ff"/><path d="M3972.215625 216c0-72.782812 59.000625-131.784375 131.784375-131.784375 72.782812 0 131.784375 59.001563 131.784375 131.784375S4176.782812 347.784375 4104 347.784375c-72.78375 0-131.784375-59.001563-131.784375-131.784375z" fill="#e2dcff" fill-opacity=".0625"/><path d="M3963.43 216c0-77.635 62.934-140.57 140.57-140.57 77.635 0 140.57 62.935 140.57 140.57 0 77.635-62.935 140.57-140.57 140.57-77.636 0-140.57-62.935-140.57-140.57z" fill="none" stroke="#ffffff" stroke-opacity=".5" stroke-width="5"/><path d="M3963.43 216c0-77.635 62.934-140.57 140.57-140.57 77.635 0 140.57 62.935 140.57 140.57 0 77.635-62.935 140.57-140.57 140.57-77.636 0-140.57-62.935-140.57-140.57z" fill="none"/><path d="M4091.451097 120.456824c-17.363862 2.509019-33.652767 9.913535-46.959127 21.346356-13.30636 11.43282-23.0797 26.420925-28.174244 43.208338-5.095572 16.786683-5.301405 34.678475-.594243 51.577379 4.70819 16.899634 14.133566 32.108613 27.173165 43.844255l-2.29313 6.27294-5.629188 15.305711c-.605861 1.648372-.768007 3.427936-.47074 5.158741.298294 1.731537 1.045738 3.353636 2.168924 4.705039 1.122306 1.351551 2.580501 2.383968 4.227709 2.993645 1.647357.610555 3.426636.776367 5.158036.482618l73.238644-12.387389c50.62913-8.563276 85.315032-57.041206 76.1901-107.578957-4.257853-23.532076-17.482085-44.493786-36.887169-58.470724-19.405963-13.976788-43.479309-19.876989-67.148737-16.457952z" fill="#ffffff"/><path d="M4061.094682 198.457725c-1.677906.283797-3.283176.895424-4.724988 1.799619-1.441662.905074-2.691318 2.08432-3.676985 3.471288-.984639 1.3877-1.68732 2.95566-2.067058 4.614632-.379737 1.658972-.428543 3.375946-.143867 5.053703l10.204476 60.33249c.572948 3.38747 2.468034 6.4093 5.269582 8.399483 2.80067 1.990332 6.276766 2.786375 9.665115 2.213279 3.38732-.573827 6.407244-2.469495 8.396696-5.270015 1.988573-2.800372 2.784617-6.276468 2.211818-9.663058l-10.204477-60.33249c-.282768-1.677174-.893516-3.282594-1.796831-4.724554-.904047-1.440932-2.082413-2.690736-3.468502-3.676552-1.387118-.986547-2.954198-1.689377-4.61244-2.070142-1.658241-.380765-3.374485-.4306-5.05254-.147683z" fill="#7152ff" fill-opacity=".175"/></g><g><path d="M4320 0h432v432h-432z" fill="#7152ff"/><path d="M4399.334722 216c0-75.478472 61.185834-136.665278 136.665278-136.665278 75.478472 0 136.665278 61.186806 136.665278 136.665278 0 75.478472-61.186806 136.665278-136.665278 136.665278-75.479444 0-136.665278-61.186806-136.665278-136.665278z" fill="#e2dcff" fill-opacity=".027778"/><path d="M4395.43 216c0-77.635 62.934-140.57 140.57-140.57 77.635 0 140.57 62.935 140.57 140.57 0 77.635-62.935 140.57-140.57 140.57-77.636 0-140.57-62.935-140.57-140.57z" fill="none" stroke="#ffffff" stroke-opacity=".279223" stroke-width="3.628245"/><path d="M4395.43 216c0-77.635 62.934-140.57 140.57-140.57 77.635 0 140.57 62.935 140.57 140.57 0 77.635-62.935 140.57-140.57 140.57-77.636 0-140.57-62.935-140.57-140.57z" fill="none"/><path d="M4524.737894 112.597609c-18.797633 2.29323-36.552063 9.89496-51.184075 21.914897-14.632011 12.019938-25.536286 27.960768-31.43449 45.954915-5.899296 17.993334-6.548326 37.29589-1.87193 55.644225 4.677486 18.349147 14.485742 34.986422 28.277071 47.961771l-2.62425 6.714568-6.439796 16.382449c-.693131 1.764342-.910568 3.680843-.631079 5.55569.280582 1.875661 1.048463 3.643943 2.228274 5.129074 1.17886 1.485271 2.727799 2.63417 4.490794 3.33139 1.763134.698173 3.679241.91956 5.554647.64388l79.329173-11.620012c54.839451-8.032797 93.426567-59.518883 84.785494-114.273127-4.033264-25.49563-17.803694-48.431461-38.410694-63.977332-20.607952-15.54573-46.445303-22.487186-72.06914-19.362388z" fill="#ffffff"/><path d="M4489.317941 190.58129c-1.81744.266215-3.56432.887934-5.141789 1.82927-1.577329.942289-2.954 2.185024-4.050751 3.658217-1.09566 1.474006-1.891353 3.149263-2.34072 4.93044-.449368 1.781176-.543005 3.63284-.275836 5.450141l9.572327 65.349743c.537455 3.669172 2.510385 6.97532 5.486117 9.189822 2.97478 2.214642 6.706926 3.156613 10.37705 2.61902 3.669033-.538408 6.973137-2.512011 9.186825-5.486651 2.212737-2.9745 3.154709-6.706647 2.617394-10.374866l-9.572328-65.349743c-.265124-1.816627-.88589-3.563647-1.826274-5.141255-.941197-1.576516-2.18298-2.953327-3.65522-4.050218-1.473332-1.097704-3.147637-1.893537-4.928-2.343996-1.780364-.45046-3.631215-.545188-5.448795-.279925z" fill="#7152ff" fill-opacity=".222222"/><path d="M4538.38752 222.362367c-3.668894.53936-6.97395 2.513103-9.188591 5.487883-2.214781 2.973827-3.156753 6.705973-2.621204 10.375424l5.528722 37.744272c.544517 3.664246 2.519328 6.963308 5.49341 9.173187 2.97299 2.209065 6.701047 3.14969 10.366548 2.613746 3.669985-.538546 6.975854-2.513382 9.190356-5.489114 2.214502-2.975732 3.156334-6.70883 2.61874-10.378955l-5.528861-37.745225c-.54533-3.663153-2.521767-6.960031-5.494617-9.168144-2.97285-2.208113-6.699815-3.147925-10.364504-2.613074z" fill="#7152ff" fill-opacity=".083951"/><path d="M4598.917563 235.855437c-1.119278-7.64125-8.221916-12.92812-15.863167-11.808841-7.64125 1.119278-12.929212 8.221103-11.809933 15.862353l9.573165 65.355458c1.119278 7.641251 8.221916 12.92812 15.863166 11.808842 7.64125-1.119279 12.929212-8.221103 11.809934-15.862354l-9.573165-65.355458z" fill="#7152ff" fill-opacity=".01008"/></g><g><path d="M4752 0h432v432h-432z" fill="#7152ff"/><path d="M4828.40618 216c0-77.095868 62.496959-139.59382 139.59382-139.59382 77.095868 0 139.59382 62.497952 139.59382 139.59382S5045.095867 355.59382 4968 355.59382c-77.096861 0-139.59382-62.497952-139.59382-139.59382z" fill="#e2dcff" fill-opacity=".006944"/><path d="M4827.43 216c0-77.635 62.934-140.57 140.57-140.57 77.635 0 140.57 62.935 140.57 140.57 0 77.635-62.935 140.57-140.57 140.57-77.636 0-140.57-62.935-140.57-140.57z" fill="none" stroke="#ffffff" stroke-opacity=".157453" stroke-width="2.237673"/><path d="M4827.43 216c0-77.635 62.934-140.57 140.57-140.57 77.635 0 140.57 62.935 140.57 140.57 0 77.635-62.935 140.57-140.57 140.57-77.636 0-140.57-62.935-140.57-140.57z" fill="none"/><path d="M4958.773843 106.492791c-19.913782 1.93694-38.862735 9.507792-54.627753 21.82588-15.765017 12.318087-27.693908 28.873757-34.38825 47.727424-6.695475 18.852779-7.879268 39.223924-3.413566 58.724662 4.466834 19.501625 14.397118 37.327566 28.628964 51.388497l-2.945133 7.024372-7.224785 17.137366c-.777648 1.845655-1.056783 3.864304-.809975 5.851785.24794 1.988368 1.013352 3.875898 2.221165 5.47499 1.206804 1.599216 2.81318 2.8527 4.657306 3.634632 1.84425.782942 3.86238 1.066239 5.850353.82347l84.089642-10.225607c58.130316-7.068857 100.216149-60.453824 92.502613-118.509843-3.60191-27.03331-17.554566-51.61424-38.918958-68.566164-21.365403-16.951802-48.47635-24.950518-75.621623-22.311464z" fill="#ffffff"/><path d="M4918.706107 182.65812c-1.926503.23427-3.787656.845854-5.478121 1.7994-1.690343.954555-3.1765 2.23163-4.372949 3.759346-1.195315 1.528603-2.078994 3.277516-2.599607 5.147245-.520613 1.869728-.667312 3.823091-.432033 5.749471l8.423644 69.27132c.47296 3.889355 2.47148 7.43233 5.557367 9.848164 3.084877 2.415955 7.002558 3.507233 10.892924 3.03415 3.889232-.47397 7.430065-2.473254 9.845011-5.558008 2.413937-3.084632 3.505214-7.002313 3.032377-10.890658l-8.423644-69.27132c-.233137-1.925616-.84371-3.786892-1.796247-5.47748-.953422-1.689456-2.229488-3.175736-3.756194-4.372307-1.52784-1.197458-3.275743-2.08126-5.144585-2.603005-1.868841-.521745-3.821317-.669577-5.747943-.436317z" fill="#7152ff" fill-opacity=".263889"/><path d="M4969.479207 215.558914c-3.88911.47498-7.430953 2.474386-9.846909 5.559264-2.416078 3.083867-3.507356 7.001548-3.036415 10.89115l4.865272 40.00927c.480547 3.884335 2.481236 7.419873 5.5655 9.83078 3.08313 2.410021 6.996527 3.49977 10.881967 3.028311 3.890242-.474092 7.432972-2.474632 9.848805-5.560518 2.415833-3.085887 3.506987-7.004578 3.033905-10.894943l-4.865396-40.01028c-.481433-3.883203-2.483897-7.416477-5.566905-9.825487-3.083008-2.409011-6.995272-3.497873-10.879824-3.027547z" fill="#7152ff" fill-opacity=".158025"/><path d="M5032.265949 224.806967c-.984965-8.099795-8.350496-13.86728-16.45029-12.882315-8.099796.984965-13.868412 8.349609-12.883448 16.449404l8.424381 69.277377c.984965 8.099795 8.350496 13.86728 16.45029 12.882315 8.099796-.984965 13.868412-8.349609 12.883448-16.449404l-8.424381-69.277377z" fill="#7152ff" fill-opacity=".035978"/></g><g><path d="M5184 0h432v432h-432z" fill="#7152ff"/><path d="M5259.43 216c0-77.635 62.934-140.57 140.57-140.57 77.635 0 140.57 62.935 140.57 140.57 0 77.635-62.935 140.57-140.57 140.57-77.636 0-140.57-62.935-140.57-140.57z" fill="none" stroke="#ffffff" stroke-opacity=".080377" stroke-width="2"/><path d="M5259.43 216c0-77.635 62.934-140.57 140.57-140.57 77.635 0 140.57 62.935 140.57 140.57 0 77.635-62.935 140.57-140.57 140.57-77.636 0-140.57-62.935-140.57-140.57z" fill="none"/><path d="M5393.449067 101.781004c-20.777835 1.460995-40.708537 8.811969-57.458024 21.191992-16.749486 12.380023-29.624839 29.276878-37.116716 48.71103-7.49303 19.433199-9.29246 40.600069-5.188325 61.018502 4.105288 20.419387 13.94296 39.24712 28.362065 54.276508l-3.26062 7.228083-7.996087 17.633256c-.860698 1.899073-1.207421 3.992066-1.005938 6.067273.202637 2.076162.946604 4.0618 2.159005 5.75959 1.211347 1.697889 2.848152 3.047113 4.745516 3.912227 1.897464.866168 3.9898 1.217208 6.065407 1.019942l87.79528-8.299098c60.691985-5.737081 105.977025-60.121372 99.56697-120.753997-2.995369-28.233369-16.83087-54.202935-38.592139-72.439616-21.762324-18.236581-49.753329-27.315916-78.076394-25.325692z" fill="#ffffff"/><path d="M5349.157361 174.932524c-2.0114.190133-3.9653.77475-5.751098 1.719994-1.785697.9463-3.367888 2.233926-4.655565 3.79046-1.286524 1.55749-2.25487 3.352932-2.848747 5.284219-.593876 1.931287-.800959 3.960026-.609771 5.971326l6.836626 72.323948c.383854 4.06075 2.364977 7.803527 5.5091 10.4036 3.14307 2.600173 7.189723 3.844979 11.251528 3.461025 4.06065-.384908 7.80122-2.366886 10.400338-5.509856 2.598065-3.14287 3.84287-7.189523 3.459116-11.24922l-6.836626-72.323947c-.18898-2.010445-.772541-3.964447-1.716732-5.750343-.945145-1.784743-2.231717-3.367033-3.787197-4.65481-1.556635-1.288732-3.351023-2.257178-5.281355-2.852208-1.930333-.59503-3.958117-.803267-5.969617-.614188z" fill="#7152ff" fill-opacity=".3"/><path d="M5400.906713 208.759259c-4.060551.385962-7.802174 2.36804-10.402347 5.51111-2.600273 3.142015-3.845079 7.188668-3.463333 11.249618l3.948653 41.772387c.391889 4.055737 2.375478 7.790835 5.518049 10.385737 3.141417 2.593948 7.183654 3.837044 11.240287 3.454643 4.061705-.385008 7.804283-2.36824 10.404356-5.512363 2.600073-3.144124 3.84478-7.191831 3.460826-11.253636l-3.948753-41.773442c-.392843-4.054583-2.378341-7.787374-5.519659-10.380267-3.141317-2.592893-7.1824-3.835034-11.23808-3.453787z" fill="#7152ff" fill-opacity=".222222"/><path d="M5465.403685 213.929924c-.799397-8.456734-8.303894-14.664023-16.760628-13.864626-8.456735.799397-14.665177 8.30294-13.86578 16.759674l6.837224 72.330273c.799397 8.456734 8.303894 14.664022 16.760628 13.864625 8.456734-.799396 14.665176-8.302939 13.86578-16.759673l-6.837224-72.330273z" fill="#7152ff" fill-opacity=".073463"/></g><g><path d="M5616 0h432v432h-432z" fill="#7152ff"/><path d="M5691.43 216c0-77.635 62.934-140.57 140.57-140.57 77.635 0 140.57 62.935 140.57 140.57 0 77.635-62.935 140.57-140.57 140.57-77.636 0-140.57-62.935-140.57-140.57z" fill="none" stroke="#ffffff" stroke-opacity=".032966" stroke-width="2"/><path d="M5691.43 216c0-77.635 62.934-140.57 140.57-140.57 77.635 0 140.57 62.935 140.57 140.57 0 77.635-62.935 140.57-140.57 140.57-77.636 0-140.57-62.935-140.57-140.57z" fill="none"/><path d="M5828.677302 98.215748c-21.434466.881683-42.173247 7.852453-59.787627 20.095904-17.614379 12.24345-31.375654 29.253012-39.670668 49.035976-8.296173 19.781947-10.782738 41.519256-7.169188 62.662895 3.61471 21.144655 13.178566 40.822423 27.572769 56.72705l-3.573315 7.34361-8.76015 17.913844c-.942971 1.929306-1.362618 4.073648-1.217356 6.216101.146422 2.14347.852853 4.209963 2.050158 5.994149 1.196216 1.784257 2.840884 3.22231 4.768299 4.169777 1.927485.948555 4.071022 1.372626 6.21376 1.231717l90.633504-5.913957c62.654021-4.088258 110.903891-58.72015 106.121031-121.333219-2.237981-29.155872-15.70365-56.305886-37.560509-75.732344-21.857947-19.426387-50.402604-29.612006-79.620708-28.411503z" fill="#ffffff"/><path d="M5780.586774 167.583516c-2.076424.13549-4.10547.67882-5.972257 1.598452-1.866715.92072-3.534145 2.198931-4.90643 3.762805-1.371127 1.564891-2.421818 3.384285-3.091064 5.354748-.669246 1.970462-.943208 4.052838-.80663 6.129191l4.871795 74.662019c.273536 4.192025 2.200979 8.104545 5.359956 10.875493 3.157889 2.77102 7.286614 4.173761 11.479728 3.900155 4.191954-.274624 8.102226-2.203013 10.872158-5.36083 2.768843-3.157747 4.171584-7.286473 3.89812-11.47741l-4.871796-74.662019c-.13433-2.075406-.676573-4.104524-1.595116-5.971381-.91956-1.865698-2.196684-3.5332-3.75947-4.905556-1.563944-1.373373-3.38225-2.424136-5.351696-3.094541-1.969445-.670406-4.050803-.945527-6.127298-.811126z" fill="#7152ff" fill-opacity=".330556"/><path d="M5832.739137 202.270778c-4.191883.275712-8.103243 2.204172-10.874263 5.36206-2.77109 3.156801-4.173832 7.285527-3.902473 11.477694l2.81382 43.122796c.281957 4.187104 2.212168 8.091792 5.369702 10.85737 3.156374 2.764561 7.280605 4.16541 11.468348 3.893247 4.193043-.274694 8.10542-2.204314 10.876369-5.363291 2.770948-3.158977 4.173619-7.28879 3.900012-11.481904l-2.81389-43.123884c-.282975-4.185945-2.21522-8.088315-5.371524-10.851788-3.156303-2.763472-7.279375-4.163304-11.4661-3.8923z" fill="#7152ff" fill-opacity=".276543"/><path d="M5898.609798 203.79683c-.569652-8.730122-8.109562-15.3453-16.839683-14.775649-8.730122.569652-15.34646 8.108545-14.776808 16.838667l4.872222 74.668548c.569653 8.730121 8.109562 15.3453 16.839684 14.775648 8.730121-.569652 15.34646-8.108545 14.776807-16.838666l-4.872222-74.668548z" fill="#7152ff" fill-opacity=".120017"/></g><g><path d="M6048 0h432v432h-432z" fill="#7152ff"/><path d="M6123.43 216c0-77.635 62.934-140.57 140.57-140.57 77.635 0 140.57 62.935 140.57 140.57 0 77.635-62.935 140.57-140.57 140.57-77.636 0-140.57-62.935-140.57-140.57z" fill="none" stroke="#ffffff" stroke-opacity=".00769" stroke-width="2"/><path d="M6123.43 216c0-77.635 62.934-140.57 140.57-140.57 77.635 0 140.57 62.935 140.57 140.57 0 77.635-62.935 140.57-140.57 140.57-77.636 0-140.57-62.935-140.57-140.57z" fill="none"/><path d="M6264.3868 95.627972c-21.91428.212461-43.313608 6.6646-61.69191 18.600748-18.378302 11.936147-32.97527 28.862444-42.079821 48.79597-9.105703 19.932448-12.34216 42.04787-9.330953 63.752857 3.01236 21.706063 12.146256 42.105236 26.333324 58.806783l-3.884232 7.383644-9.519508 18.010105c-1.024744 1.93969-1.52204 4.115737-1.442464 6.307983.080725 2.193322.735728 4.326013 1.901002 6.186203 1.164162 1.860227 2.79733 3.381347 4.734944 4.41062 1.93765 1.030387 4.112734 1.532174 6.30513 1.457053l92.732493-3.130264c64.105029-2.16392 115.124338-56.398392 112.249871-120.483895-1.349564-29.84186-14.227694-57.995888-35.921611-78.532917-21.695031-20.536993-50.51415-31.853123-80.386264-31.56489z" fill="#ffffff"/><path d="M6212.916713 160.747783c-2.124512.071715-4.213736.561382-6.149355 1.440484-1.935583.880216-3.679154 2.131848-5.130528 3.68463-1.450224 1.55386-2.58143 3.377865-3.328003 5.36836-.746572 1.990497-1.093125 4.107947-1.020297 6.232422l2.578647 76.391121c.144782 4.289109 1.987282 8.345895 5.123888 11.27658 3.135493 2.930723 7.30618 4.495497 11.596402 4.350677 4.289072-.145896 8.343593-1.989433 11.273203-5.124889 2.928496-3.135418 4.49327-7.306105 4.348525-11.5941l-2.578647-76.391121c-.070563-2.123436-.559117-4.212697-1.437106-6.148355-.879064-1.934506-2.129583-3.678115-3.681253-5.129527-1.55282-1.452488-3.375712-2.583732-5.365132-3.331456-1.98942-.747723-4.105795-1.095427-6.230344-1.024826z" fill="#7152ff" fill-opacity=".355556"/><path d="M6265.003203 196.315858c-4.289034.14701-8.344669 1.990585-11.275392 5.126078-2.93076 3.13438-4.495534 7.305067-4.352979 11.59425l1.489358 44.12148c.15354 4.284354 1.999117 8.333233 5.134422 11.258388 3.134154 2.92408 7.300312 4.486777 11.585004 4.343259 4.290185-.145934 8.346896-1.99066 11.277581-5.127267 2.930686-3.136607 4.495422-7.308407 4.350602-11.598629l-1.489395-44.122592c-.154616-4.283204-2.002344-8.32978-5.136461-11.252747-3.134117-2.922966-7.299123-4.484587-11.58274-4.34222z" fill="#7152ff" fill-opacity=".320988"/><path d="M6332.037886 194.815525c-.301517-8.932303-7.787988-15.928775-16.72029-15.627257-8.932304.301517-15.929927 7.786912-15.62841 16.719215l2.578873 76.397802c.301518 8.932303 7.787988 15.928775 16.720291 15.627257 8.932303-.301517 15.929926-7.786912 15.628408-16.719215l-2.578872-76.397802z" fill="#7152ff" fill-opacity=".174028"/></g><g><path d="M6480 0h432v432h-432z" fill="#7152ff"/><path d="M6555.43 216c0-77.635 62.934-140.57 140.57-140.57 77.635 0 140.57 62.935 140.57 140.57 0 77.635-62.935 140.57-140.57 140.57-77.636 0-140.57-62.935-140.57-140.57z" fill="none"/><path d="M6555.43 216c0-77.635 62.934-140.57 140.57-140.57 77.635 0 140.57 62.935 140.57 140.57 0 77.635-62.935 140.57-140.57 140.57-77.636 0-140.57-62.935-140.57-140.57z" fill="none"/><path d="M6700.514403 93.900783c-22.23841-.534898-44.168094 5.277735-63.220864 16.75712-19.05277 11.479384-34.440416 28.150558-44.35921 48.060522-9.919925 19.908833-13.960497 42.233189-11.649014 64.35512 2.312614 22.123061 10.880027 43.129962 24.700297 60.558814l-4.193238 7.35739-10.273885 17.944526c-1.105983 1.932643-1.684985 4.123124-1.67933 6.349792.006785 2.2278.598226 4.413756 1.716649 6.340746 1.117292 1.92699 2.721985 3.526029 4.652368 4.636536 1.930382 1.111638 4.119731 1.695163 6.3464 1.694032h94.180485c65.106011 0 118.7202-53.271537 117.99871-118.382072-.347176-30.319553-12.447404-59.32165-33.751721-80.898506-21.305448-21.576855-50.153749-34.043483-80.467647-34.77402z" fill="#ffffff"/><path d="M6646.070162 154.532642c-2.157686 0-4.293885.425204-6.287595 1.250734-1.99371.82666-3.805352 2.036683-5.330886 3.562216-1.524402 1.526665-2.734425 3.338306-3.559955 5.332017-.82553 1.99371-1.249603 4.12991-1.248472 6.287595v77.583948c0 4.356082 1.73022 8.534619 4.81182 11.615088 3.08047 3.08047 7.257875 4.810689 11.615088 4.810689 4.356082-.001131 8.532357-1.732482 11.611695-4.81295 3.078208-3.08047 4.808427-7.257876 4.808427-11.612827v-77.583948c.001131-2.156555-.422942-4.292754-1.24734-6.286464-.82553-1.99258-2.034422-3.804222-3.558825-5.329755-1.525533-1.526664-3.336044-2.736687-5.328624-3.563348-1.99258-.82666-4.127648-1.251864-6.285333-1.252995z" fill="#7152ff" fill-opacity=".375"/><path d="M6697.69177 191.057772c-4.356082.002261-8.533488 1.733612-11.613957 4.814081-3.08047 3.079339-4.810689 7.256744-4.81295 11.612826v44.810424c.009046 4.351559 1.742659 8.52218 4.823128 11.596995 3.079338 3.073684 7.25222 4.801641 11.60378 4.802772 4.357212-.00113 8.535749-1.733612 11.616218-4.815212 3.08047-3.0816 4.810689-7.260137 4.810689-11.61735v-44.811554c-.010178-4.350428-1.746052-8.518787-4.82539-11.59134-3.079339-3.072554-7.25109-4.79938-11.601518-4.801642z" fill="#7152ff" fill-opacity=".355556"/><path d="M6765.747071 187.278702c0-9.071778-7.355129-16.425777-16.426907-16.425777-9.071779 0-16.426908 7.353999-16.426908 16.425777v77.590733c0 9.071779 7.35513 16.425777 16.426908 16.425777 9.071778 0 16.426907-7.353998 16.426907-16.425777v-77.590733z" fill="#7152ff" fill-opacity=".23444"/></g><g><path d="M6912 0h432v432h-432z" fill="#7152ff"/><path d="M6987.43 216c0-77.635 62.934-140.57 140.57-140.57 77.635 0 140.57 62.935 140.57 140.57 0 77.635-62.935 140.57-140.57 140.57-77.636 0-140.57-62.935-140.57-140.57z" fill="none"/><path d="M6987.43 216c0-77.635 62.934-140.57 140.57-140.57 77.635 0 140.57 62.935 140.57 140.57 0 77.635-62.935 140.57-140.57 140.57-77.636 0-140.57-62.935-140.57-140.57z" fill="none"/><path d="M7132.558493 92.708293c-22.455603-.540122-44.599465 5.32928-63.838315 16.92078-19.23885 11.591498-34.77678 28.425492-44.792447 48.529908-10.016809 20.103274-14.096843 42.645662-11.762785 64.983648 2.3352 22.339128 10.986288 43.551194 24.941535 61.150265l-4.234192 7.429248-10.374225 18.119781c-1.116786 1.95152-1.701442 4.163394-1.695733 6.411809.006852 2.249557.60407 4.456863 1.733415 6.402673 1.128205 1.94581 2.74857 3.560466 4.697806 4.681819 1.949236 1.122494 4.159968 1.711718 6.408383 1.710576h95.100305c65.741874 0 119.879688-53.791816 119.151151-119.538258-.350565-30.61567-12.56897-59.90102-34.081358-81.688606-21.51353-21.787587-50.643579-34.37597-81.25354-35.113643z" fill="#ffffff"/><path d="M7077.582519 150.799193c-2.178759 0-4.335821.429357-6.349003 1.26295-2.013183.834733-3.842518 2.056574-5.38295 3.597007-1.539291 1.541574-2.761132 3.37091-3.594724 5.384091-.833592 2.013183-1.261807 4.170245-1.260665 6.349004v78.341677c0 4.398626 1.747118 8.617972 4.858814 11.728527 3.110555 3.110555 7.32876 4.857673 11.728528 4.857673 4.398626-.001142 8.615689-1.749402 11.725102-4.859957 3.10827-3.110555 4.855389-7.32876 4.855389-11.726243v-78.341677c.001141-2.177617-.427074-4.33468-1.259524-6.347862-.833592-2.01204-2.05429-3.841375-3.593581-5.381808-1.540433-1.541574-3.368626-2.763415-5.380667-3.598149-2.01204-.834734-4.16796-1.264091-6.34672-1.265233z" fill="#7152ff" fill-opacity=".388889"/><path d="M7129.708293 186.535392c-4.398626.002283-8.61683 1.750543-11.727386 4.861098-3.110555 3.109413-4.857672 7.327618-4.859956 11.726244v45.248068c.009135 4.394058 1.759679 8.605411 4.870233 11.710257 3.109413 3.103703 7.32305 4.848537 11.717109 4.849679 4.399768-.001142 8.619115-1.750544 11.72967-4.86224 3.110554-3.111697 4.857672-7.331044 4.857672-11.730812v-45.24921c-.010277-4.392916-1.763104-8.601985-4.872517-11.704547-3.109413-3.102561-7.321909-4.846254-11.714825-4.848537z" fill="#7152ff" fill-opacity=".380247"/><path d="M7198.42826 178.829613c0-9.160378-7.426963-16.5862-16.587341-16.5862-9.160379 0-16.587343 7.425822-16.587343 16.5862v78.348528c0 9.160379 7.426964 16.5862 16.587343 16.5862 9.160378 0 16.587342-7.425821 16.587342-16.5862v-78.348528z" fill="#7152ff" fill-opacity=".300592"/></g><g><path d="M7344 0h432v432h-432z" fill="#7152ff"/><path d="M7419.43 216c0-77.635 62.934-140.57 140.57-140.57 77.635 0 140.57 62.935 140.57 140.57 0 77.635-62.935 140.57-140.57 140.57-77.636 0-140.57-62.935-140.57-140.57z" fill="none"/><path d="M7419.43 216c0-77.635 62.934-140.57 140.57-140.57 77.635 0 140.57 62.935 140.57 140.57 0 77.635-62.935 140.57-140.57 140.57-77.636 0-140.57-62.935-140.57-140.57z" fill="none"/><path d="M7564.58309 92.043018c-22.576771-.543037-44.84012 5.358037-64.182783 17.012082-19.342662 11.654046-34.964433 28.578876-45.034144 48.791774-10.07086 20.21175-14.172909 42.875775-11.826256 65.334296 2.3478 22.459669 11.04557 43.786194 25.076117 61.48023l-4.257039 7.469334-10.430204 18.217555c-1.122811 1.96205-1.710623 4.185859-1.704882 6.446406.006888 2.261696.607328 4.480913 1.742768 6.437222 1.134292 1.956309 2.763402 3.579678 4.723155 4.707082 1.959753 1.128551 4.182414 1.720955 6.442962 1.719807h95.61346c66.096614 0 120.526553-54.082075 119.794086-120.18328-.352458-30.780872-12.636793-60.224243-34.26526-82.129394-21.629615-21.905152-50.916849-34.561462-81.69198-35.303114z" fill="#ffffff"/><path d="M7509.310469 147.870076c-2.190515 0-4.359217.431674-6.383262 1.269764-2.024046.839238-3.863252 2.067672-5.411996 3.616416-1.547597 1.549893-2.77603 3.3891-3.61412 5.413145-.838091 2.024045-1.268617 4.192747-1.267469 6.383262v78.764404c0 4.42236 1.756545 8.664475 4.885033 11.791814 3.12734 3.12734 7.368305 4.883884 11.791814 4.883884 4.42236-.001148 8.662179-1.75884 11.78837-4.88618 3.125043-3.12734 4.881588-7.368305 4.881588-11.789518v-78.764404c.001148-2.189367-.429378-4.35807-1.26632-6.382114-.83809-2.022897-2.065375-3.862104-3.612972-5.410848-1.548745-1.549893-3.386803-2.778327-5.4097-3.617565-2.022897-.839238-4.190451-1.270912-6.380966-1.27206z" fill="#7152ff" fill-opacity=".397222"/><path d="M7561.71751 182.856692c-4.42236.002296-8.663326 1.75999-11.790665 4.887328-3.12734 3.126192-4.883885 7.367158-4.88618 11.789518v45.492224c.009184 4.417769 1.769173 8.651846 4.896512 11.773445 3.126192 3.120451 7.362565 4.8747 11.780334 4.875848 4.423509-.001148 8.665623-1.75999 11.792962-4.888477 3.12734-3.128487 4.883884-7.3706 4.883884-11.79411v-45.493372c-.010332-4.41662-1.772618-8.648402-4.898809-11.767704-3.126191-3.119303-7.361417-4.872404-11.778037-4.8747z" fill="#7152ff" fill-opacity=".395062"/><path d="M7630.808288 171.909597c0-9.209808-7.46704-16.675699-16.676847-16.675699-9.209807 0-16.676846 7.465891-16.676846 16.675699v78.771292c0 9.209808 7.467039 16.675699 16.676846 16.675699 9.209808 0 16.676847-7.465891 16.676847-16.675699v-78.771292z" fill="#7152ff" fill-opacity=".372217"/></g><g><path d="M7776 0h432v432h-432z" fill="#7152ff"/><path d="M7851.43 216c0-77.635 62.934-140.57 140.57-140.57 77.635 0 140.57 62.935 140.57 140.57 0 77.635-62.935 140.57-140.57 140.57-77.636 0-140.57-62.935-140.57-140.57z" fill="none"/><path d="M7851.43 216c0-77.635 62.934-140.57 140.57-140.57 77.635 0 140.57 62.935 140.57 140.57 0 77.635-62.935 140.57-140.57 140.57-77.636 0-140.57-62.935-140.57-140.57z" fill="none"/><path d="M7996.5908 91.8345c-22.61475-.54395-44.91555 5.36705-64.29075 17.0407-19.3752 11.67365-35.02325 28.62695-45.1099 48.87385-10.0878 20.24575-14.19675 42.9479-11.84615 65.4442 2.35175 22.49745 11.06415 43.85985 25.1183 61.58365l-4.2642 7.4819-10.44775 18.2482c-1.1247 1.96535-1.7135 4.1929-1.70775 6.45725.0069 2.2655.60835 4.48845 1.7457 6.44805 1.1362 1.9596 2.76805 3.5857 4.7311 4.715 1.96305 1.13045 4.18945 1.72385 6.4538 1.7227h95.7743c66.2078 0 120.7293-54.17305 119.9956-120.38545-.35305-30.83265-12.65805-60.32555-34.3229-82.26755-21.666-21.942-51.0025-34.6196-81.8294-35.3625z" fill="#ffffff"/><path d="M7941.2252 145.747533c-2.1942 0-4.36655.4324-6.394 1.2719-2.02745.84065-3.86975 2.07115-5.4211 3.6225-1.5502 1.5525-2.7807 3.3948-3.6202 5.42225-.8395 2.02745-1.27075 4.1998-1.2696 6.394v78.8969c0 4.4298 1.7595 8.67905 4.89325 11.81165 3.1326 3.1326 7.3807 4.8921 11.81165 4.8921 4.4298-.00115 8.67675-1.7618 11.8082-4.8944 3.1303-3.1326 4.8898-7.3807 4.8898-11.80935v-78.8969c.00115-2.19305-.4301-4.3654-1.26845-6.39285-.8395-2.0263-2.06885-3.8686-3.61905-5.41995-1.55135-1.5525-3.3925-2.783-5.4188-3.62365-2.0263-.84065-4.1975-1.27305-6.3917-1.2742zM7993.7204 180.058781c-4.4298.0023-8.6779 1.76295-11.8105 4.89555-3.1326 3.13145-4.8921 7.37955-4.8944 11.80935v45.56875c.0092 4.4252 1.77215 8.6664 4.90475 11.79325 3.13145 3.1257 7.37495 4.8829 11.80015 4.88405 4.43095-.00115 8.6802-1.76295 11.8128-4.8967s4.8921-7.383 4.8921-11.81395v-45.5699c-.01035-4.42405-1.7756-8.66295-4.90705-11.7875-3.13145-3.12455-7.3738-4.8806-11.79785-4.8829z" fill="#7152ff" fill-opacity=".4"/><path d="M8062.9274 166.6004c0-9.2253-7.4796-16.70375-16.7049-16.70375-9.2253 0-16.7049 7.47845-16.7049 16.70375v78.9038c0 9.2253 7.4796 16.70375 16.7049 16.70375 9.2253 0 16.7049-7.47845 16.7049-16.70375v-78.9038z" fill="#7152ff" fill-opacity=".45"/></g><g><path d="M8208 0h432v432h-432z" fill="#7152ff"/><path d="M8283.43 216c0-77.635 62.934-140.57 140.57-140.57 77.635 0 140.57 62.935 140.57 140.57 0 77.635-62.935 140.57-140.57 140.57-77.636 0-140.57-62.935-140.57-140.57z" fill="none"/><path d="M8283.43 216c0-77.635 62.934-140.57 140.57-140.57 77.635 0 140.57 62.935 140.57 140.57 0 77.635-62.935 140.57-140.57 140.57-77.636 0-140.57-62.935-140.57-140.57z" fill="none"/><path d="M8428.48591 94.671438c-22.098048-.531522-43.889319 5.244424-62.821833 16.651354-18.932515 11.40693-34.223038 27.97288-44.079227 47.757178-9.857314 19.783174-13.872383 41.966625-11.57549 63.948928 2.298018 21.983428 10.811357 42.857739 24.544397 60.176585l-4.166771 7.310953-10.20904 17.831264c-1.099003 1.920446-1.67435 4.0971-1.668731 6.309715.006742 2.213738.59445 4.385898 1.705814 6.300725 1.11024 1.914827 2.704806 3.503773 4.623004 4.607271 1.918198 1.104622 4.093729 1.684464 6.306343 1.68334h93.586045c64.695082 0 117.970872-52.935302 117.253936-117.634879-.344984-30.128184-12.368838-58.94723-33.53869-80.387898-21.170973-21.440668-49.837192-33.82861-79.959758-34.554536z" fill="#ffffff"/><path d="M8374.385305 145.951193c-2.144067 0-4.266783.42252-6.24791 1.24284-1.981127.821442-3.781334 2.023828-5.297239 3.539733-1.51478 1.517028-2.717166 3.317235-3.537485 5.298362-.82032 1.981126-1.241716 4.103843-1.240592 6.24791v77.09426c0 4.328588 1.719299 8.48075 4.781449 11.541777 3.061026 3.061026 7.212065 4.780325 11.541777 4.780325 4.328587-.001124 8.478503-1.721546 11.538405-4.782573 3.05878-3.061026 4.778078-7.212065 4.778078-11.539529v-77.09426c.001124-2.142944-.420273-4.26566-1.239468-6.246787-.82032-1.980003-2.021581-3.78021-3.536362-5.296114-1.515905-1.517029-3.314988-2.719414-5.294991-3.540857-1.980003-.821443-4.101596-1.243963-6.245662-1.245087zM8425.681092 178.966036c-4.328588.002247-8.479627 1.72267-11.540653 4.783696-3.061026 3.059902-4.780325 7.210942-4.782573 11.53953v44.527593c.00899 4.324093 1.73166 8.46839 4.792687 11.523797 3.059902 3.054284 7.206446 4.771336 11.53054 4.77246 4.32971-.001124 8.481874-1.72267 11.5429-4.78482s4.780325-7.214314 4.780325-11.544025V195.25555c-.010113-4.32297-1.735031-8.465019-4.794934-11.518179-3.059902-3.05316-7.205323-4.769088-11.528292-4.771335z" fill="#7152ff" fill-opacity=".4"/><path d="M8493.306848 164.075214c0-9.01452-7.308706-16.322102-16.323226-16.322102-9.01452 0-16.323226 7.307582-16.323226 16.322102v77.101003c0 9.01452 7.308706 16.322102 16.323226 16.322102 9.01452 0 16.323226-7.307582 16.323226-16.322102v-77.101003z" fill="#7152ff" fill-opacity=".45"/></g><g><path d="M8640 0h432v432h-432z" fill="#7152ff"/><path d="M8715.43 216c0-77.635 62.934-140.57 140.57-140.57 77.635 0 140.57 62.935 140.57 140.57 0 77.635-62.935 140.57-140.57 140.57-77.636 0-140.57-62.935-140.57-140.57z" fill="none"/><path d="M8715.43 216c0-77.635 62.934-140.57 140.57-140.57 77.635 0 140.57 62.935 140.57 140.57 0 77.635-62.935 140.57-140.57 140.57-77.636 0-140.57-62.935-140.57-140.57z" fill="none"/><path d="M8860.174493 103.094176c-20.56398-.494623-40.842482 4.88035-58.460684 15.495401-17.618203 10.615051-31.847244 26.030978-41.019208 44.441833-9.17301 18.409808-12.909349 39.053264-10.771908 59.509536 2.138487 20.457318 10.060822 39.882516 22.840502 55.999072l-3.87751 6.80342-9.500319 16.593402c-1.022709 1.787127-1.558115 3.812676-1.552886 5.871689.006274 2.060058.553183 4.081424 1.587395 5.863322 1.033166 1.781898 2.517035 3.260539 4.30207 4.28743 1.785036 1.027939 3.80954 1.567527 5.868552 1.566482h87.089218c60.20389 0 109.781228-49.260486 109.114062-109.46856-.321034-28.036659-11.510183-54.85506-31.210403-74.807298-19.701267-19.952238-46.37745-31.480197-74.40888-32.15573z" fill="#ffffff"/><path d="M8809.829601 150.031536c-1.995223 0-3.970579.39319-5.814174 1.15656-1.843595.764418-3.51883 1.883333-4.9295 3.294002-1.409623 1.411715-2.528538 3.08695-3.29191 4.930546-.763371 1.843595-1.155514 3.81895-1.154469 5.814174v71.742308c0 4.028093 1.599944 7.892009 4.449517 10.740536 2.848527 2.848527 6.711397 4.44847 10.740536 4.44847 4.028094-.001045 7.889918-1.602034 10.7374-4.450561 2.846435-2.848527 4.446379-6.711398 4.446379-10.738445v-71.742308c.001046-1.994178-.391098-3.969534-1.153424-5.813129-.763371-1.84255-1.88124-3.517784-3.290864-4.928453-1.41067-1.411715-3.084859-2.53063-4.927408-3.295048-1.84255-.764417-3.816859-1.157606-5.812083-1.158652zM8857.56439 180.468328c-4.028094.002091-7.890964 1.60308-10.739491 4.451607-2.848527 2.847482-4.448471 6.710352-4.450563 10.738445v41.436448c.008366 4.02391 1.611447 7.880507 4.459974 10.723805 2.847481 2.842253 6.706169 4.440105 10.73008 4.441151 4.029138-.001046 7.893054-1.60308 10.741581-4.452653 2.848528-2.849573 4.448471-6.71349 4.448471-10.742628v-41.437494c-.009411-4.022865-1.614584-7.87737-4.462065-10.718576-2.847481-2.841207-6.705123-4.438014-10.727988-4.440105z" fill="#7152ff" fill-opacity=".4"/><path d="M8920.495504 165.63975c0-8.388723-6.801328-15.189006-15.190052-15.189006s-15.190053 6.800283-15.190053 15.189007v71.748582c0 8.388724 6.801329 15.189007 15.190053 15.189007s15.190052-6.800283 15.190052-15.189007V165.63975z" fill="#7152ff" fill-opacity=".45"/></g><g><path d="M9072 0h432v432h-432z" fill="#7152ff"/><path d="M9147.43 216c0-77.635 62.934-140.57 140.57-140.57 77.635 0 140.57 62.935 140.57 140.57 0 77.635-62.935 140.57-140.57 140.57-77.636 0-140.57-62.935-140.57-140.57z" fill="none"/><path d="M9147.43 216c0-77.635 62.934-140.57 140.57-140.57 77.635 0 140.57 62.935 140.57 140.57 0 77.635-62.935 140.57-140.57 140.57-77.636 0-140.57-62.935-140.57-140.57z" fill="none"/><path d="M9292.03944 106.746924c-19.898692-.47862-39.52114 4.722461-56.569355 14.994092-17.048215 10.27163-30.816916 25.18882-39.692147 43.004042-8.876244 17.814212-12.491704 37.789807-10.423414 57.584274 2.069302 19.79548 9.735333 38.59223 22.101563 54.18738l-3.752065 6.583315-9.192963 16.05657c-.989622 1.729309-1.507706 3.689328-1.502647 5.681727.006071 1.99341.535287 3.949381 1.53604 5.673631.99974 1.72425 2.435603 3.155053 4.162889 4.148723 1.727285.994682 3.686292 1.516813 5.67869 1.515802h84.271693c58.256165 0 106.229568-47.666803 105.583986-105.927015-.310648-27.129612-11.137803-53.08038-30.200679-72.38712-19.063887-19.306739-44.877039-30.461744-72.001592-31.11542z" fill="#ffffff"/><path d="M9243.323314 167.091617c-1.930674 0-3.842122.380468-5.626073 1.119143-1.783951.739687-3.404989 1.822402-4.77002 3.187433-1.364019 1.366043-2.446734 2.98708-3.18541 4.771032-.738674 1.78395-1.11813 3.695399-1.117119 5.626073v69.421288c0 3.897776 1.548182 7.636686 4.305565 10.393057 2.756371 2.75637 6.49427 4.304553 10.393057 4.304553 3.897776-.001012 7.634662-1.550206 10.390021-4.306577 2.754347-2.75637 4.30253-6.49427 4.30253-10.391033v-69.421288c.001011-1.929663-.378445-3.84111-1.116108-5.625062-.738675-1.782939-1.82038-3.403976-3.184398-4.769007-1.365031-1.366043-2.985057-2.448758-4.767996-3.188445-1.782939-.739687-3.693375-1.120156-5.62405-1.121167zM9289.513778 181.273166c-3.897776.002023-7.635674 1.551217-10.392045 4.307588-2.756371 2.75536-4.304553 6.493258-4.306577 10.391033v40.09589c.008095 3.893727 1.559313 7.625554 4.315684 10.376866 2.75536 2.7503 6.48921 4.296458 10.382938 4.29747 3.898788-.001012 7.637698-1.551218 10.394069-4.3086 2.75637-2.757384 4.304553-6.496294 4.304553-10.395081V195.94143c-.009107-3.892717-1.562349-7.62252-4.317708-10.371807-2.755359-2.749288-6.488198-4.294435-10.380914-4.296458z" fill="#7152ff" fill-opacity=".4"/><path d="M9350.408935 166.610972c0-8.11733-6.581291-14.69761-14.698622-14.69761-8.11733 0-14.698621 6.58028-14.698621 14.69761v69.42736c0 8.11733 6.58129 14.69761 14.698621 14.69761 8.11733 0 14.698622-6.58028 14.698622-14.69761v-69.42736z" fill="#7152ff" fill-opacity=".45"/></g><g><path d="M9504 0h432v432h-432z" fill="#7152ff"/><path d="M9579.43 216c0-77.635 62.934-140.57 140.57-140.57 77.635 0 140.57 62.935 140.57 140.57 0 77.635-62.935 140.57-140.57 140.57-77.636 0-140.57-62.935-140.57-140.57z" fill="none"/><path d="M9579.43 216c0-77.635 62.934-140.57 140.57-140.57 77.635 0 140.57 62.935 140.57 140.57 0 77.635-62.935 140.57-140.57 140.57-77.636 0-140.57-62.935-140.57-140.57z" fill="none"/><path d="M9723.996214 107.916027c-19.685758-.4735-39.098229 4.671926-55.964013 14.833642-16.865785 10.161715-30.487149 24.919277-39.267407 42.543862-8.78126 17.623584-12.358032 37.385422-10.311874 56.968072 2.047159 19.58365 9.631156 38.17926 21.865056 53.607528l-3.711914 6.512868-9.09459 15.88475c-.979032 1.710804-1.491573 3.649849-1.486567 5.620927.006006 1.97208.529558 3.90712 1.519602 5.61292.989043 1.705798 2.40954 3.12129 4.118343 4.104327 1.708802.984038 3.646845 1.500582 5.617924 1.499581h83.369912c57.632773 0 105.092819-47.156726 104.454146-104.793503-.307325-26.839302-11.01862-52.512374-29.877506-71.612514-18.859887-19.100141-44.396816-30.135778-71.231112-30.78246z" fill="#ffffff"/><path d="M9675.801393 166.738213c-1.910014 0-3.801008.376397-5.565869 1.107167-1.764861.731772-3.368552 1.802901-4.718976 3.153325-1.349423 1.351425-2.420552 2.955116-3.151323 4.719977-.73077 1.764861-1.106166 3.655855-1.105165 5.56587v68.67842c0 3.856066 1.531615 7.554967 4.259491 10.281842 2.726876 2.726875 6.424775 4.25849 10.281842 4.25849 3.856066-.001 7.552965-1.533617 10.27884-4.260492 2.724872-2.726876 4.256487-6.424775 4.256487-10.27984v-68.67842c.001002-1.909013-.374394-3.800007-1.104164-5.564869-.73077-1.76386-1.800899-3.36755-3.150322-4.717975-1.350424-1.351425-2.953114-2.422554-4.716974-3.154326-1.76386-.731771-3.653853-1.108168-5.563867-1.10917z" fill="#7152ff" fill-opacity=".505101"/><path d="M9721.49758 181.644773c-3.856067.002002-7.553966 1.534618-10.280842 4.261494-2.726875 2.725874-4.25849 6.423773-4.260492 10.27984v39.666828c.008008 3.852062 1.542626 7.543955 4.269502 10.265825 2.725874 2.720869 6.41977 4.250482 10.271831 4.251483 3.857067-.001001 7.555968-1.534618 10.282843-4.262495 2.726876-2.727876 4.25849-6.426777 4.25849-10.283844v-39.66783c-.009009-3.85106-1.545629-7.540951-4.271503-10.260819-2.725875-2.719868-6.418769-4.24848-10.26983-4.250482z" fill="#7152ff" fill-opacity=".4"/><path d="M9781.741105 167.139477c0-8.030468-6.510865-14.540332-14.541334-14.540332-8.030468 0-14.541333 6.509864-14.541333 14.540332v68.684427c0 8.030468 6.510865 14.540333 14.541333 14.540333 8.030469 0 14.541334-6.509865 14.541334-14.540333v-68.684427z" fill="#7152ff" fill-opacity=".45"/></g><g><path d="M9936 0h432v432h-432z" fill="#7152ff"/><path d="M10011.43 216c0-77.635 62.934-140.57 140.57-140.57 77.635 0 140.57 62.935 140.57 140.57 0 77.635-62.935 140.57-140.57 140.57-77.636 0-140.57-62.935-140.57-140.57z" fill="none"/><path d="M10044.017558 216c0-59.637311 48.344362-107.982442 107.982442-107.982442 59.637311 0 107.982442 48.34513 107.982442 107.982442 0 59.637311-48.34513 107.982442-107.982442 107.982442-59.63808 0-107.982442-48.34513-107.982442-107.982442z" fill="#523bb9" fill-opacity=".598368"/><path d="M10155.992 108.03c-19.665-.473-39.057 4.667-55.905 14.818s-30.455 24.893-39.226 42.499c-8.772 17.605-12.345 37.346-10.301 56.908 2.045 19.563 9.621 38.139 21.842 53.551l-3.708 6.506-9.085 15.868c-.978 1.709-1.49 3.646-1.485 5.615.006 1.97.529 3.903 1.518 5.607.988 1.704 2.407 3.118 4.114 4.1 1.707.983 3.643 1.499 5.612 1.498h83.282c57.572 0 104.982-47.107 104.344-104.683-.307-26.811-11.007-52.457-29.846-71.537-18.84-19.08-44.35-30.104-71.156-30.75z" fill="#ffffff"/><path d="M10107.848 164.189826c-1.908 0-3.797.376-5.56 1.106-1.763.731-3.365 1.801-4.714 3.15-1.348 1.35-2.418 2.952-3.148 4.715s-1.105 3.652-1.104 5.56v68.606c0 3.852 1.53 7.547 4.255 10.271 2.724 2.724 6.418 4.254 10.271 4.254 3.852-.001 7.545-1.532 10.268-4.256 2.722-2.724 4.252-6.418 4.252-10.269v-68.606c.001-1.907-.374-3.796-1.103-5.559-.73-1.762-1.799-3.364-3.147-4.713-1.349-1.35-2.95-2.42-4.712-3.151-1.762-.731-3.65-1.107-5.558-1.108z" fill="#7152ff" fill-opacity=".817141"/><path d="M10153.496 196.516996c-3.852.002-7.546 1.533-10.27 4.257-2.724 2.723-4.254 6.417-4.256 10.269v39.625c.008 3.848 1.541 7.536 4.265 10.255 2.723 2.718 6.413 4.246 10.261 4.247 3.853-.001 7.548-1.533 10.272-4.258s4.254-6.42 4.254-10.273v-39.626c-.009-3.847-1.544-7.533-4.267-10.25-2.723-2.717-6.412-4.244-10.259-4.246z" fill="#7152ff" fill-opacity=".41968"/><path d="M10213.676 167.191c0-8.022-6.504-14.525-14.526-14.525s-14.526 6.503-14.526 14.525v68.612c0 8.022 6.504 14.525 14.526 14.525s14.526-6.503 14.526-14.525v-68.612z" fill="#7152ff" fill-opacity=".45"/></g><g><path d="M10368 0h432v432h-432z" fill="#7152ff"/><path d="M10443.43 216c0-77.635 62.934-140.57 140.57-140.57 77.635 0 140.57 62.935 140.57 140.57 0 77.635-62.935 140.57-140.57 140.57-77.636 0-140.57-62.935-140.57-140.57z" fill="none"/><path d="M10471.196914 216c0-62.299691 50.502592-112.803086 112.803086-112.803086 62.299691 0 112.803086 50.503395 112.803086 112.803086 0 62.299691-50.503395 112.803086-112.803086 112.803086-62.300494 0-112.803086-50.503395-112.803086-112.803086z" fill="#523bb9" fill-opacity=".58656"/><path d="M10587.992 108.03c-19.665-.473-39.057 4.667-55.905 14.818s-30.455 24.893-39.226 42.499c-8.772 17.605-12.345 37.346-10.301 56.908 2.045 19.563 9.621 38.139 21.842 53.551l-3.708 6.506-9.085 15.868c-.978 1.709-1.49 3.646-1.485 5.615.006 1.97.529 3.903 1.518 5.607.988 1.704 2.407 3.118 4.114 4.1 1.707.983 3.643 1.499 5.612 1.498h83.282c57.572 0 104.982-47.107 104.344-104.683-.307-26.811-11.007-52.457-29.846-71.537-18.84-19.08-44.35-30.104-71.156-30.75z" fill="#ffffff"/><path d="M10539.848 163.062121c-1.908 0-3.797.376-5.56 1.106-1.763.731-3.365 1.801-4.714 3.15-1.348 1.35-2.418 2.952-3.148 4.715s-1.105 3.652-1.104 5.56v68.606c0 3.852 1.53 7.547 4.255 10.271 2.724 2.724 6.418 4.254 10.271 4.254 3.852-.001 7.545-1.532 10.268-4.256 2.722-2.724 4.252-6.418 4.252-10.269v-68.606c.001-1.907-.374-3.796-1.103-5.559-.73-1.762-1.799-3.364-3.147-4.713-1.349-1.35-2.95-2.42-4.712-3.151-1.762-.731-3.65-1.107-5.558-1.108z" fill="#7152ff" fill-opacity=".952465"/><path d="M10585.496 194.394741c-3.852.002-7.546 1.533-10.27 4.257-2.724 2.723-4.254 6.417-4.256 10.269v39.625c.008 3.848 1.541 7.536 4.265 10.255 2.723 2.718 6.413 4.246 10.261 4.247 3.853-.001 7.548-1.533 10.272-4.258s4.254-6.42 4.254-10.273v-39.626c-.009-3.847-1.544-7.533-4.267-10.25-2.723-2.717-6.412-4.244-10.259-4.246z" fill="#7152ff" fill-opacity=".674351"/><path d="M10645.676 182.191c0-8.022-6.504-14.525-14.526-14.525s-14.526 6.503-14.526 14.525v68.612c0 8.022 6.504 14.525 14.526 14.525s14.526-6.503 14.526-14.525v-68.612z" fill="#7152ff" fill-opacity=".4"/></g><g><path d="M10800 0h432v432h-432z" fill="#7152ff"/><path d="M10875.43 216c0-77.635 62.934-140.57 140.57-140.57 77.635 0 140.57 62.935 140.57 140.57 0 77.635-62.935 140.57-140.57 140.57-77.636 0-140.57-62.935-140.57-140.57z" fill="none"/><path d="M10898.76192 216c0-64.74908 52.488165-117.23808 117.23808-117.23808 64.74908 0 117.23808 52.489 117.23808 117.23808 0 64.74908-52.489 117.23808-117.23808 117.23808-64.749915 0-117.23808-52.489-117.23808-117.23808z" fill="#523bb9" fill-opacity=".565472"/><path d="M11019.992 108.03c-19.665-.473-39.057 4.667-55.905 14.818s-30.455 24.893-39.226 42.499c-8.772 17.605-12.345 37.346-10.301 56.908 2.045 19.563 9.621 38.139 21.842 53.551l-3.708 6.506-9.085 15.868c-.978 1.709-1.49 3.646-1.485 5.615.006 1.97.529 3.903 1.518 5.607.988 1.704 2.407 3.118 4.114 4.1 1.707.983 3.643 1.499 5.612 1.498h83.282c57.572 0 104.982-47.107 104.344-104.683-.307-26.811-11.007-52.457-29.846-71.537-18.84-19.08-44.35-30.104-71.156-30.75z" fill="#ffffff"/><path d="M10971.848 162.701187c-1.908 0-3.797.376-5.56 1.106-1.763.731-3.365 1.801-4.714 3.15-1.348 1.35-2.418 2.952-3.148 4.715s-1.105 3.652-1.104 5.56v68.606c0 3.852 1.53 7.547 4.255 10.271 2.724 2.724 6.418 4.254 10.271 4.254 3.852-.001 7.545-1.532 10.268-4.256 2.722-2.724 4.252-6.418 4.252-10.269v-68.606c.001-1.907-.374-3.796-1.103-5.559-.73-1.762-1.799-3.364-3.147-4.713-1.349-1.35-2.95-2.42-4.712-3.151-1.762-.731-3.65-1.107-5.558-1.108z" fill="#7152ff" fill-opacity=".995778"/><path d="M11017.496 192.495342c-3.852.002-7.546 1.533-10.27 4.257-2.724 2.723-4.254 6.417-4.256 10.269v39.625c.008 3.848 1.541 7.536 4.265 10.255 2.723 2.718 6.413 4.246 10.261 4.247 3.853-.001 7.548-1.533 10.272-4.258s4.254-6.42 4.254-10.273v-39.626c-.009-3.847-1.544-7.533-4.267-10.25-2.723-2.717-6.412-4.244-10.259-4.246z" fill="#7152ff" fill-opacity=".902279"/><path d="M11077.676 181.315159c0-8.022-6.504-14.525-14.526-14.525s-14.526 6.503-14.526 14.525v68.612c0 8.022 6.504 14.525 14.526 14.525s14.526-6.503 14.526-14.525v-68.612z" fill="#7152ff" fill-opacity=".505101"/></g><g><path d="M11232 0h432v432h-432z" fill="#7152ff"/><path d="M11307.43 216c0-77.635 62.934-140.57 140.57-140.57 77.635 0 140.57 62.935 140.57 140.57 0 77.635-62.935 140.57-140.57 140.57-77.636 0-140.57-62.935-140.57-140.57z" fill="none"/><path d="M11326.712579 216c0-66.98548 54.301078-121.287421 121.287421-121.287421 66.98548 0 121.287421 54.30194 121.287421 121.287421 0 66.98548-54.30194 121.287421-121.287421 121.287421-66.986343 0-121.287421-54.30194-121.287421-121.287421z" fill="#523bb9" fill-opacity=".536887"/><path d="M11451.992 108.03c-19.665-.473-39.057 4.667-55.905 14.818s-30.455 24.893-39.226 42.499c-8.772 17.605-12.345 37.346-10.301 56.908 2.045 19.563 9.621 38.139 21.842 53.551l-3.708 6.506-9.085 15.868c-.978 1.709-1.49 3.646-1.485 5.615.006 1.97.529 3.903 1.518 5.607.988 1.704 2.407 3.118 4.114 4.1 1.707.983 3.643 1.499 5.612 1.498h83.282c57.572 0 104.982-47.107 104.344-104.683-.307-26.811-11.007-52.457-29.846-71.537-18.84-19.08-44.35-30.104-71.156-30.75z" fill="#ffffff"/><path d="M11403.848 162.666c-1.908 0-3.797.376-5.56 1.106-1.763.731-3.365 1.801-4.714 3.15-1.348 1.35-2.418 2.952-3.148 4.715s-1.105 3.652-1.104 5.56v68.606c0 3.852 1.53 7.547 4.255 10.271 2.724 2.724 6.418 4.254 10.271 4.254 3.852-.001 7.545-1.532 10.268-4.256 2.722-2.724 4.252-6.418 4.252-10.269v-68.606c.001-1.907-.374-3.796-1.103-5.559-.73-1.762-1.799-3.364-3.147-4.713-1.349-1.35-2.95-2.42-4.712-3.151-1.762-.731-3.65-1.107-5.558-1.108z" fill="#7152ff"/><path d="M11449.496 191.837043c-3.852.002-7.546 1.533-10.27 4.257-2.724 2.723-4.254 6.417-4.256 10.269v39.625c.008 3.848 1.541 7.536 4.265 10.255 2.723 2.718 6.413 4.246 10.261 4.247 3.853-.001 7.548-1.533 10.272-4.258s4.254-6.42 4.254-10.273v-39.626c-.009-3.847-1.544-7.533-4.267-10.25-2.723-2.717-6.412-4.244-10.259-4.246z" fill="#7152ff" fill-opacity=".981275"/><path d="M11509.676 178.714826c0-8.022-6.504-14.525-14.526-14.525s-14.526 6.503-14.526 14.525v68.612c0 8.022 6.504 14.525 14.526 14.525s14.526-6.503 14.526-14.525v-68.612z" fill="#7152ff" fill-opacity=".817141"/></g><g><path d="M11664 0h432v432h-432z" fill="#7152ff"/><path d="M11739.43 216c0-77.635 62.934-140.57 140.57-140.57 77.635 0 140.57 62.935 140.57 140.57 0 77.635-62.935 140.57-140.57 140.57-77.636 0-140.57-62.935-140.57-140.57z" fill="none"/><path d="M11755.048889 216c0-69.008889 55.941333-124.951111 124.951111-124.951111 69.008889 0 124.951111 55.942222 124.951111 124.951111S11949.00889 340.951111 11880 340.951111c-69.009778 0-124.951111-55.942222-124.951111-124.951111z" fill="#523bb9" fill-opacity=".502049"/><path d="M11883.992 108.03c-19.665-.473-39.057 4.667-55.905 14.818s-30.455 24.893-39.226 42.499c-8.772 17.605-12.345 37.346-10.301 56.908 2.045 19.563 9.621 38.139 21.842 53.551l-3.708 6.506-9.085 15.868c-.978 1.709-1.49 3.646-1.485 5.615.006 1.97.529 3.903 1.518 5.607.988 1.704 2.407 3.118 4.114 4.1 1.707.983 3.643 1.499 5.612 1.498h83.282c57.572 0 104.982-47.107 104.344-104.683-.307-26.811-11.007-52.457-29.846-71.537-18.84-19.08-44.35-30.104-71.156-30.75z" fill="#ffffff"/><path d="M11835.848 162.666c-1.908 0-3.797.376-5.56 1.106-1.763.731-3.365 1.801-4.714 3.15-1.348 1.35-2.418 2.952-3.148 4.715s-1.105 3.652-1.104 5.56v68.606c0 3.852 1.53 7.547 4.255 10.271 2.724 2.724 6.418 4.254 10.271 4.254 3.852-.001 7.545-1.532 10.268-4.256 2.722-2.724 4.252-6.418 4.252-10.269v-68.606c.001-1.907-.374-3.796-1.103-5.559-.73-1.762-1.799-3.364-3.147-4.713-1.349-1.35-2.95-2.42-4.712-3.151-1.762-.731-3.65-1.107-5.558-1.108zM11881.496 191.681c-3.852.002-7.546 1.533-10.27 4.257-2.724 2.723-4.254 6.417-4.256 10.269v39.625c.008 3.848 1.541 7.536 4.265 10.255 2.723 2.718 6.413 4.246 10.261 4.247 3.853-.001 7.548-1.533 10.272-4.258s4.254-6.42 4.254-10.273v-39.626c-.009-3.847-1.544-7.533-4.267-10.25-2.723-2.717-6.412-4.244-10.259-4.246z" fill="#7152ff"/><path d="M11941.676 177.587121c0-8.022-6.504-14.525-14.526-14.525s-14.526 6.503-14.526 14.525v68.612c0 8.022 6.504 14.525 14.526 14.525s14.526-6.503 14.526-14.525v-68.612z" fill="#7152ff" fill-opacity=".952465"/></g><g><path d="M12096 0h432v432h-432z" fill="#7152ff"/><path d="M12171.43 216c0-77.635 62.934-140.57 140.57-140.57 77.635 0 140.57 62.935 140.57 140.57 0 77.635-62.935 140.57-140.57 140.57-77.636 0-140.57-62.935-140.57-140.57z" fill="none"/><path d="M12183.77085 216c0-70.819307 57.40893-128.22915 128.22915-128.22915 70.819307 0 128.22915 57.409843 128.22915 128.22915 0 70.819307-57.409843 128.22915-128.22915 128.22915-70.82022 0-128.22915-57.409843-128.22915-128.22915z" fill="#523bb9" fill-opacity=".461861"/><path d="M12315.992 108.03c-19.665-.473-39.057 4.667-55.905 14.818s-30.455 24.893-39.226 42.499c-8.772 17.605-12.345 37.346-10.301 56.908 2.045 19.563 9.621 38.139 21.842 53.551l-3.708 6.506-9.085 15.868c-.978 1.709-1.49 3.646-1.485 5.615.006 1.97.529 3.903 1.518 5.607.988 1.704 2.407 3.118 4.114 4.1 1.707.983 3.643 1.499 5.612 1.498h83.282c57.572 0 104.982-47.107 104.344-104.683-.307-26.811-11.007-52.457-29.846-71.537-18.84-19.08-44.35-30.104-71.156-30.75z" fill="#ffffff"/><path d="M12267.848 162.666c-1.908 0-3.797.376-5.56 1.106-1.763.731-3.365 1.801-4.714 3.15-1.348 1.35-2.418 2.952-3.148 4.715s-1.105 3.652-1.104 5.56v68.606c0 3.852 1.53 7.547 4.255 10.271 2.724 2.724 6.418 4.254 10.271 4.254 3.852-.001 7.545-1.532 10.268-4.256 2.722-2.724 4.252-6.418 4.252-10.269v-68.606c.001-1.907-.374-3.796-1.103-5.559-.73-1.762-1.799-3.364-3.147-4.713-1.349-1.35-2.95-2.42-4.712-3.151-1.762-.731-3.65-1.107-5.558-1.108zM12313.496 191.681c-3.852.002-7.546 1.533-10.27 4.257-2.724 2.723-4.254 6.417-4.256 10.269v39.625c.008 3.848 1.541 7.536 4.265 10.255 2.723 2.718 6.413 4.246 10.261 4.247 3.853-.001 7.548-1.533 10.272-4.258s4.254-6.42 4.254-10.273v-39.626c-.009-3.847-1.544-7.533-4.267-10.25-2.723-2.717-6.412-4.244-10.259-4.246z" fill="#7152ff"/><path d="M12373.676 177.226187c0-8.022-6.504-14.525-14.526-14.525s-14.526 6.503-14.526 14.525v68.612c0 8.022 6.504 14.525 14.526 14.525s14.526-6.503 14.526-14.525v-68.612z" fill="#7152ff" fill-opacity=".995778"/></g><g><path d="M12528 0h432v432h-432z" fill="#7152ff"/><path d="M12603.43 216c0-77.635 62.934-140.57 140.57-140.57 77.635 0 140.57 62.935 140.57 140.57 0 77.635-62.935 140.57-140.57 140.57-77.636 0-140.57-62.935-140.57-140.57z" fill="none"/><path d="M12612.878464 216c0-72.416735 58.703868-131.121536 131.121536-131.121536 72.416735 0 131.121536 58.7048 131.121536 131.121536 0 72.416735-58.7048 131.121536-131.121536 131.121536-72.417668 0-131.121536-58.7048-131.121536-131.121536z" fill="#523bb9" fill-opacity=".416996"/><path d="M12747.992 108.03c-19.665-.473-39.057 4.667-55.905 14.818s-30.455 24.893-39.226 42.499c-8.772 17.605-12.345 37.346-10.301 56.908 2.045 19.563 9.621 38.139 21.842 53.551l-3.708 6.506-9.085 15.868c-.978 1.709-1.49 3.646-1.485 5.615.006 1.97.529 3.903 1.518 5.607.988 1.704 2.407 3.118 4.114 4.1 1.707.983 3.643 1.499 5.612 1.498h83.282c57.572 0 104.982-47.107 104.344-104.683-.307-26.811-11.007-52.457-29.846-71.537-18.84-19.08-44.35-30.104-71.156-30.75z" fill="#ffffff"/><path d="M12699.848 162.666c-1.908 0-3.797.376-5.56 1.106-1.763.731-3.365 1.801-4.714 3.15-1.348 1.35-2.418 2.952-3.148 4.715s-1.105 3.652-1.104 5.56v68.606c0 3.852 1.53 7.547 4.255 10.271 2.724 2.724 6.418 4.254 10.271 4.254 3.852-.001 7.545-1.532 10.268-4.256 2.722-2.724 4.252-6.418 4.252-10.269v-68.606c.001-1.907-.374-3.796-1.103-5.559-.73-1.762-1.799-3.364-3.147-4.713-1.349-1.35-2.95-2.42-4.712-3.151-1.762-.731-3.65-1.107-5.558-1.108zM12745.496 191.681c-3.852.002-7.546 1.533-10.27 4.257-2.724 2.723-4.254 6.417-4.256 10.269v39.625c.008 3.848 1.541 7.536 4.265 10.255 2.723 2.718 6.413 4.246 10.261 4.247 3.853-.001 7.548-1.533 10.272-4.258s4.254-6.42 4.254-10.273v-39.626c-.009-3.847-1.544-7.533-4.267-10.25-2.723-2.717-6.412-4.244-10.259-4.246zM12805.676 177.191c0-8.022-6.504-14.525-14.526-14.525s-14.526 6.503-14.526 14.525v68.612c0 8.022 6.504 14.525 14.526 14.525s14.526-6.503 14.526-14.525v-68.612z" fill="#7152ff"/></g><g><path d="M12960 0h432v432h-432z" fill="#7152ff"/><path d="M13035.43 216c0-77.635 62.934-140.57 140.57-140.57 77.635 0 140.57 62.935 140.57 140.57 0 77.635-62.935 140.57-140.57 140.57-77.636 0-140.57-62.935-140.57-140.57z" fill="none"/><path d="M13042.371728 216c0-73.801173 59.826149-133.628272 133.628272-133.628272 73.801173 0 133.628272 59.8271 133.628272 133.628272 0 73.801173-59.8271 133.628272-133.628272 133.628272-73.802123 0-133.628272-59.8271-133.628272-133.628272z" fill="#523bb9" fill-opacity=".367963"/><path d="M13179.992 108.03c-19.665-.473-39.057 4.667-55.905 14.818s-30.455 24.893-39.226 42.499c-8.772 17.605-12.345 37.346-10.301 56.908 2.045 19.563 9.621 38.139 21.842 53.551l-3.708 6.506-9.085 15.868c-.978 1.709-1.49 3.646-1.485 5.615.006 1.97.529 3.903 1.518 5.607.988 1.704 2.407 3.118 4.114 4.1 1.707.983 3.643 1.499 5.612 1.498h83.282c57.572 0 104.982-47.107 104.344-104.683-.307-26.811-11.007-52.457-29.846-71.537-18.84-19.08-44.35-30.104-71.156-30.75z" fill="#ffffff"/><path d="M13131.848 162.666c-1.908 0-3.797.376-5.56 1.106-1.763.731-3.365 1.801-4.714 3.15-1.348 1.35-2.418 2.952-3.148 4.715s-1.105 3.652-1.104 5.56v68.606c0 3.852 1.53 7.547 4.255 10.271 2.724 2.724 6.418 4.254 10.271 4.254 3.852-.001 7.545-1.532 10.268-4.256 2.722-2.724 4.252-6.418 4.252-10.269v-68.606c.001-1.907-.374-3.796-1.103-5.559-.73-1.762-1.799-3.364-3.147-4.713-1.349-1.35-2.95-2.42-4.712-3.151-1.762-.731-3.65-1.107-5.558-1.108zM13177.496 191.681c-3.852.002-7.546 1.533-10.27 4.257-2.724 2.723-4.254 6.417-4.256 10.269v39.625c.008 3.848 1.541 7.536 4.265 10.255 2.723 2.718 6.413 4.246 10.261 4.247 3.853-.001 7.548-1.533 10.272-4.258s4.254-6.42 4.254-10.273v-39.626c-.009-3.847-1.544-7.533-4.267-10.25-2.723-2.717-6.412-4.244-10.259-4.246zM13237.676 177.191c0-8.022-6.504-14.525-14.526-14.525s-14.526 6.503-14.526 14.525v68.612c0 8.022 6.504 14.525 14.526 14.525s14.526-6.503 14.526-14.525v-68.612z" fill="#7152ff"/></g><g><path d="M13392 0h432v432h-432z" fill="#7152ff"/><path d="M13467.43 216c0-77.635 62.934-140.57 140.57-140.57 77.635 0 140.57 62.935 140.57 140.57 0 77.635-62.935 140.57-140.57 140.57-77.636 0-140.57-62.935-140.57-140.57z" fill="none"/><path d="M13472.250645 216c0-74.97262 60.77577-135.749355 135.749355-135.749355 74.97262 0 135.749355 60.776735 135.749355 135.749355S13682.97262 351.749355 13608 351.749355c-74.973586 0-135.749355-60.776735-135.749355-135.749355z" fill="#523bb9" fill-opacity=".315147"/><path d="M13611.992 108.03c-19.665-.473-39.057 4.667-55.905 14.818s-30.455 24.893-39.226 42.499c-8.772 17.605-12.345 37.346-10.301 56.908 2.045 19.563 9.621 38.139 21.842 53.551l-3.708 6.506-9.085 15.868c-.978 1.709-1.49 3.646-1.485 5.615.006 1.97.529 3.903 1.518 5.607.988 1.704 2.407 3.118 4.114 4.1 1.707.983 3.643 1.499 5.612 1.498h83.282c57.572 0 104.982-47.107 104.344-104.683-.307-26.811-11.007-52.457-29.846-71.537-18.84-19.08-44.35-30.104-71.156-30.75z" fill="#ffffff"/><path d="M13563.848 162.666c-1.908 0-3.797.376-5.56 1.106-1.763.731-3.365 1.801-4.714 3.15-1.348 1.35-2.418 2.952-3.148 4.715s-1.105 3.652-1.104 5.56v68.606c0 3.852 1.53 7.547 4.255 10.271 2.724 2.724 6.418 4.254 10.271 4.254 3.852-.001 7.545-1.532 10.268-4.256 2.722-2.724 4.252-6.418 4.252-10.269v-68.606c.001-1.907-.374-3.796-1.103-5.559-.73-1.762-1.799-3.364-3.147-4.713-1.349-1.35-2.95-2.42-4.712-3.151-1.762-.731-3.65-1.107-5.558-1.108zM13609.496 191.681c-3.852.002-7.546 1.533-10.27 4.257-2.724 2.723-4.254 6.417-4.256 10.269v39.625c.008 3.848 1.541 7.536 4.265 10.255 2.723 2.718 6.413 4.246 10.261 4.247 3.853-.001 7.548-1.533 10.272-4.258s4.254-6.42 4.254-10.273v-39.626c-.009-3.847-1.544-7.533-4.267-10.25-2.723-2.717-6.412-4.244-10.259-4.246zM13669.676 177.191c0-8.022-6.504-14.525-14.526-14.525s-14.526 6.503-14.526 14.525v68.612c0 8.022 6.504 14.525 14.526 14.525s14.526-6.503 14.526-14.525v-68.612z" fill="#7152ff"/></g><g><path d="M13824 0h432v432h-432z" fill="#7152ff"/><path d="M13899.43 216c0-77.635 62.934-140.57 140.57-140.57 77.635 0 140.57 62.935 140.57 140.57 0 77.635-62.935 140.57-140.57 140.57-77.636 0-140.57-62.935-140.57-140.57z" fill="none"/><path d="M13902.515213 216c0-75.931077 61.552732-137.484787 137.484787-137.484787 75.931077 0 137.484787 61.55371 137.484787 137.484787 0 75.931077-61.55371 137.484787-137.484787 137.484787-75.932055 0-137.484787-61.55371-137.484787-137.484787z" fill="#523bb9" fill-opacity=".258833"/><path d="M14043.992 108.03c-19.665-.473-39.057 4.667-55.905 14.818s-30.455 24.893-39.226 42.499c-8.772 17.605-12.345 37.346-10.301 56.908 2.045 19.563 9.621 38.139 21.842 53.551l-3.708 6.506-9.085 15.868c-.978 1.709-1.49 3.646-1.485 5.615.006 1.97.529 3.903 1.518 5.607.988 1.704 2.407 3.118 4.114 4.1 1.707.983 3.643 1.499 5.612 1.498h83.282c57.572 0 104.982-47.107 104.344-104.683-.307-26.811-11.007-52.457-29.846-71.537-18.84-19.08-44.35-30.104-71.156-30.75z" fill="#ffffff"/><path d="M13995.848 162.666c-1.908 0-3.797.376-5.56 1.106-1.763.731-3.365 1.801-4.714 3.15-1.348 1.35-2.418 2.952-3.148 4.715s-1.105 3.652-1.104 5.56v68.606c0 3.852 1.53 7.547 4.255 10.271 2.724 2.724 6.418 4.254 10.271 4.254 3.852-.001 7.545-1.532 10.268-4.256 2.722-2.724 4.252-6.418 4.252-10.269v-68.606c.001-1.907-.374-3.796-1.103-5.559-.73-1.762-1.799-3.364-3.147-4.713-1.349-1.35-2.95-2.42-4.712-3.151-1.762-.731-3.65-1.107-5.558-1.108zM14041.496 191.681c-3.852.002-7.546 1.533-10.27 4.257-2.724 2.723-4.254 6.417-4.256 10.269v39.625c.008 3.848 1.541 7.536 4.265 10.255 2.723 2.718 6.413 4.246 10.261 4.247 3.853-.001 7.548-1.533 10.272-4.258s4.254-6.42 4.254-10.273v-39.626c-.009-3.847-1.544-7.533-4.267-10.25-2.723-2.717-6.412-4.244-10.259-4.246zM14101.676 177.191c0-8.022-6.504-14.525-14.526-14.525s-14.526 6.503-14.526 14.525v68.612c0 8.022 6.504 14.525 14.526 14.525s14.526-6.503 14.526-14.525v-68.612z" fill="#7152ff"/></g><g><path d="M14256 0h432v432h-432z" fill="#7152ff"/><path d="M14331.43 216c0-77.635 62.934-140.57 140.57-140.57 77.635 0 140.57 62.935 140.57 140.57 0 77.635-62.935 140.57-140.57 140.57-77.636 0-140.57-62.935-140.57-140.57z" fill="none"/><path d="M14333.165432 216c0-76.676543 62.157037-138.834568 138.834568-138.834568 76.676543 0 138.834568 62.158025 138.834568 138.834568 0 76.676543-62.158025 138.834568-138.834568 138.834568-76.67753 0-138.834568-62.158025-138.834568-138.834568z" fill="#523bb9" fill-opacity=".19921"/><path d="M14475.992 108.03c-19.665-.473-39.057 4.667-55.905 14.818s-30.455 24.893-39.226 42.499c-8.772 17.605-12.345 37.346-10.301 56.908 2.045 19.563 9.621 38.139 21.842 53.551l-3.708 6.506-9.085 15.868c-.978 1.709-1.49 3.646-1.485 5.615.006 1.97.529 3.903 1.518 5.607.988 1.704 2.407 3.118 4.114 4.1 1.707.983 3.643 1.499 5.612 1.498h83.282c57.572 0 104.982-47.107 104.344-104.683-.307-26.811-11.007-52.457-29.846-71.537-18.84-19.08-44.35-30.104-71.156-30.75z" fill="#ffffff"/><path d="M14427.848 162.666c-1.908 0-3.797.376-5.56 1.106-1.763.731-3.365 1.801-4.714 3.15-1.348 1.35-2.418 2.952-3.148 4.715s-1.105 3.652-1.104 5.56v68.606c0 3.852 1.53 7.547 4.255 10.271 2.724 2.724 6.418 4.254 10.271 4.254 3.852-.001 7.545-1.532 10.268-4.256 2.722-2.724 4.252-6.418 4.252-10.269v-68.606c.001-1.907-.374-3.796-1.103-5.559-.73-1.762-1.799-3.364-3.147-4.713-1.349-1.35-2.95-2.42-4.712-3.151-1.762-.731-3.65-1.107-5.558-1.108zM14473.496 191.681c-3.852.002-7.546 1.533-10.27 4.257-2.724 2.723-4.254 6.417-4.256 10.269v39.625c.008 3.848 1.541 7.536 4.265 10.255 2.723 2.718 6.413 4.246 10.261 4.247 3.853-.001 7.548-1.533 10.272-4.258s4.254-6.42 4.254-10.273v-39.626c-.009-3.847-1.544-7.533-4.267-10.25-2.723-2.717-6.412-4.244-10.259-4.246zM14533.676 177.191c0-8.022-6.504-14.525-14.526-14.525s-14.526 6.503-14.526 14.525v68.612c0 8.022 6.504 14.525 14.526 14.525s14.526-6.503 14.526-14.525v-68.612z" fill="#7152ff"/></g><g><path d="M14688 0h432v432h-432z" fill="#7152ff"/><path d="M14763.43 216c0-77.635 62.934-140.57 140.57-140.57 77.635 0 140.57 62.935 140.57 140.57 0 77.635-62.935 140.57-140.57 140.57-77.636 0-140.57-62.935-140.57-140.57z" fill="none"/><path d="M14764.201303 216c0-77.20902 62.588683-139.798697 139.798697-139.798697 77.20902 0 139.798697 62.589678 139.798697 139.798697 0 77.20902-62.589678 139.798697-139.798697 139.798697-77.210014 0-139.798697-62.589678-139.798697-139.798697z" fill="#523bb9" fill-opacity=".136362"/><path d="M14907.992 108.03c-19.665-.473-39.057 4.667-55.905 14.818s-30.455 24.893-39.226 42.499c-8.772 17.605-12.345 37.346-10.301 56.908 2.045 19.563 9.621 38.139 21.842 53.551l-3.708 6.506-9.085 15.868c-.978 1.709-1.49 3.646-1.485 5.615.006 1.97.529 3.903 1.518 5.607.988 1.704 2.407 3.118 4.114 4.1 1.707.983 3.643 1.499 5.612 1.498h83.282c57.572 0 104.982-47.107 104.344-104.683-.307-26.811-11.007-52.457-29.846-71.537-18.84-19.08-44.35-30.104-71.156-30.75z" fill="#ffffff"/><path d="M14859.848 162.666c-1.908 0-3.797.376-5.56 1.106-1.763.731-3.365 1.801-4.714 3.15-1.348 1.35-2.418 2.952-3.148 4.715s-1.105 3.652-1.104 5.56v68.606c0 3.852 1.53 7.547 4.255 10.271 2.724 2.724 6.418 4.254 10.271 4.254 3.852-.001 7.545-1.532 10.268-4.256 2.722-2.724 4.252-6.418 4.252-10.269v-68.606c.001-1.907-.374-3.796-1.103-5.559-.73-1.762-1.799-3.364-3.147-4.713-1.349-1.35-2.95-2.42-4.712-3.151-1.762-.731-3.65-1.107-5.558-1.108zM14905.496 191.681c-3.852.002-7.546 1.533-10.27 4.257-2.724 2.723-4.254 6.417-4.256 10.269v39.625c.008 3.848 1.541 7.536 4.265 10.255 2.723 2.718 6.413 4.246 10.261 4.247 3.853-.001 7.548-1.533 10.272-4.258s4.254-6.42 4.254-10.273v-39.626c-.009-3.847-1.544-7.533-4.267-10.25-2.723-2.717-6.412-4.244-10.259-4.246zM14965.676 177.191c0-8.022-6.504-14.525-14.526-14.525s-14.526 6.503-14.526 14.525v68.612c0 8.022 6.504 14.525 14.526 14.525s14.526-6.503 14.526-14.525v-68.612z" fill="#7152ff"/></g><g><path d="M15120 0h432v432h-432z" fill="#7152ff"/><path d="M15195.43 216c0-77.635 62.934-140.57 140.57-140.57 77.635 0 140.57 62.935 140.57 140.57 0 77.635-62.935 140.57-140.57 140.57-77.636 0-140.57-62.935-140.57-140.57z" fill="none"/><path d="M15195.622826 216c0-77.528505 62.84767-140.377174 140.377174-140.377174 77.528505 0 140.377174 62.84867 140.377174 140.377174 0 77.528505-62.84867 140.377174-140.377174 140.377174-77.529503 0-140.377174-62.84867-140.377174-140.377174z" fill="#523bb9" fill-opacity=".070197"/><path d="M15339.992 108.03c-19.665-.473-39.057 4.667-55.905 14.818s-30.455 24.893-39.226 42.499c-8.772 17.605-12.345 37.346-10.301 56.908 2.045 19.563 9.621 38.139 21.842 53.551l-3.708 6.506-9.085 15.868c-.978 1.709-1.49 3.646-1.485 5.615.006 1.97.529 3.903 1.518 5.607.988 1.704 2.407 3.118 4.114 4.1 1.707.983 3.643 1.499 5.612 1.498h83.282c57.572 0 104.982-47.107 104.344-104.683-.307-26.811-11.007-52.457-29.846-71.537-18.84-19.08-44.35-30.104-71.156-30.75z" fill="#ffffff"/><path d="M15291.848 162.666c-1.908 0-3.797.376-5.56 1.106-1.763.731-3.365 1.801-4.714 3.15-1.348 1.35-2.418 2.952-3.148 4.715s-1.105 3.652-1.104 5.56v68.606c0 3.852 1.53 7.547 4.255 10.271 2.724 2.724 6.418 4.254 10.271 4.254 3.852-.001 7.545-1.532 10.268-4.256 2.722-2.724 4.252-6.418 4.252-10.269v-68.606c.001-1.907-.374-3.796-1.103-5.559-.73-1.762-1.799-3.364-3.147-4.713-1.349-1.35-2.95-2.42-4.712-3.151-1.762-.731-3.65-1.107-5.558-1.108zM15337.496 191.681c-3.852.002-7.546 1.533-10.27 4.257-2.724 2.723-4.254 6.417-4.256 10.269v39.625c.008 3.848 1.541 7.536 4.265 10.255 2.723 2.718 6.413 4.246 10.261 4.247 3.853-.001 7.548-1.533 10.272-4.258s4.254-6.42 4.254-10.273v-39.626c-.009-3.847-1.544-7.533-4.267-10.25-2.723-2.717-6.412-4.244-10.259-4.246zM15397.676 177.191c0-8.022-6.504-14.525-14.526-14.525s-14.526 6.503-14.526 14.525v68.612c0 8.022 6.504 14.525 14.526 14.525s14.526-6.503 14.526-14.525v-68.612z" fill="#7152ff"/></g><g><path d="M15552 0h432v432h-432z" fill="#7152ff"/><path d="M15627.43 216c0-77.635 62.934-140.57 140.57-140.57 77.635 0 140.57 62.935 140.57 140.57 0 77.635-62.935 140.57-140.57 140.57-77.636 0-140.57-62.935-140.57-140.57z" fill="none"/><path d="M15627.43 216c0-77.635 62.934-140.57 140.57-140.57 77.635 0 140.57 62.935 140.57 140.57 0 77.635-62.935 140.57-140.57 140.57-77.636 0-140.57-62.935-140.57-140.57z" fill="none"/><path d="M15771.992 108.03c-19.665-.473-39.057 4.667-55.905 14.818s-30.455 24.893-39.226 42.499c-8.772 17.605-12.345 37.346-10.301 56.908 2.045 19.563 9.621 38.139 21.842 53.551l-3.708 6.506-9.085 15.868c-.978 1.709-1.49 3.646-1.485 5.615.006 1.97.529 3.903 1.518 5.607.988 1.704 2.407 3.118 4.114 4.1 1.707.983 3.643 1.499 5.612 1.498h83.282c57.572 0 104.982-47.107 104.344-104.683-.307-26.811-11.007-52.457-29.846-71.537-18.84-19.08-44.35-30.104-71.156-30.75z" fill="#ffffff"/><path d="M15723.848 162.666c-1.908 0-3.797.376-5.56 1.106-1.763.731-3.365 1.801-4.714 3.15-1.348 1.35-2.418 2.952-3.148 4.715s-1.105 3.652-1.104 5.56v68.606c0 3.852 1.53 7.547 4.255 10.271 2.724 2.724 6.418 4.254 10.271 4.254 3.852-.001 7.545-1.532 10.268-4.256 2.722-2.724 4.252-6.418 4.252-10.269v-68.606c.001-1.907-.374-3.796-1.103-5.559-.73-1.762-1.799-3.364-3.147-4.713-1.349-1.35-2.95-2.42-4.712-3.151-1.762-.731-3.65-1.107-5.558-1.108zM15769.496 191.681c-3.852.002-7.546 1.533-10.27 4.257-2.724 2.723-4.254 6.417-4.256 10.269v39.625c.008 3.848 1.541 7.536 4.265 10.255 2.723 2.718 6.413 4.246 10.261 4.247 3.853-.001 7.548-1.533 10.272-4.258s4.254-6.42 4.254-10.273v-39.626c-.009-3.847-1.544-7.533-4.267-10.25-2.723-2.717-6.412-4.244-10.259-4.246zM15829.676 177.191c0-8.022-6.504-14.525-14.526-14.525s-14.526 6.503-14.526 14.525v68.612c0 8.022 6.504 14.525 14.526 14.525s14.526-6.503 14.526-14.525v-68.612z" fill="#7152ff"/></g></svg>