<svg xmlns="http://www.w3.org/2000/svg" viewBox="0 0 16848 432" width="16848" height="432"><path d="M0 0h432v432H0z" fill="#7152ff"/><path d="M216 216z" fill="none" stroke="#ffffff" stroke-width="0"/><path d="M216 216z" fill="#ffffff"/><path d="M432 0h432v432H432z" fill="#7152ff"/><path d="M613.441586 216c0-19.086167 15.472001-34.558414 34.558414-34.558414 19.086167 0 34.558414 15.472247 34.558414 34.558414S667.086167 250.558414 648 250.558414c-19.086413 0-34.558414-15.472247-34.558414-34.558414z" fill="none" stroke="#ffffff" stroke-opacity=".792725" stroke-width="9.74436994773"/><path d="M647.756895 214.203952c-.962151.143392-1.616228 1.039505-1.458146 1.99928.067175.407937.271297.758397.557034 1.013264l-.147357.406454c-.049407.136147.06676.274789.209483.250054l1.376424-.238548c.951577-.164918 1.60035-1.07935 1.424797-2.029031-.169878-.920277-1.03916-1.538995-1.962235-1.401473z" fill="#ffffff"/><path d="M864 0h432v432H864z" fill="#7152ff"/><path d="M1015.750554 216c0-35.484141 28.764848-64.249446 64.249446-64.249446 35.484141 0 64.249446 28.765305 64.249446 64.249446 0 35.484141-28.765305 64.249446-64.249446 64.249446-35.484598 0-64.249446-28.765305-64.249446-64.249446z" fill="none" stroke="#ffffff" stroke-opacity=".609495" stroke-width="13.928916161704"/><path d="M1078.906974 207.164576c-4.733918.650176-7.996997 5.014862-7.274537 9.73794.306998 2.007465 1.289878 3.74032 2.679012 5.00824l-.74665 1.988113c-.250336.665943.312447 1.353452 1.01486 1.239988l6.77408-1.09425c4.68319-.7565 7.921252-5.211463 7.112407-9.885947-.782625-4.52973-5.017517-7.617626-9.559172-6.994084z" fill="#ffffff"/><path d="M1296 0h432v432h-432z" fill="#7152ff"/><path d="M1422.926904 216c0-49.193923 39.87854-89.073096 89.073096-89.073096 49.193923 0 89.073096 39.879173 89.073096 89.073096 0 49.193923-39.879173 89.073096-89.073096 89.073096-49.194557 0-89.073096-39.879173-89.073096-89.073096z" fill="none" stroke="#ffffff" stroke-opacity=".450312" stroke-width="14.267156143373999"/><path d="M1509.592915 191.399486c-13.185251 1.468836-22.551588 13.351728-20.881355 26.512014.709705 5.593556 3.314818 10.472857 7.080477 14.090535l-2.213355 5.465111c-.742046 1.830592.771215 3.778709 2.728832 3.513603l18.879276-2.556683c13.051992-1.767537 22.355298-13.90277 20.441854-26.93431-1.850933-12.627912-13.386002-21.49882-26.03573-20.09027z" fill="#ffffff"/><g><path d="M1728 0h432v432h-432z" fill="#7152ff"/><path d="M1834.970637 216c0-60.215512 48.813075-109.029363 109.029363-109.029363 60.215512 0 109.029363 48.81385 109.029363 109.029363 0 60.215512-48.81385 109.029363-109.029363 109.029363-60.216288 0-109.029363-48.81385-109.029363-109.029363z" fill="none" stroke="#ffffff" stroke-opacity=".315174" stroke-width="12.222806291984998"/><path d="M1941.127942 167.932484c-25.776143 1.887226-44.885819 24.329162-42.604692 50.071555.969168 10.941353 5.680805 20.63201 12.744708 27.952225l-4.711709 10.475785c-1.579518 3.508917 1.222721 7.412908 5.053179 7.041162l36.940962-3.585117c25.53875-2.478534 44.544329-25.416353 41.780248-50.926049-2.672152-24.719339-24.473505-42.838912-49.202696-41.02956z" fill="#ffffff"/></g><g><path d="M2160 0h432v432h-432z" fill="#7152ff"/><path d="M2251.881752 216c0-68.54891 55.568456-124.118248 124.118248-124.118248 68.54891 0 124.118248 55.569339 124.118248 124.118248 0 68.54891-55.569339 124.118248-124.118248 124.118248-68.549792 0-124.118248-55.569339-124.118248-124.118248z" fill="none" stroke="#ffffff" stroke-opacity=".204082" stroke-width="9.009853835364"/><path d="M2374.17985 147.331134c-36.840015 1.470919-65.147942 32.563492-63.113817 69.374028.864021 15.645656 7.123108 29.68522 16.84815 40.456412l-7.213538 14.713025c-2.418076 4.92814 1.392506 10.626923 6.871428 10.278173l52.838767-3.363353c36.529533-2.325219 64.71251-34.12973 61.978793-70.63135-2.640052-35.370408-32.866158-62.236368-68.209782-60.826935z" fill="#ffffff"/></g><g><path d="M2592 0h432v432h-432z" fill="#7152ff"/><path d="M2673.66025 216c0-74.194114 60.14468-134.33975 134.33975-134.33975 74.194114 0 134.33975 60.145636 134.33975 134.33975 0 74.194114-60.145636 134.33975-134.33975 134.33975-74.19507 0-134.33975-60.145636-134.33975-134.33975z" fill="none" stroke="#ffffff" stroke-opacity=".117036" stroke-width="5.592443327879"/><path d="M2807.70362 133.11642c-44.479714.755421-79.48668 37.478553-78.051063 81.938283.609522 18.896792 7.771376 36.005419 19.204505 49.267361l-9.108407 17.548383c-3.053154 5.877792 1.385825 12.857459 8.004534 12.588305l63.830877-2.595723c44.128815-1.794527 79.004747-39.379904 76.71669-83.486347-2.206358-42.739303-37.924178-75.982903-80.597137-75.260262z" fill="#ffffff"/></g><g><path d="M3024 0h432v432h-432z" fill="#7152ff"/><path d="M3100.306129 216c0-77.151125 62.541752-139.693871 139.693871-139.693871 77.151125 0 139.693871 62.542746 139.693871 139.693871 0 77.151125-62.542746 139.693871-139.693871 139.693871-77.15212 0-139.693871-62.542746-139.693871-139.693871z" fill="none" stroke="#ffffff" stroke-opacity=".054036" stroke-width="2.6849527242309996"/><path d="M3241.098709 123.551998c-49.622772.075525-89.300504 40.430417-88.46599 90.04263.353959 21.08675 8.046792 40.292087 20.569858 55.280742l-10.461528 19.415242c-3.506646 6.503054 1.32394 14.364262 8.710654 14.1782l71.23752-1.794377c49.249323-1.240525 88.795777-42.55937 87.004415-91.792249-1.723816-47.706653-40.987858-85.400307-88.59493-85.330188z" fill="#ffffff"/></g><g><path d="M3456 0h432v432h-432z" fill="#7152ff"/><path d="M3531.43 216c0-77.635 62.934-140.57 140.57-140.57 77.635 0 140.57 62.935 140.57 140.57 0 77.635-62.935 140.57-140.57 140.57-77.636 0-140.57-62.935-140.57-140.57z" fill="none" stroke="#ffffff" stroke-opacity=".015082" stroke-width=".754078"/><path d="M3674.210946 117.091434c-53.09802-.474905-96.00577 42.261144-95.668425 95.356367.142595 22.56713 8.158974 43.203305 21.391004 59.381654l-11.411434 20.65747c-3.824994 6.919102 1.255775 15.38482 9.161763 15.268454l76.245404-1.122237c52.71147-.775846 95.489545-44.54481 94.124109-97.244854-1.310252-51.066203-42.901293-91.838738-93.84242-92.296854z" fill="#ffffff"/><g><path d="M3628.859 219.474654c7.83 0 14.177-6.347 14.177-14.176 0-7.83-6.347-14.177-14.177-14.177-7.83 0-14.177 6.347-14.177 14.177 0 7.829 6.347 14.176 14.177 14.176z" fill="#7753ff" fill-opacity=".00643"/></g></g><g><path d="M3888 0h432v432h-432z" fill="#7152ff"/><path d="M3963.43 216c0-77.635 62.934-140.57 140.57-140.57 77.635 0 140.57 62.935 140.57 140.57 0 77.635-62.935 140.57-140.57 140.57-77.636 0-140.57-62.935-140.57-140.57z" fill="none" stroke="#ffffff" stroke-opacity=".000173" stroke-width=".008657"/><path d="M4107.027439 112.792942c-55.410805-.882171-100.50139 43.405744-100.535859 98.819542-.015472 23.55259 8.200368 45.147315 21.891828 62.127724l-12.059607 21.475515c-4.04222 7.193082 1.198553 16.065079 9.450263 16.001192l79.57955-.61613c55.016498-.425955 99.97927-45.792787 98.937924-100.801653-.99565-53.30335-44.104153-96.157243-97.2641-97.00619z" fill="#ffffff"/><g><path d="M4060.859 231.074377c7.83 0 14.177-6.347 14.177-14.176 0-7.83-6.347-14.177-14.177-14.177-7.83 0-14.177 6.347-14.177 14.177 0 7.829 6.347 14.176 14.177 14.176z" fill="#7753ff" fill-opacity=".10895"/></g></g><g><path d="M4320 0h432v432h-432z" fill="#7152ff"/><path d="M4395.43 216c0-77.635 62.934-140.57 140.57-140.57 77.635 0 140.57 62.935 140.57 140.57 0 77.635-62.935 140.57-140.57 140.57-77.636 0-140.57-62.935-140.57-140.57z" fill="none"/><path d="M4431.71816 216c0-57.593517 46.687581-104.28184 104.28184-104.28184 57.593517 0 104.28184 46.688323 104.28184 104.28184 0 57.593517-46.688323 104.28184-104.28184 104.28184-57.594259 0-104.28184-46.688323-104.28184-104.28184z" fill="#000000" fill-opacity=".25815"/><path d="M4539.574505 110.079458c-56.87101-1.156245-103.353513 44.097891-103.63967 100.97581-.12247 24.174884 8.212742 46.377417 22.189145 63.868484l-12.475465 21.988417c-4.181584 7.364861 1.157522 16.495012 9.627567 16.46678l81.68518-.27227c56.472203-.18823 102.8284-46.550372 102.008482-103.017527-.780732-54.716365-44.834415-98.897736-99.395239-100.009694z" fill="#ffffff"/><g><path d="M4492.859 240.942798c7.83 0 14.177-6.347 14.177-14.176 0-7.83-6.347-14.177-14.177-14.177-7.83 0-14.177 6.347-14.177 14.177 0 7.829 6.347 14.176 14.177 14.176z" fill="#7753ff" fill-opacity=".410364"/><path d="M4537.508 225.258587c7.829 0 14.177-6.347 14.177-14.176 0-7.83-6.348-14.177-14.177-14.177-7.83 0-14.178 6.347-14.178 14.177 0 7.829 6.348 14.176 14.178 14.176z" fill="#7753ff" fill-opacity=".036033"/></g></g><g><path d="M4752 0h432v432h-432z" fill="#7152ff"/><path d="M4827.43 216c0-77.635 62.934-140.57 140.57-140.57 77.635 0 140.57 62.935 140.57 140.57 0 77.635-62.935 140.57-140.57 140.57-77.636 0-140.57-62.935-140.57-140.57z" fill="none"/><path d="M4857.569287 216c0-60.98946 49.440468-110.430713 110.430713-110.430713 60.98946 0 110.430713 49.441253 110.430713 110.430713 0 60.98946-49.441253 110.430713-110.430713 110.430713-60.990245 0-110.430713-49.441253-110.430713-110.430713z" fill="#000000" fill-opacity=".214408"/><path d="M4971.887556 108.579065c-57.67849-1.313458-104.935302 44.470466-105.366291 102.158118-.18404 24.519043 8.214994 47.058562 22.34726 64.833443l-12.70764 22.270852c-4.259392 7.459454 1.133195 16.73291 9.723999 16.725237l82.849768-.074005c57.277329-.051163 104.408776-46.959192 103.716912-104.232964-.656451-55.497938-45.22851-100.417859-100.564008-101.68068z" fill="#ffffff"/><g><path d="M4924.859 249.079917c7.83 0 14.177-6.347 14.177-14.176 0-7.83-6.347-14.177-14.177-14.177-7.83 0-14.177 6.347-14.177 14.177 0 7.829 6.347 14.176 14.177 14.176z" fill="#7753ff" fill-opacity=".700021"/><path d="M4969.508 236.027285c7.829 0 14.177-6.347 14.177-14.176 0-7.83-6.348-14.177-14.177-14.177-7.83 0-14.178 6.347-14.178 14.177 0 7.829 6.348 14.176 14.178 14.176z" fill="#7753ff" fill-opacity=".230328"/><path d="M5014.233 218.974654c7.83 0 14.177-6.347 14.177-14.176 0-7.83-6.347-14.177-14.177-14.177-7.83 0-14.177 6.347-14.177 14.177 0 7.829 6.347 14.176 14.177 14.176z" fill="#7753ff" fill-opacity=".00515"/></g></g><g><path d="M5184 0h432v432h-432z" fill="#7152ff"/><path d="M5259.43 216c0-77.635 62.934-140.57 140.57-140.57 77.635 0 140.57 62.935 140.57 140.57 0 77.635-62.935 140.57-140.57 140.57-77.636 0-140.57-62.935-140.57-140.57z" fill="none"/><path d="M5283.99081 216c0-64.07038 51.937984-116.00919 116.00919-116.00919 64.07038 0 116.00919 51.93881 116.00919 116.00919S5464.07038 332.00919 5400 332.00919c-64.071206 0-116.00919-51.93881-116.00919-116.00919z" fill="#000000" fill-opacity=".174723"/><path d="M5404.001919 108.039771c-57.968741-1.370953-105.50468 44.602615-105.988714 102.58134-.20659 24.642759 8.215004 47.30356 22.402996 65.180707l-12.79148 22.372165c-4.28749 7.493385 1.124166 16.81845 9.75838 16.818313l83.268414-.001324c57.566755-.000915 104.977687-47.104378 104.33283-104.668124-.61083-55.778909-45.368471-100.965081-100.982426-102.283077z" fill="#ffffff"/><g><path d="M5356.859 255.485734c7.83 0 14.177-6.347 14.177-14.176 0-7.83-6.347-14.177-14.177-14.177-7.83 0-14.177 6.347-14.177 14.177 0 7.829 6.347 14.176 14.177 14.176z" fill="#7753ff" fill-opacity=".858586"/><path d="M5401.508 245.064681c7.829 0 14.177-6.347 14.177-14.176 0-7.83-6.348-14.177-14.177-14.177-7.83 0-14.178 6.347-14.178 14.177 0 7.829 6.348 14.176 14.178 14.176z" fill="#7753ff" fill-opacity=".568631"/><path d="M5446.233 230.643629c7.83 0 14.177-6.347 14.177-14.176 0-7.83-6.347-14.177-14.177-14.177-7.83 0-14.177 6.347-14.177 14.177 0 7.829 6.347 14.176 14.177 14.176z" fill="#7753ff" fill-opacity=".101376"/></g></g><g><path d="M5616 0h432v432h-432z" fill="#7152ff"/><path d="M5691.43 216c0-77.635 62.934-140.57 140.57-140.57 77.635 0 140.57 62.935 140.57 140.57 0 77.635-62.935 140.57-140.57 140.57-77.636 0-140.57-62.935-140.57-140.57z" fill="none"/><path d="M5710.98273 216c0-66.836279 54.18013-121.01727 121.01727-121.01727 66.836279 0 121.01727 54.180991 121.01727 121.01727 0 66.836279-54.180991 121.01727-121.01727 121.01727-66.83714 0-121.01727-54.180991-121.01727-121.01727z" fill="#000000" fill-opacity=".139096"/><path d="M5836.004 108.03c-57.974-1.372-105.515 44.605-106 102.589-.207 24.645 8.215 47.308 22.404 65.187l-12.793 22.374c-4.288 7.494 1.124 16.82 9.759 16.82h83.276c57.572 0 104.988-47.107 104.344-104.676-.61-55.784-45.371-100.975-100.99-102.294z" fill="#ffffff"/><g><path d="M5788.859 260.16025c7.83 0 14.177-6.347 14.177-14.176 0-7.83-6.347-14.177-14.177-14.177-7.83 0-14.177 6.347-14.177 14.177 0 7.829 6.347 14.176 14.177 14.176z" fill="#7753ff" fill-opacity=".943172"/><path d="M5833.508 252.370776c7.829 0 14.177-6.347 14.177-14.176 0-7.83-6.348-14.177-14.177-14.177-7.83 0-14.178 6.347-14.178 14.177 0 7.829 6.348 14.176 14.178 14.176z" fill="#7753ff" fill-opacity=".788509"/><path d="M5878.233 240.581302c7.83 0 14.177-6.347 14.177-14.176 0-7.83-6.347-14.177-14.177-14.177-7.83 0-14.177 6.347-14.177 14.177 0 7.829 6.347 14.176 14.177 14.176z" fill="#7753ff" fill-opacity=".396054"/></g></g><g><path d="M6048 0h432v432h-432z" fill="#7152ff"/><path d="M6123.43 216c0-77.635 62.934-140.57 140.57-140.57 77.635 0 140.57 62.935 140.57 140.57 0 77.635-62.935 140.57-140.57 140.57-77.636 0-140.57-62.935-140.57-140.57z" fill="none"/><path d="M6138.545047 216c0-69.287154 56.166906-125.454953 125.454953-125.454953 69.287154 0 125.454953 56.167799 125.454953 125.454953S6333.287154 341.454953 6264 341.454953c-69.288047 0-125.454953-56.167799-125.454953-125.454953z" fill="#000000" fill-opacity=".107527"/><path d="M6268.004 108.03c-57.974-1.372-105.515 44.605-106 102.589-.207 24.645 8.215 47.308 22.404 65.187l-12.793 22.374c-4.288 7.494 1.124 16.82 9.759 16.82h83.276c57.572 0 104.988-47.107 104.344-104.676-.61-55.784-45.371-100.975-100.99-102.294z" fill="#ffffff"/><g><path d="M6220.859 263.103463c7.83 0 14.177-6.347 14.177-14.176 0-7.83-6.347-14.177-14.177-14.177-7.83 0-14.177 6.347-14.177 14.177 0 7.829 6.347 14.176 14.177 14.176z" fill="#7753ff" fill-opacity=".985185"/><path d="M6265.508 257.945568c7.829 0 14.177-6.347 14.177-14.176 0-7.83-6.348-14.177-14.177-14.177-7.83 0-14.178 6.347-14.178 14.177 0 7.829 6.348 14.176 14.178 14.176z" fill="#7753ff" fill-opacity=".905919"/><path d="M6310.233 248.787673c7.83 0 14.177-6.347 14.177-14.176 0-7.83-6.347-14.177-14.177-14.177-7.83 0-14.177 6.347-14.177 14.177 0 7.829 6.347 14.176 14.177 14.176z" fill="#7753ff" fill-opacity=".691357"/></g></g><g><path d="M6480 0h432v432h-432z" fill="#7152ff"/><path d="M6555.43 216c0-77.635 62.934-140.57 140.57-140.57 77.635 0 140.57 62.935 140.57 140.57 0 77.635-62.935 140.57-140.57 140.57-77.636 0-140.57-62.935-140.57-140.57z" fill="none"/><path d="M6566.67776 216c0-71.423007 57.898313-129.32224 129.32224-129.32224 71.423007 0 129.32224 57.899233 129.32224 129.32224 0 71.423007-57.899233 129.32224-129.32224 129.32224-71.423927 0-129.32224-57.899233-129.32224-129.32224z" fill="#000000" fill-opacity=".080015"/><path d="M6700.004 108.03c-57.974-1.372-105.515 44.605-106 102.589-.207 24.645 8.215 47.308 22.404 65.187l-12.793 22.374c-4.288 7.494 1.124 16.82 9.759 16.82h83.276c57.572 0 104.988-47.107 104.344-104.676-.61-55.784-45.371-100.975-100.99-102.294z" fill="#ffffff"/><g><path d="M6652.859 264.315374c7.83 0 14.177-6.347 14.177-14.176 0-7.83-6.347-14.177-14.177-14.177-7.83 0-14.177 6.347-14.177 14.177 0 7.829 6.347 14.176 14.177 14.176z" fill="#7753ff" fill-opacity=".999632"/><path d="M6697.508 261.789058c7.829 0 14.177-6.347 14.177-14.176 0-7.83-6.348-14.177-14.177-14.177-7.83 0-14.178 6.347-14.178 14.177 0 7.829 6.348 14.176 14.178 14.176z" fill="#7753ff" fill-opacity=".967498"/><path d="M6742.233 255.262742c7.83 0 14.177-6.347 14.177-14.176 0-7.83-6.347-14.177-14.177-14.177-7.83 0-14.177 6.347-14.177 14.177 0 7.829 6.347 14.176 14.177 14.176z" fill="#7753ff" fill-opacity=".853963"/></g></g><g><path d="M6912 0h432v432h-432z" fill="#7152ff"/><path d="M6987.43 216c0-77.635 62.934-140.57 140.57-140.57 77.635 0 140.57 62.935 140.57 140.57 0 77.635-62.935 140.57-140.57 140.57-77.636 0-140.57-62.935-140.57-140.57z" fill="none"/><path d="M6995.380869 216c0-73.243838 59.37435-132.619131 132.619131-132.619131 73.243838 0 132.619131 59.375293 132.619131 132.619131 0 73.243838-59.375293 132.619131-132.619131 132.619131-73.244781 0-132.619131-59.375293-132.619131-132.619131z" fill="#000000" fill-opacity=".056562"/><path d="M7132.004 108.03c-57.974-1.372-105.515 44.605-106 102.589-.207 24.645 8.215 47.308 22.404 65.187l-12.793 22.374c-4.288 7.494 1.124 16.82 9.759 16.82h83.276c57.572 0 104.988-47.107 104.344-104.676-.61-55.784-45.371-100.975-100.99-102.294z" fill="#ffffff"/><path d="M7084.859 185.6493c7.83 0 14.177-6.347 14.177-14.177 0-7.829-6.347-14.177-14.177-14.177-7.83 0-14.177 6.348-14.177 14.177 0 7.83 6.347 14.177 14.177 14.177z" fill="#a98dff" fill-opacity=".029023"/><g><path d="M7084.859 264.35c7.83 0 14.177-6.347 14.177-14.176 0-7.83-6.347-14.177-14.177-14.177-7.83 0-14.177 6.347-14.177 14.177 0 7.829 6.347 14.176 14.177 14.176z" fill="#7753ff"/><path d="M7129.508 263.901247c7.829 0 14.177-6.347 14.177-14.176 0-7.83-6.348-14.177-14.177-14.177-7.83 0-14.178 6.347-14.178 14.177 0 7.829 6.348 14.176 14.178 14.176z" fill="#7753ff" fill-opacity=".994955"/><path d="M7174.233 260.00651c7.83 0 14.177-6.347 14.177-14.176 0-7.83-6.347-14.177-14.177-14.177-7.83 0-14.177 6.347-14.177 14.177 0 7.829 6.347 14.176 14.177 14.176z" fill="#7753ff" fill-opacity=".940743"/></g></g><g><path d="M7344 0h432v432h-432z" fill="#7152ff"/><path d="M7419.43 216c0-77.635 62.934-140.57 140.57-140.57 77.635 0 140.57 62.935 140.57 140.57 0 77.635-62.935 140.57-140.57 140.57-77.636 0-140.57-62.935-140.57-140.57z" fill="none"/><path d="M7424.654374 216c0-74.749645 60.595018-135.345626 135.345626-135.345626 74.749645 0 135.345626 60.59598 135.345626 135.345626 0 74.749645-60.59598 135.345626-135.345626 135.345626-74.750608 0-135.345626-60.59598-135.345626-135.345626z" fill="#000000" fill-opacity=".037166"/><path d="M7564.004 108.03c-57.974-1.372-105.515 44.605-106 102.589-.207 24.645 8.215 47.308 22.404 65.187l-12.793 22.374c-4.288 7.494 1.124 16.82 9.759 16.82h83.276c57.572 0 104.988-47.107 104.344-104.676-.61-55.784-45.371-100.975-100.99-102.294z" fill="#ffffff"/><path d="M7516.859 196.556501c7.83 0 14.177-6.347 14.177-14.177 0-7.829-6.347-14.177-14.177-14.177-7.83 0-14.177 6.348-14.177 14.177 0 7.83 6.347 14.177 14.177 14.177z" fill="#a98dff" fill-opacity=".20618"/><path d="M7561.508 179.293343c7.829 0 14.177-6.347 14.177-14.177 0-7.829-6.348-14.177-14.177-14.177-7.83 0-14.178 6.348-14.178 14.177 0 7.83 6.348 14.177 14.178 14.177z" fill="#a98dff" fill-opacity=".003046"/><g><path d="M7516.859 264.35c7.83 0 14.177-6.347 14.177-14.176 0-7.83-6.347-14.177-14.177-14.177-7.83 0-14.177 6.347-14.177 14.177 0 7.829 6.347 14.176 14.177 14.176zM7561.508 264.35c7.829 0 14.177-6.347 14.177-14.176 0-7.83-6.348-14.177-14.177-14.177-7.83 0-14.178 6.347-14.178 14.177 0 7.829 6.348 14.176 14.178 14.176z" fill="#7753ff"/><path d="M7606.233 263.018975c7.83 0 14.177-6.347 14.177-14.176 0-7.83-6.347-14.177-14.177-14.177-7.83 0-14.177 6.347-14.177 14.177 0 7.829 6.347 14.176 14.177 14.176z" fill="#7753ff" fill-opacity=".984104"/></g></g><g><path d="M7776 0h432v432h-432z" fill="#7152ff"/><path d="M7851.43 216c0-77.635 62.934-140.57 140.57-140.57 77.635 0 140.57 62.935 140.57 140.57 0 77.635-62.935 140.57-140.57 140.57-77.636 0-140.57-62.935-140.57-140.57z" fill="none"/><path d="M7854.498276 216c0-75.94043 61.560315-137.501724 137.501724-137.501724 75.94043 0 137.501724 61.561293 137.501724 137.501724 0 75.94043-61.561293 137.501724-137.501724 137.501724-75.941409 0-137.501724-61.561293-137.501724-137.501724z" fill="#000000" fill-opacity=".021827"/><path d="M7996.004 108.03c-57.974-1.372-105.515 44.605-106 102.589-.207 24.645 8.215 47.308 22.404 65.187l-12.793 22.374c-4.288 7.494 1.124 16.82 9.759 16.82h83.276c57.572 0 104.988-47.107 104.344-104.676-.61-55.784-45.371-100.975-100.99-102.294z" fill="#ffffff"/><path d="M7948.859 205.732402c7.83 0 14.177-6.347 14.177-14.177 0-7.829-6.347-14.177-14.177-14.177-7.83 0-14.177 6.348-14.177 14.177 0 7.83 6.347 14.177 14.177 14.177z" fill="#a98dff" fill-opacity=".544567"/><path d="M7993.508 191.100823c7.829 0 14.177-6.347 14.177-14.177 0-7.829-6.348-14.177-14.177-14.177-7.83 0-14.178 6.348-14.178 14.177 0 7.83 6.348 14.177 14.178 14.177z" fill="#a98dff" fill-opacity=".087313"/><g><path d="M7948.859 264.35c7.83 0 14.177-6.347 14.177-14.176 0-7.83-6.347-14.177-14.177-14.177-7.83 0-14.177 6.347-14.177 14.177 0 7.829 6.347 14.176 14.177 14.176zM7993.508 264.35c7.829 0 14.177-6.347 14.177-14.176 0-7.83-6.348-14.177-14.177-14.177-7.83 0-14.178 6.347-14.178 14.177 0 7.829 6.348 14.176 14.178 14.176z" fill="#7753ff"/><path d="M8038.233 264.300139c7.83 0 14.177-6.347 14.177-14.176 0-7.83-6.347-14.177-14.177-14.177-7.83 0-14.177 6.347-14.177 14.177 0 7.829 6.347 14.176 14.177 14.176z" fill="#7753ff" fill-opacity=".999468"/></g></g><g><path d="M8208 0h432v432h-432z" fill="#7152ff"/><path d="M8283.43 216c0-77.635 62.934-140.57 140.57-140.57 77.635 0 140.57 62.935 140.57 140.57 0 77.635-62.935 140.57-140.57 140.57-77.636 0-140.57-62.935-140.57-140.57z" fill="none"/><path d="M8284.912574 216c0-76.816193 62.270243-139.087426 139.087426-139.087426 76.816193 0 139.087426 62.271233 139.087426 139.087426S8500.816193 355.087426 8424 355.087426c-76.817183 0-139.087426-62.271233-139.087426-139.087426z" fill="#000000" fill-opacity=".010547"/><path d="M8428.056382 108.461643c-57.973327-1.400127-105.536628 44.553803-106.04976 102.53756-.218956 24.644897 8.192048 47.31198 22.372372 65.197863l-12.803854 22.36779c-4.291635 7.49192 1.11584 16.820544 9.750839 16.824733l83.27599.040402c57.571993.027932 105.010842-47.056058 104.394772-104.625364-.582935-55.78429-45.322005-100.997-100.940359-102.342984z" fill="#ffffff" fill-opacity=".987891"/><path d="M8380.860375 213.585758c7.829999.003798 14.180077-6.340122 14.183876-14.17012.003798-7.829-6.340121-14.180078-14.17012-14.183877-7.83-.003799-14.180078 6.341121-14.183877 14.17012-.003798 7.83 6.340122 14.180078 14.17012 14.183877z" fill="#a98dff" fill-opacity=".775561"/><path d="M8425.515191 201.60742c7.829.0038 14.180078-6.34012 14.183877-14.17012.003798-7.828998-6.341121-14.180077-14.17012-14.183876-7.83-.003799-14.181079 6.34112-14.184877 14.17012-.003799 7.829999 6.341121 14.180078 14.17112 14.183877z" fill="#a98dff" fill-opacity=".367296"/><path d="M8470.247949 185.629122c7.829999.003798 14.180077-6.340122 14.183876-14.17012.003798-7.829-6.340121-14.180078-14.17012-14.183877-7.83-.003799-14.180078 6.341121-14.183877 14.17012-.003798 7.83 6.340122 14.180078 14.17012 14.183877z" fill="#a98dff" fill-opacity=".025863"/><g><path d="M8380.835548 264.758752c7.829999.003798 14.180077-6.340122 14.183876-14.16912.003798-7.83-6.340122-14.180078-14.17012-14.183877-7.83-.003799-14.180078 6.340121-14.183877 14.17012-.003798 7.829 6.340122 14.179078 14.17012 14.182877zM8425.484542 264.780413c7.829.003799 14.180078-6.34012 14.183876-14.16912.0038-7.829999-6.34112-14.180078-14.17012-14.183876-7.829999-.003799-14.181078 6.34012-14.184876 14.17012-.003799 7.828999 6.341121 14.179078 14.17112 14.182876zM8470.209537 264.802112c7.83.003799 14.180078-6.34012 14.183876-14.16912.003799-7.83-6.340121-14.180078-14.17012-14.183876-7.83-.0038-14.180078 6.34012-14.183877 14.17012-.003798 7.828999 6.340122 14.179077 14.170121 14.182876z" fill="#7753ff"/></g></g><g><path d="M8640 0h432v432h-432z" fill="#7152ff"/><path d="M8715.43 216c0-77.635 62.934-140.57 140.57-140.57 77.635 0 140.57 62.935 140.57 140.57 0 77.635-62.935 140.57-140.57 140.57-77.636 0-140.57-62.935-140.57-140.57z" fill="none"/><path d="M8715.897269 216c0-77.376934 62.7248-140.102731 140.102731-140.102731 77.376934 0 140.102731 62.725797 140.102731 140.102731S8933.376934 356.102731 8856 356.102731c-77.37793 0-140.102731-62.725797-140.102731-140.102731z" fill="#000000" fill-opacity=".003324"/><path d="M8860.346499 111.429182c-57.969356-1.555908-105.655972 44.270044-106.324915 102.252214-.285182 24.64422 8.06488 47.333823 22.19709 65.257745l-12.863913 22.333304c-4.311752 7.480359 1.070635 16.82348 9.705592 16.850874l83.27558.264181c57.57171.182639 105.136912-46.773704 104.675545-104.344457-.43303-55.785654-45.050443-101.118425-100.664979-102.613861z" fill="#ffffff" fill-opacity=".973148"/><path d="M8812.850048 222.13936c7.82996.024839 14.197064-6.301994 14.221903-14.131955.024837-7.82896-6.301993-14.197063-14.131954-14.221903-7.82996-.02484-14.197067 6.302994-14.221903 14.131954-.02484 7.82996 6.301993 14.197064 14.131954 14.221903z" fill="#a98dff" fill-opacity=".898988"/><path d="M8857.528543 212.912628c7.82896.024836 14.197064-6.301994 14.221903-14.131954.024837-7.82896-6.302993-14.197067-14.131954-14.221903-7.82996-.02484-14.198066 6.30299-14.222903 14.13195-.02484 7.829961 6.302994 14.197068 14.132954 14.221907z" fill="#a98dff" fill-opacity=".673356"/><path d="M8902.295728 199.686158c7.82996.02484 14.197063-6.301994 14.221903-14.131954.024836-7.82896-6.301994-14.197064-14.131954-14.221903-7.829961-.02484-14.197067 6.302993-14.221904 14.131954-.02484 7.82996 6.301994 14.197063 14.131955 14.221903z" fill="#a98dff" fill-opacity=".194667"/><g><path d="M8812.705834 267.598834c7.82996.02484 14.197063-6.301993 14.2219-14.130954.02484-7.82996-6.301994-14.197063-14.131955-14.221903-7.82996-.02484-14.197063 6.301994-14.221903 14.131954-.024836 7.82896 6.301997 14.196064 14.131958 14.220903zM8857.354609 267.740477c7.82896.024836 14.197064-6.301994 14.2219-14.130954.02484-7.829961-6.302994-14.197067-14.131954-14.221904-7.82996-.024839-14.198064 6.30199-14.222903 14.131952-.024837 7.82896 6.302996 14.196066 14.132957 14.220906zM8902.079384 267.88236c7.82996.02484 14.197064-6.301993 14.2219-14.130954.02484-7.82996-6.301994-14.197063-14.131954-14.221903-7.82996-.02484-14.197064 6.301994-14.221903 14.131954-.024837 7.82896 6.301996 14.196064 14.131957 14.220903z" fill="#7753ff"/></g></g><g><path d="M9072 0h432v432h-432z" fill="#7152ff"/><path d="M9147.43 216c0-77.635 62.934-140.57 140.57-140.57 77.635 0 140.57 62.935 140.57 140.57 0 77.635-62.935 140.57-140.57 140.57-77.636 0-140.57-62.935-140.57-140.57z" fill="none"/><path d="M9147.45236 216c0-77.622651 62.923989-140.54764 140.54764-140.54764 77.622651 0 140.54764 62.924989 140.54764 140.54764S9365.622651 356.54764 9288 356.54764c-77.623651 0-140.54764-62.924989-140.54764-140.54764z" fill="#000000" fill-opacity=".000159"/><path d="M9293.049166 115.179278c-57.958-1.933233-105.941915 43.581325-106.988287 101.557912-.4456 24.64184 7.756584 47.385319 21.771816 65.400857l-13.009023 22.249091c-4.360355 7.452133.961098 16.830094 9.595694 16.913697l83.272096.80627c57.569302.557405 105.439164-46.08831 105.352571-103.660847-.069877-55.787291-44.391244-101.409544-99.994867-103.26698z" fill="#ffffff" fill-opacity=".959757"/><path d="M9244.794485 229.559734c7.829633.075809 14.237787-6.209443 14.313596-14.039076.0758-7.828633-6.209442-14.237786-14.039075-14.313595-7.829633-.07581-14.237797 6.210442-14.313596 14.039075-.07581 7.829633 6.209442 14.237787 14.039075 14.313596z" fill="#a98dff" fill-opacity=".964023"/><path d="M9289.506618 223.255494c7.828633.0758 14.237786-6.209442 14.313596-14.039075.0758-7.828633-6.210443-14.237796-14.039076-14.313596-7.829633-.075809-14.238796 6.210433-14.314595 14.039066-.07581 7.829633 6.210442 14.237796 14.040075 14.313605z" fill="#a98dff" fill-opacity=".844366"/><path d="M9334.333475 212.952178c7.829633.07581 14.237786-6.209442 14.313595-14.039075.0758-7.828633-6.209442-14.237787-14.039075-14.313596-7.829633-.07581-14.237796 6.210442-14.313596 14.039075-.075809 7.829633 6.209443 14.237787 14.039076 14.313596z" fill="#a98dff" fill-opacity=".532146"/><g><path d="M9244.392903 271.035499c7.829633.07581 14.237786-6.209442 14.313586-14.038076.075809-7.829633-6.209443-14.237786-14.039076-14.313595-7.829633-.07581-14.237786 6.209442-14.313595 14.039075-.0758 7.828633 6.209452 14.236787 14.039085 14.312596zM9289.03981 271.467786c7.828633.0758 14.237786-6.209443 14.313586-14.038076.07581-7.829633-6.210442-14.237796-14.039075-14.313595-7.829633-.07581-14.238787 6.209432-14.314596 14.039065-.0758 7.828633 6.210452 14.236796 14.040085 14.312606zM9333.762714 271.900808c7.829633.07581 14.237786-6.209442 14.313586-14.038075.075809-7.829633-6.209443-14.237787-14.039076-14.313596-7.829633-.07581-14.237786 6.209442-14.313595 14.039075-.0758 7.828633 6.209452 14.236787 14.039085 14.312596z" fill="#7753ff"/></g></g><g><path d="M9504 0h432v432h-432z" fill="#7152ff"/><path d="M9579.43 216c0-77.635 62.934-140.57 140.57-140.57 77.635 0 140.57 62.935 140.57 140.57 0 77.635-62.935 140.57-140.57 140.57-77.636 0-140.57-62.935-140.57-140.57z" fill="none"/><path d="M9726.221727 117.033234c-57.933568-2.562962-106.409268 42.427456-108.085623 100.389248-.713363 24.635543 7.241178 47.466813 21.059804 65.633595l-13.25004 22.106405c-4.441083 7.404308.778144 16.839545 9.41132 17.016977l83.258418 1.711159c57.559845 1.182992 105.93379-44.939756 106.472857-102.509834.536381-55.784756-43.286582-101.885966-98.866736-104.34755z" fill="#ffffff" fill-opacity=".947719"/><path d="M9678.467791 146.177282c7.828347.160891 14.304426-6.05435 14.465296-13.881697.160892-7.828347-6.05435-14.304425-13.882697-14.465317-7.828347-.16089-14.304425 6.05435-14.465316 13.882698-.16087 7.827347 6.05437 14.303425 13.882717 14.464316zM9767.822922 148.013743c7.828346.160892 14.304425-6.05435 14.465296-13.881697.16089-7.828347-6.05435-14.304425-13.882698-14.465316-7.828346-.160892-14.304425 6.05435-14.465316 13.882697-.16087 7.827347 6.05437 14.303425 13.882718 14.464316z" fill="#cabaff" fill-opacity=".022923"/><path d="M9676.680649 233.132758c7.828347.160891 14.304425-6.05435 14.465316-13.882697.160871-7.827347-6.05435-14.304425-13.882697-14.465317-7.828346-.16089-14.304445 6.05535-14.465316 13.882698-.160891 7.828346 6.05435 14.304425 13.882697 14.465316z" fill="#a98dff" fill-opacity=".993716"/><path d="M9721.404577 229.945811c7.827347.16087 14.304425-6.05435 14.465317-13.882697.16087-7.827347-6.05535-14.304446-13.882697-14.465316-7.828347-.160891-14.305446 6.05533-14.466317 13.882676-.16089 7.828347 6.05535 14.304446 13.883697 14.465337z" fill="#a98dff" fill-opacity=".93568"/><path d="M9766.286682 222.76127c7.828346.160892 14.304425-6.05435 14.465316-13.882696.16087-7.827347-6.05435-14.304426-13.882697-14.465317-7.828347-.160891-14.304446 6.05535-14.465316 13.882697-.160892 7.828347 6.05435 14.304426 13.882697 14.465317z" fill="#a98dff" fill-opacity=".768839"/><g><path d="M9675.87461 272.351492c7.828347.160892 14.304426-6.05435 14.465296-13.881697.160892-7.828347-6.05435-14.304425-13.882697-14.465316-7.828347-.160892-14.304425 6.05435-14.465316 13.882697-.16087 7.827347 6.05437 14.303425 13.882717 14.464316zM9720.514184 273.268942c7.827347.16087 14.304425-6.05435 14.465295-13.881697.160892-7.828347-6.05535-14.304446-13.882697-14.465317-7.828346-.16089-14.305425 6.05433-14.466316 13.882677-.16087 7.827347 6.05537 14.303446 13.883718 14.464337zM9765.22974 274.187954c7.828347.16089 14.304426-6.05435 14.465296-13.881698.160892-7.828347-6.05435-14.304425-13.882697-14.465316-7.828346-.160891-14.304425 6.05435-14.465316 13.882697-.16087 7.827347 6.05437 14.303425 13.882718 14.464317z" fill="#7753ff"/></g></g><g><path d="M9936 0h432v432h-432z" fill="#7152ff"/><path d="M10011.43 216c0-77.635 62.934-140.57 140.57-140.57 77.635 0 140.57 62.935 140.57 140.57 0 77.635-62.935 140.57-140.57 140.57-77.636 0-140.57-62.935-140.57-140.57z" fill="none"/><path d="M10159.369945 117.91107c-57.902992-3.179708-106.855012 41.291979-109.148463 99.232635-.975648 24.62655 6.73533 47.541228 20.359728 65.854123l-13.484683 21.964063c-4.519673 7.356598.598789 16.846876 9.229587 17.116226l83.235476 2.597617c57.543985 1.795835 106.406314-43.809201 107.558369-101.370275 1.13036-55.775883-42.199223-102.341116-97.750014-105.39439z" fill="#ffffff" fill-opacity=".937034"/><path d="M10111.057871 154.57215c7.82619.24424 14.368083-5.90169 14.612292-13.72688.24424-7.82619-5.90169-14.368082-13.72788-14.612323-7.82619-.24424-14.368083 5.90169-14.612323 13.72788-.244209 7.82519 5.901722 14.367083 13.727911 14.611323zM10200.38838 157.359981c7.82619.24424 14.368083-5.90169 14.612292-13.72688.24424-7.82619-5.90169-14.368083-13.72788-14.612323-7.82619-.24424-14.368082 5.90169-14.612323 13.72788-.244209 7.82519 5.901722 14.367083 13.727912 14.611323z" fill="#cabaff" fill-opacity=".183545"/><path d="M10108.57814 234.030233c7.82619.24424 14.368082-5.90169 14.612322-13.72788.24421-7.82519-5.90169-14.368082-13.72788-14.612322-7.82619-.24424-14.368113 5.90269-14.612322 13.72788-.24424 7.82619 5.90169 14.368082 13.72788 14.612322z" fill="#a98dff"/><path d="M10153.252461 233.915387c7.82519.244209 14.368083-5.90169 14.612323-13.72788.244209-7.82519-5.90269-14.368114-13.72788-14.612323-7.82619-.24424-14.369113 5.902659-14.613322 13.72785-.24424 7.826189 5.90269 14.368113 13.72888 14.612353z" fill="#a98dff" fill-opacity=".981809"/><path d="M10198.126437 229.839467c7.82619.24424 14.368083-5.90169 14.612323-13.72788.244209-7.82519-5.90169-14.368082-13.72788-14.612323-7.82619-.24424-14.368114 5.90269-14.612323 13.72788-.24424 7.82619 5.90169 14.368083 13.72788 14.612323z" fill="#a98dff" fill-opacity=".895389"/><g><path d="M10107.371818 272.684414c7.82619.24424 14.368083-5.90169 14.612291-13.72688.24424-7.82619-5.90169-14.368083-13.72788-14.612323-7.82619-.24424-14.368082 5.90169-14.612322 13.72788-.244209 7.82519 5.901721 14.367083 13.727911 14.611323zM10151.999091 274.077144c7.82519.24421 14.368083-5.90169 14.612292-13.72688.24424-7.82619-5.90269-14.368114-13.72788-14.612323-7.82619-.24424-14.369082 5.90166-14.613322 13.72785-.24421 7.82519 5.90272 14.367113 13.72891 14.611353zM10196.702327 275.472245c7.82619.24424 14.368083-5.90169 14.612292-13.72688.24424-7.82619-5.90169-14.368083-13.72788-14.612323-7.82619-.24424-14.368083 5.90169-14.612323 13.72788-.244209 7.82519 5.901722 14.367083 13.727911 14.611323z" fill="#7753ff"/></g></g><g><path d="M10368 0h432v432h-432z" fill="#7152ff"/><path d="M10443.43 216c0-77.635 62.934-140.57 140.57-140.57 77.635 0 140.57 62.935 140.57 140.57 0 77.635-62.935 140.57-140.57 140.57-77.636 0-140.57-62.935-140.57-140.57z" fill="none"/><path d="M10592.184421 118.25118c-57.877307-3.617243-107.164042 40.4832-109.895337 98.404866-1.161745 24.618473 6.375826 47.590776 19.861427 66.00612l-13.6503 21.861519c-4.575145 7.322229.471444 16.85092 9.09996 17.185494l83.213467 3.226629c57.528768 2.230696 106.73438-43.00374 108.321444-100.554464 1.551876-55.765746-41.424532-102.65713-96.950661-106.130164z" fill="#ffffff" fill-opacity=".927701"/><path d="M10542.945853 171.329772c7.82412.303383 14.412276-5.792929 14.71562-13.61605.303383-7.82412-5.792929-14.412276-13.617049-14.71566-7.82412-.303382-14.412276 5.79293-14.71566 13.61705-.303343 7.823121 5.792969 14.411277 13.617089 14.71466zM10632.25274 174.792675c7.82412.303383 14.412277-5.792929 14.715621-13.61605.303383-7.82412-5.792929-14.412276-13.61705-14.715659-7.82412-.303383-14.412276 5.79293-14.715658 13.61705-.303345 7.82312 5.792967 14.411277 13.617088 14.71466z" fill="#cabaff" fill-opacity=".519471"/><path d="M10540.516448 233.983147c7.82412.303383 14.412277-5.79293 14.71566-13.61705.303343-7.82312-5.79293-14.412276-13.61705-14.715659-7.82412-.303383-14.412315 5.793928-14.71566 13.61705-.303382 7.82412 5.79293 14.412276 13.61705 14.715659z" fill="#a98dff"/><path d="M10585.135355 235.62455c7.823121.303344 14.412277-5.79293 14.71566-13.61705.303343-7.82312-5.793929-14.412315-13.61705-14.715659-7.82412-.303382-14.413314 5.79389-14.716658 13.61701-.303383 7.824121 5.793928 14.412316 13.618048 14.715699z" fill="#a98dff" fill-opacity=".999046"/><path d="M10629.936891 234.517503c7.82412.303383 14.412277-5.79293 14.71566-13.61705.303343-7.82312-5.79293-14.412276-13.61705-14.715659-7.82412-.303383-14.412315 5.793929-14.71566 13.61705-.303382 7.82412 5.79293 14.412276 13.61705 14.715659z" fill="#a98dff" fill-opacity=".962203"/><g><path d="M10539.018016 272.627107c7.82412.303382 14.412277-5.79293 14.71562-13.61605.303384-7.82412-5.792928-14.412277-13.617049-14.71566-7.82412-.303383-14.412276 5.79293-14.715659 13.61705-.303344 7.82312 5.792968 14.411277 13.617088 14.71466zM10583.633489 274.357086c7.82312.303344 14.412276-5.79293 14.71562-13.61605.303383-7.82412-5.793928-14.412315-13.61705-14.71566-7.82412-.303382-14.413275 5.79289-14.716658 13.617011-.303344 7.823121 5.793967 14.411316 13.618088 14.714699zM10628.324904 276.09001c7.82412.303383 14.412276-5.79293 14.71562-13.61605.303383-7.82412-5.792929-14.412277-13.617049-14.71566-7.82412-.303382-14.412276 5.79293-14.71566 13.61705-.303343 7.82312 5.792969 14.411277 13.617089 14.71466z" fill="#7753ff"/></g></g><g><path d="M10800 0h432v432h-432z" fill="#7152ff"/><path d="M10875.43 216c0-77.635 62.934-140.57 140.57-140.57 77.635 0 140.57 62.935 140.57 140.57 0 77.635-62.935 140.57-140.57 140.57-77.636 0-140.57-62.935-140.57-140.57z" fill="none"/><path d="M11024.733187 118.475778c-57.858127-3.912063-107.368901 39.936705-110.395255 97.843705-1.287154 24.612235 6.133282 47.622641 19.524888 66.106452l-13.761502 21.79169c-4.61239 7.298825.385588 16.853104 9.012288 17.231633l83.195948 3.650535c57.516656 2.52376 106.952086-42.459402 108.832333-100.001292 1.835967-55.757116-40.900986-102.866844-96.4087-106.622723z" fill="#ffffff" fill-opacity=".919721"/><path d="M10974.693378 183.414845c7.822473.34324 14.441602-5.719427 14.784799-13.540901.34324-7.822474-5.719428-14.441603-13.5419-14.784844-7.822474-.34324-14.441604 5.719428-14.784844 13.541901-.343197 7.821474 5.719471 14.440604 13.541945 14.783844zM11063.981464 187.332696c7.822473.34324 14.441602-5.719428 14.784799-13.540902.34324-7.822473-5.719428-14.441602-13.5419-14.784843-7.822474-.34324-14.441603 5.719428-14.784844 13.5419-.343196 7.821475 5.719472 14.440604 13.541945 14.783845z" fill="#cabaff" fill-opacity=".761944"/><path d="M10972.476264 233.94301c7.822473.34324 14.441603-5.719427 14.784843-13.5419.343197-7.821475-5.719427-14.441603-13.5419-14.784843-7.822473-.34324-14.441647 5.720426-14.784843 13.5419-.34324 7.822473 5.719427 14.441603 13.5419 14.784843zM11017.082344 235.90027c7.821474.343196 14.441602-5.719428 14.784843-13.5419.343196-7.821475-5.720427-14.441647-13.5419-14.784844-7.822474-.34324-14.442646 5.720383-14.785843 13.541857-.34324 7.822473 5.720427 14.441646 13.5429 14.784887z" fill="#a98dff"/><path d="M11061.791126 237.250645c7.822473.34324 14.441602-5.719428 14.784843-13.5419.343197-7.821475-5.719428-14.441604-13.5419-14.784844-7.822474-.34324-14.441647 5.720427-14.784844 13.5419-.34324 7.822474 5.719428 14.441603 13.5419 14.784844z" fill="#a98dff" fill-opacity=".99304"/><g><path d="M10970.780972 272.578834c7.822473.34324 14.441603-5.719427 14.7848-13.540901.34324-7.822473-5.719428-14.441603-13.541901-14.784843-7.822473-.34324-14.441603 5.719427-14.784843 13.5419-.343197 7.821475 5.71947 14.440604 13.541944 14.783844zM11015.387052 274.536094c7.821474.343197 14.441602-5.719427 14.784799-13.540902.34324-7.822473-5.720427-14.441646-13.5419-14.784843-7.822474-.34324-14.442602 5.719384-14.785843 13.541857-.343196 7.821474 5.72047 14.440648 13.542944 14.783888zM11060.069058 276.496685c7.822473.34324 14.441603-5.719427 14.7848-13.540901.34324-7.822474-5.719428-14.441603-13.541901-14.784844-7.822473-.34324-14.441603 5.719428-14.784843 13.541901-.343197 7.821474 5.719471 14.440604 13.541944 14.783844z" fill="#7753ff"/></g></g><g><path d="M11232 0h432v432h-432z" fill="#7152ff"/><path d="M11307.43 216c0-77.635 62.934-140.57 140.57-140.57 77.635 0 140.57 62.935 140.57 140.57 0 77.635-62.935 140.57-140.57 140.57-77.636 0-140.57-62.935-140.57-140.57z" fill="none"/><path d="M11457.104587 119.85638c-57.844288-4.111607-107.506013 39.566125-110.732086 97.462342-1.37204 24.607649 5.968983 47.643513 19.296754 66.173405l-13.836585 21.744094c-4.637537 7.282872.327455 16.854333 8.952798 17.262615l83.182861 3.937478c57.50761 2.722134 107.097904-42.090244 109.176617-99.625307 2.028275-55.750452-40.54593-103.00731-96.040359-106.954627z" fill="#ffffff" fill-opacity=".913093"/><path d="M11406.534334 191.102856c7.821242.37022 14.461244-5.66958 14.831417-13.489824.37022-7.821243-5.66958-14.461245-13.490823-14.831465-7.821243-.37022-14.461245 5.66958-14.831465 13.490823-.370173 7.820244 5.669628 14.460246 13.49087 14.830466zM11495.808375 195.32866c7.821243.37022 14.461244-5.66958 14.831417-13.489824.37022-7.821242-5.66958-14.461244-13.490823-14.831464-7.821243-.37022-14.461245 5.66958-14.831465 13.490823-.370173 7.820244 5.669628 14.460246 13.490871 14.830466z" fill="#cabaff" fill-opacity=".891697"/><path d="M11404.4497 235.142678c7.821243.37022 14.461244-5.66958 14.831464-13.490823.370173-7.820244-5.66958-14.461245-13.490823-14.831465-7.821243-.37022-14.461292 5.67058-14.831465 13.490824-.37022 7.821242 5.669581 14.461244 13.490824 14.831464zM11449.048763 237.253784c7.820244.370173 14.461244-5.66958 14.831465-13.490824.370172-7.820243-5.67058-14.461291-13.490824-14.831464-7.821243-.37022-14.46229 5.670532-14.832463 13.490776-.37022 7.821243 5.67058 14.461292 13.491822 14.831512zM11493.723741 239.368483c7.821243.37022 14.461245-5.66958 14.831465-13.490824.370173-7.820243-5.669581-14.461244-13.490824-14.831464-7.821242-.37022-14.461291 5.67058-14.831464 13.490823-.37022 7.821243 5.66958 14.461245 13.490823 14.831465z" fill="#a98dff"/><g><path d="M11402.621153 273.772425c7.821243.37022 14.461244-5.66958 14.831417-13.489824.37022-7.821243-5.66958-14.461245-13.490823-14.831465-7.821243-.37022-14.461245 5.66958-14.831465 13.490823-.370173 7.820244 5.669628 14.460246 13.490871 14.830466zM11447.220216 275.88353c7.820244.370174 14.461245-5.66958 14.831417-13.489824.37022-7.821242-5.67058-14.461292-13.490823-14.831464-7.821243-.37022-14.462243 5.669533-14.832463 13.490776-.370173 7.820243 5.670626 14.460293 13.49187 14.830513zM11491.895194 277.99823c7.821243.37022 14.461245-5.66958 14.831418-13.489825.37022-7.821242-5.669581-14.461244-13.490824-14.831464-7.821242-.37022-14.461244 5.66958-14.831464 13.490823-.370173 7.820244 5.669628 14.460246 13.49087 14.830466z" fill="#7753ff"/></g></g><g><path d="M11664 0h432v432h-432z" fill="#7152ff"/><path d="M11739.43 216c0-77.635 62.934-140.57 140.57-140.57 77.635 0 140.57 62.935 140.57 140.57 0 77.635-62.935 140.57-140.57 140.57-77.636 0-140.57-62.935-140.57-140.57z" fill="none"/><path d="M11889.353659 121.807212c-57.834621-4.245432-107.597272 39.31728-110.957291 97.205877-1.428972 24.604408 5.858733 47.657196 19.143595 66.217875l-13.886858 21.712022c-4.654376 7.272122.288458 16.855045 8.912833 17.283283l83.173528 4.12993c57.501158 2.855184 107.195002-41.842336 109.40683-99.372436 2.157262-55.74561-40.30749-103.100846-95.792637-107.176551z" fill="#ffffff" fill-opacity=".907818"/><path d="M11838.448517 196.363756c7.820365.388315 14.474323-5.636106 14.86259-13.455472.388314-7.820366-5.636107-14.474324-13.456472-14.86264-7.820365-.388315-14.474324 5.636107-14.86264 13.456472-.388265 7.819366 5.636157 14.473325 13.456522 14.86164zM11927.712542 200.796105c7.820365.388316 14.474323-5.636106 14.86259-13.455472.388314-7.820365-5.636107-14.474324-13.456472-14.86264-7.820365-.388315-14.474324 5.636107-14.86264 13.456472-.388265 7.819366 5.636157 14.473325 13.456522 14.86164z" fill="#cabaff" fill-opacity=".960327"/><path d="M11836.432171 236.971372c7.820365.388315 14.474324-5.636106 14.862639-13.456471.388266-7.819367-5.636106-14.474324-13.456471-14.86264-7.820365-.388315-14.474374 5.637106-14.86264 13.456472-.388315 7.820365 5.636107 14.474324 13.456472 14.862639zM11881.02623 239.185662c7.819367.388266 14.474324-5.636106 14.86264-13.456471.388265-7.819367-5.637106-14.474374-13.456472-14.86264-7.820365-.388315-14.475372 5.637056-14.863638 13.456422-.388315 7.820366 5.637105 14.474374 13.45747 14.862689zM11925.696196 241.403721c7.820365.388315 14.474324-5.636106 14.862639-13.456471.388266-7.819367-5.636106-14.474324-13.456471-14.86264-7.820365-.388315-14.474374 5.637106-14.86264 13.456472-.388315 7.820365 5.636107 14.474324 13.456472 14.86264z" fill="#a98dff"/><g><path d="M11834.51425 275.596785c7.820366.388315 14.474324-5.636106 14.86259-13.455473.388315-7.820365-5.636106-14.474324-13.456472-14.862639-7.820365-.388315-14.474323 5.636106-14.862638 13.456471-.388266 7.819367 5.636155 14.473325 13.45652 14.86164zM11879.10831 277.811075c7.819366.388265 14.474323-5.636106 14.86259-13.455473.388314-7.820365-5.637106-14.474373-13.456472-14.862639-7.820365-.388315-14.475323 5.636057-14.863638 13.456422-.388266 7.819366 5.637155 14.473374 13.45752 14.86169zM11923.778275 280.029134c7.820366.388315 14.474324-5.636106 14.86259-13.455473.388315-7.820365-5.636106-14.474323-13.456472-14.862639-7.820365-.388315-14.474323 5.636106-14.862639 13.456472-.388265 7.819366 5.636156 14.473325 13.456521 14.86164z" fill="#7753ff"/></g></g><g><path d="M12096 0h432v432h-432z" fill="#7152ff"/><path d="M12171.43 216c0-77.635 62.934-140.57 140.57-140.57 77.635 0 140.57 62.935 140.57 140.57 0 77.635-62.935 140.57-140.57 140.57-77.636 0-140.57-62.935-140.57-140.57z" fill="none"/><path d="M12321.51385 122.775715c-57.828239-4.331504-107.65567 39.157097-111.101842 97.04063-1.46559 24.602254 5.787797 47.665862 19.04502 66.246293l-13.919157 21.69133c-4.665194 7.265187.263372 16.855456 8.8871 17.29653l83.16729 4.253713c57.496844 2.940761 107.257158-41.682749 109.554606-99.209492 2.240227-55.742338-40.153998-103.160723-95.633018-107.319004z" fill="#ffffff" fill-opacity=".903895"/><path d="M12270.416073 198.854296c7.819779.399954 14.482696-5.614558 14.8826-13.433338.399954-7.819778-5.614558-14.482696-13.434337-14.88265-7.819778-.399954-14.482696 5.614558-14.88265 13.434336-.399903 7.81878 5.614609 14.481697 13.434387 14.881652zM12359.673403 203.419494c7.819778.399954 14.482696-5.614558 14.882599-13.433338.399954-7.819778-5.614558-14.482696-13.434336-14.88265-7.819779-.399954-14.482696 5.614558-14.88265 13.434336-.399903 7.81878 5.614608 14.481697 13.434387 14.881652z" fill="#cabaff" fill-opacity=".992327"/><path d="M12268.421019 237.860984c7.819778.399954 14.482696-5.614558 14.88265-13.434336.399903-7.81878-5.614558-14.482696-13.434336-14.88265-7.819779-.399954-14.482747 5.615556-14.88265 13.434336-.399954 7.819778 5.614557 14.482696 13.434336 14.88265zM12313.011733 240.141642c7.81878.399903 14.482696-5.614558 14.88265-13.434336.399903-7.81878-5.615556-14.482747-13.434336-14.88265-7.819778-.399955-14.483746 5.615505-14.883649 13.434284-.399954 7.81978 5.615557 14.482748 13.435335 14.882702zM12357.678348 242.426182c7.819779.399954 14.482696-5.614558 14.88265-13.434336.399903-7.81878-5.614557-14.482696-13.434336-14.88265-7.819778-.399955-14.482747 5.615556-14.88265 13.434336-.399954 7.819778 5.614558 14.482696 13.434336 14.88265z" fill="#a98dff"/><g><path d="M12266.445613 276.4835c7.819779.399953 14.482696-5.614558 14.8826-13.433338.399953-7.819779-5.614558-14.482696-13.434337-14.88265-7.819778-.399954-14.482696 5.614557-14.88265 13.434336-.399903 7.81878 5.614609 14.481697 13.434387 14.881651zM12311.036327 278.764157c7.81878.399903 14.482696-5.614557 14.8826-13.433337.399954-7.819779-5.615557-14.482747-13.434337-14.88265-7.819778-.399954-14.483694 5.614506-14.883648 13.434285-.399903 7.81878 5.615607 14.481748 13.435385 14.881702zM12355.702943 281.048697c7.819778.399954 14.482696-5.614557 14.882599-13.433337.399954-7.819779-5.614558-14.482696-13.434336-14.88265-7.819779-.399954-14.482696 5.614557-14.88265 13.434336-.399904 7.81878 5.614608 14.481697 13.434387 14.881651z" fill="#7753ff"/></g></g><g><path d="M12528 0h432v432h-432z" fill="#7152ff"/><path d="M12603.43 216c0-77.635 62.934-140.57 140.57-140.57 77.635 0 140.57 62.935 140.57 140.57 0 77.635-62.935 140.57-140.57 140.57-77.636 0-140.57-62.935-140.57-140.57z" fill="none"/><path d="M12753.606503 123.2148c-57.824488-4.381287-107.68934 39.064399-111.185346 96.944943-1.48677 24.600984 5.746758 47.670829 18.98798 66.262666l-13.937826 21.679338c-4.671447 7.261168.24886 16.855677 8.872205 17.304175l83.163597 4.325313c57.494291 2.99026 107.293004-41.590393 109.639978-99.115138 2.288216-55.740387-40.06517-103.195254-95.540588-107.401296z" fill="#ffffff" fill-opacity=".901326"/><path d="M12702.42332 199.632518c7.819431.406687 14.487524-5.602086 14.894158-13.42052.406687-7.81943-5.602086-14.487523-13.421518-14.89421-7.819431-.406686-14.487524 5.602087-14.89421 13.421519-.406635 7.818432 5.602138 14.486525 13.42157 14.893211zM12791.676686 204.274559c7.819431.406686 14.487524-5.602087 14.894158-13.42052.406687-7.819431-5.602087-14.487524-13.421518-14.89421-7.819431-.406687-14.487524 5.602086-14.89421 13.421518-.406635 7.818432 5.602138 14.486525 13.42157 14.893212z" fill="#cabaff"/><path d="M12700.414612 238.254318c7.819431.406686 14.487524-5.602087 14.89421-13.421519.406635-7.818432-5.602086-14.487524-13.421518-14.89421-7.819431-.406686-14.487576 5.603085-14.89421 13.421518-.406687 7.819431 5.602086 14.487524 13.421518 14.89421zM12745.003346 240.573364c7.818433.406634 14.487524-5.602087 14.89421-13.421518.406635-7.818433-5.603085-14.487576-13.421518-14.89421-7.81943-.406687-14.488574 5.603033-14.895209 13.421465-.406686 7.819432 5.603086 14.487577 13.422517 14.894263zM12789.667978 242.896358c7.819431.406686 14.487524-5.602087 14.89421-13.421518.406635-7.818433-5.602087-14.487525-13.421518-14.89421-7.819431-.406687-14.487576 5.603085-14.89421 13.421517-.406687 7.819432 5.602086 14.487525 13.421518 14.89421z" fill="#a98dff"/><g><path d="M12698.405956 276.875118c7.819431.406686 14.487524-5.602087 14.894158-13.42052.406687-7.81943-5.602086-14.487524-13.421518-14.89421-7.819431-.406686-14.487524 5.602087-14.89421 13.421518-.406635 7.818433 5.602138 14.486526 13.42157 14.893212zM12742.99469 279.194164c7.818433.406635 14.487524-5.602086 14.894159-13.42052.406686-7.81943-5.603086-14.487575-13.421518-14.89421-7.819432-.406686-14.488523 5.602035-14.89521 13.421467-.406634 7.818432 5.603138 14.486577 13.42257 14.893263zM12787.659322 281.517158c7.819431.406687 14.487524-5.602087 14.894158-13.42052.406687-7.81943-5.602086-14.487524-13.421518-14.89421-7.819431-.406686-14.487524 5.602087-14.89421 13.421518-.406635 7.818433 5.602138 14.486526 13.42157 14.893212z" fill="#7753ff"/></g></g><g><path d="M12960 0h432v432h-432z" fill="#7152ff"/><path d="M13035.43 216c0-77.635 62.934-140.57 140.57-140.57 77.635 0 140.57 62.935 140.57 140.57 0 77.635-62.935 140.57-140.57 140.57-77.636 0-140.57-62.935-140.57-140.57z" fill="none"/><path d="M13185.645968 123.375356c-57.822877-4.402494-107.70366 39.024903-111.22089 96.904161-1.495792 24.600437 5.729275 47.672933 18.963678 66.269624l-13.945776 21.674226c-4.67411 7.259455.242679 16.855767 8.865858 17.307427l83.162005 4.355811c57.493191 3.011346 107.30825-41.551042 109.67632-99.074922 2.308658-55.739545-40.027322-103.20994-95.501195-107.436327z" fill="#ffffff" fill-opacity=".900108"/><path d="M13134.434764 199.774298c7.819282.409554 14.489578-5.596773 14.89908-13.415056.409553-7.819282-5.596774-14.489578-13.416056-14.899132-7.819281-.409554-14.489578 5.596774-14.899131 13.416055-.409502 7.818283 5.596825 14.48858 13.416107 14.898133zM13223.686422 204.44907c7.819281.409554 14.489577-5.596773 14.899079-13.415056.409554-7.819282-5.596774-14.489578-13.416055-14.899132-7.819282-.409554-14.489578 5.596773-14.899132 13.416055-.409501 7.818283 5.596826 14.48858 13.416108 14.898133z" fill="#cabaff"/><path d="M13132.411892 238.395358c7.819282.409554 14.489578-5.596773 14.899132-13.416055.409502-7.818283-5.596773-14.489578-13.416055-14.899132-7.819282-.409553-14.48963 5.597772-14.899132 13.416055-.409554 7.819282 5.596774 14.489578 13.416055 14.899132zM13176.999773 240.730756c7.818283.409502 14.489578-5.596773 14.899132-13.416055.409501-7.818283-5.597772-14.48963-13.416055-14.899131-7.819282-.409554-14.490629 5.59772-14.90013 13.416002-.409554 7.819282 5.597772 14.48963 13.417053 14.899184zM13221.66355 243.07013c7.819282.409554 14.489578-5.596774 14.899132-13.416055.409501-7.818283-5.596774-14.489578-13.416055-14.899132-7.819282-.409554-14.48963 5.597772-14.899132 13.416055-.409554 7.819282 5.596773 14.489578 13.416055 14.899132z" fill="#a98dff"/><g><path d="M13130.389073 277.01542c7.819282.409553 14.489578-5.596774 14.89908-13.415057.409553-7.819282-5.596774-14.489578-13.416056-14.899132-7.819281-.409554-14.489577 5.596774-14.899131 13.416055-.409502 7.818283 5.596825 14.48858 13.416107 14.898133zM13174.976954 279.350818c7.818283.409501 14.489578-5.596774 14.89908-13.415057.409553-7.819281-5.597773-14.48963-13.416056-14.899131-7.819282-.409554-14.490576 5.59672-14.90013 13.416002-.409502 7.818283 5.597824 14.488632 13.417106 14.898186zM13219.64073 281.690191c7.819282.409554 14.489579-5.596773 14.89908-13.415056.409554-7.819282-5.596773-14.489578-13.416055-14.899132s-14.489578 5.596774-14.899132 13.416055c-.409501 7.818283 5.596826 14.48858 13.416108 14.898133z" fill="#7753ff"/></g></g><g><path d="M13392 0h432v432h-432z" fill="#7152ff"/><path d="M13467.43 216c0-77.635 62.934-140.57 140.57-140.57 77.635 0 140.57 62.935 140.57 140.57 0 77.635-62.935 140.57-140.57 140.57-77.636 0-140.57-62.935-140.57-140.57z" fill="none"/><path d="M13616.79438 121.03936c-57.855895-3.944939-107.391578 39.875688-110.450836 97.78096-1.30114 24.611499 6.10622 47.626118 19.48732 66.117535l-13.773882 21.783867c-4.616536 7.296203.376011 16.85332 9.002494 17.236751l83.19386 3.69781c57.515214 2.556442 106.976197-42.39862 108.889141-99.939434 1.86765-55.756063-40.842527-102.890068-96.348098-106.677488z" fill="#ffffff" fill-opacity=".915166"/><path d="M13566.189143 197.841026c7.822277.347686 14.44485-5.71122 14.792491-13.532498.347686-7.822277-5.71122-14.44485-13.533497-14.792536-7.822277-.347685-14.44485 5.71122-14.792536 13.533497-.34764 7.821278 5.711265 14.443852 13.533542 14.791537zM13655.474988 201.809613c7.822277.347685 14.44485-5.71122 14.792492-13.532498.347685-7.822277-5.71122-14.44485-13.533498-14.792536-7.822276-.347685-14.44485 5.71122-14.792535 13.533497-.347641 7.821278 5.711264 14.443852 13.533541 14.791537z" fill="#cabaff"/><path d="M13564.471852 236.47688c7.822277.347685 14.44485-5.71122 14.792536-13.533497.347641-7.821278-5.71122-14.44485-13.533497-14.792536-7.822277-.347685-14.444895 5.71222-14.792536 13.533497-.347685 7.822277 5.71122 14.44485 13.533497 14.792536zM13609.076812 238.459486c7.821278.34764 14.44485-5.71122 14.792536-13.533497.347641-7.821278-5.71222-14.444895-13.533497-14.792536-7.822277-.347685-14.445894 5.712175-14.793535 13.533453-.347685 7.822277 5.71222 14.444895 13.534496 14.79258zM13653.757698 240.445467c7.822277.347685 14.44485-5.71122 14.792535-13.533497.347641-7.821278-5.71122-14.44485-13.533497-14.792536-7.822277-.347686-14.444894 5.71222-14.792535 13.533497-.347686 7.822277 5.71122 14.44485 13.533497 14.792536z" fill="#a98dff"/><g><path d="M13562.754606 275.111735c7.822277.347685 14.44485-5.71122 14.792491-13.532499.347686-7.822276-5.71122-14.44485-13.533497-14.792535-7.822277-.347686-14.44485 5.71122-14.792535 13.533497-.347641 7.821278 5.711264 14.443851 13.533541 14.791537zM13607.359566 277.09434c7.821278.347642 14.44485-5.71122 14.792492-13.532498.347685-7.822276-5.71222-14.444894-13.533498-14.792535-7.822276-.347686-14.445849 5.711176-14.793534 13.533452-.347641 7.821278 5.712263 14.443896 13.53454 14.791582zM13652.040452 279.080321c7.822276.347686 14.44485-5.71122 14.79249-13.532498.347686-7.822277-5.71122-14.44485-13.533496-14.792535-7.822277-.347686-14.44485 5.71122-14.792536 13.533497-.347641 7.821277 5.711265 14.443851 13.533542 14.791536z" fill="#7753ff"/></g></g><g><path d="M13824 0h432v432h-432z" fill="#7152ff"/><path d="M13899.43 216c0-77.635 62.934-140.57 140.57-140.57 77.635 0 140.57 62.935 140.57 140.57 0 77.635-62.935 140.57-140.57 140.57-77.636 0-140.57-62.935-140.57-140.57z" fill="none"/><path d="M14047.524765 117.567164c-57.898365-3.262873-106.914212 41.138456-109.290883 99.075757-1.011019 24.625124 6.667037 47.550854 20.265118 65.8833l-13.516218 21.94467c-4.530235 7.3501.57459 16.84772 9.204993 17.129466l83.23166 2.71717c57.541345 1.878486 106.469128-43.65632 107.70386-101.21568 1.210472-55.7742-42.052181-102.401622-97.59853-105.534683z" fill="#ffffff" fill-opacity=".937673"/><path d="M13997.828099 194.959845c7.82583.25548 14.376544-5.881047 14.631992-13.705878.255481-7.825831-5.881046-14.376545-13.706877-14.632026-7.825831-.25548-14.376545 5.881047-14.632026 13.706878-.255448 7.824831 5.88108 14.375545 13.70691 14.631026zM14087.154511 197.875982c7.825831.255481 14.376545-5.881046 14.631993-13.705878.255481-7.82583-5.881047-14.376544-13.706877-14.632025-7.825831-.255481-14.376545 5.881047-14.632026 13.706878-.255448 7.824831 5.88108 14.375544 13.70691 14.631025z" fill="#cabaff"/><path d="M13996.566225 233.613253c7.82583.25548 14.376544-5.881047 14.632025-13.706878.255448-7.824831-5.881047-14.376544-13.706877-14.632025-7.825831-.255481-14.376577 5.882046-14.632026 13.706877-.25548 7.825831 5.881047 14.376545 13.706878 14.632026zM14041.191451 235.070082c7.824832.255448 14.376545-5.881047 14.632026-13.706878.255448-7.824831-5.882046-14.376577-13.706878-14.632025-7.82583-.255481-14.377576 5.882013-14.633025 13.706845-.25548 7.82583 5.882046 14.376577 13.707877 14.632058zM14085.892637 236.52939c7.825831.255481 14.376545-5.881046 14.632026-13.706877.255448-7.824831-5.881047-14.376544-13.706878-14.632025-7.82583-.255481-14.376577 5.882046-14.632025 13.706877-.255481 7.825831 5.881046 14.376544 13.706877 14.632025z" fill="#a98dff"/><g><path d="M13995.304383 272.265661c7.825831.255481 14.376545-5.881046 14.631993-13.705878.255481-7.82583-5.881046-14.376544-13.706877-14.632025-7.825831-.255481-14.376545 5.881046-14.632026 13.706877-.255448 7.824832 5.88108 14.375545 13.70691 14.631026zM14039.92961 273.72249c7.824831.255449 14.376544-5.881046 14.631993-13.705878.25548-7.82583-5.882046-14.376577-13.706878-14.632025-7.82583-.255481-14.377544 5.881014-14.633025 13.706845-.255448 7.824831 5.88208 14.375577 13.70791 14.631058zM14084.630796 275.181799c7.825831.255481 14.376545-5.881047 14.631993-13.705878.255481-7.82583-5.881047-14.376544-13.706878-14.632025-7.82583-.255481-14.376544 5.881046-14.632025 13.706877-.255448 7.824832 5.88108 14.375545 13.70691 14.631026z" fill="#7753ff"/></g></g><g><path d="M14256 0h432v432h-432z" fill="#7152ff"/><path d="M14331.43 216c0-77.635 62.934-140.57 140.57-140.57 77.635 0 140.57 62.935 140.57 140.57 0 77.635-62.935 140.57-140.57 140.57-77.636 0-140.57-62.935-140.57-140.57z" fill="none"/><path d="M14478.449653 114.640841c-57.928022-2.685382-106.498688 42.202497-108.297524 100.160617-.765421 24.63398 7.140856 47.48201 20.92106 65.677952l-13.296726 22.078356c-4.456719 7.394906.742558 16.841152 9.37534 17.036827l83.254616 1.887097c57.557216 1.304624 106.02852-44.715797 106.689242-102.284607.654264-55.783499-43.07118-101.977212-98.646008-104.556242z" fill="#ffffff" fill-opacity=".956717"/><path d="M14429.527172 192.525221c7.82799.177434 14.317187-6.024109 14.494598-13.851098.177434-7.82799-6.024109-14.317188-13.852098-14.494621-7.82799-.177434-14.317187 6.024108-14.49462 13.852098-.177412 7.82699 6.02413 14.316187 13.85212 14.493621zM14518.878222 194.550503c7.827989.177433 14.317187-6.024109 14.494598-13.851099.177434-7.827989-6.024109-14.317187-13.852098-14.49462-7.82799-.177434-14.317187 6.024108-14.494621 13.852098-.177411 7.82699 6.024131 14.316187 13.85212 14.49362z" fill="#cabaff"/><path d="M14428.65079 231.18929c7.82799.177434 14.317187-6.024109 14.494621-13.852098.177411-7.82699-6.024109-14.317187-13.852098-14.494621-7.82799-.177434-14.31721 6.025108-14.494621 13.852098-.177434 7.82799 6.024109 14.317187 13.852098 14.49462zM14473.288325 232.20107c7.82699.17741 14.317187-6.024109 14.49462-13.852098.177412-7.82699-6.025108-14.31721-13.852097-14.494621-7.82799-.177434-14.31821 6.025086-14.495621 13.852075-.177434 7.82799 6.025108 14.31721 13.853098 14.494644zM14518.00184 233.214572c7.82799.177433 14.317187-6.024109 14.49462-13.852098.177412-7.82699-6.024108-14.317188-13.852097-14.494621-7.82799-.177434-14.31721 6.025108-14.494621 13.852098-.177434 7.82799 6.024109 14.317187 13.852098 14.49462z" fill="#a98dff"/><g><path d="M14427.77443 269.85236c7.82799.177433 14.317188-6.02411 14.4946-13.8511.177433-7.827988-6.02411-14.317186-13.852099-14.49462-7.82799-.177434-14.317187 6.024109-14.49462 13.852098-.177412 7.82699 6.02413 14.316188 13.85212 14.493621zM14472.411966 270.864139c7.82699.177411 14.317187-6.024109 14.494598-13.851098.177433-7.82799-6.025109-14.31721-13.852098-14.494621-7.82799-.177434-14.318187 6.024086-14.495621 13.852075-.177411 7.82699 6.025131 14.31621 13.85312 14.493644zM14517.12548 271.877641c7.82799.177434 14.317188-6.024109 14.494599-13.851098.177434-7.82799-6.024109-14.317188-13.852098-14.494621-7.82799-.177434-14.317187 6.024108-14.494621 13.852098-.177411 7.82699 6.024131 14.316187 13.85212 14.493621z" fill="#7753ff"/></g></g><g><path d="M14688 0h432v432h-432z" fill="#7152ff"/><path d="M14763.43 216c0-77.635 62.934-140.57 140.57-140.57 77.635 0 140.57 62.935 140.57 140.57 0 77.635-62.935 140.57-140.57 140.57-77.636 0-140.57-62.935-140.57-140.57z" fill="none"/><path d="M14909.569534 112.254554c-57.948003-2.212688-106.150835 43.06996-107.476762 101.040826-.56442 24.639406 7.528 47.422171 21.456197 65.505083l-13.116159 22.186101c-4.396239 7.43102.879931 16.834533 9.514023 16.959772l83.267241 1.207803c57.565944.835002 105.660179-45.57934 105.851205-103.151625.199134-55.78698-43.901726-101.622423-99.495745-103.74796z" fill="#ffffff" fill-opacity=".972299"/><path d="M14861.284099 190.535474c7.829176.113564 14.267563-6.140714 14.381112-13.96889.113563-7.829177-6.140715-14.267564-13.969891-14.381127-7.829177-.113564-14.267563 6.140714-14.381127 13.96989-.113548 7.828177 6.14073 14.266564 13.969906 14.380127zM14950.648698 191.83172c7.829177.113563 14.267564-6.140715 14.381112-13.968891.113564-7.829176-6.140714-14.267563-13.96989-14.381127-7.829177-.113563-14.267564 6.140715-14.381127 13.969892-.11355 7.828176 6.140729 14.266563 13.969905 14.380126z" fill="#cabaff"/><path d="M14860.723186 229.205406c7.829177.113564 14.267563-6.140714 14.381127-13.96989.113549-7.828177-6.140715-14.267564-13.969891-14.381127-7.829177-.113563-14.267578 6.141714-14.381127 13.96989-.113563 7.829177 6.140715 14.267564 13.969891 14.381127zM14905.36749 229.852978c7.828176.113549 14.267563-6.140714 14.381126-13.96989.11355-7.828177-6.141714-14.267579-13.96989-14.381127-7.829177-.113564-14.268578 6.1417-14.382127 13.969876-.113563 7.829177 6.141715 14.267578 13.97089 14.381141zM14950.087786 230.501652c7.829176.113564 14.267563-6.140714 14.381126-13.96989.113549-7.828177-6.140715-14.267564-13.96989-14.381127-7.829177-.113564-14.267579 6.141714-14.381127 13.96989-.113564 7.829177 6.140714 14.267564 13.96989 14.381127z" fill="#a98dff"/><g><path d="M14860.162288 267.874339c7.829176.113563 14.267563-6.140715 14.381112-13.968892.113563-7.829176-6.140715-14.267563-13.969891-14.381126-7.829176-.113563-14.267563 6.140715-14.381127 13.969891-.113548 7.828177 6.14073 14.266563 13.969906 14.380127zM14904.806592 268.52191c7.828176.11355 14.267563-6.140714 14.381112-13.96889.113563-7.829177-6.141715-14.267578-13.969891-14.381127-7.829177-.113564-14.268564 6.1407-14.382127 13.969876-.113549 7.828177 6.14173 14.266578 13.970906 14.380142zM14949.526887 269.170585c7.829177.113563 14.267564-6.140715 14.381112-13.968892.113564-7.829176-6.140714-14.267563-13.96989-14.381126-7.829177-.113563-14.267564 6.140715-14.381127 13.96989-.113549 7.828177 6.140729 14.266564 13.969905 14.380128z" fill="#7753ff"/></g></g><g><path d="M15120 0h432v432h-432z" fill="#7152ff"/><path d="M15195.43 216c0-77.635 62.934-140.57 140.57-140.57 77.635 0 140.57 62.935 140.57 140.57 0 77.635-62.935 140.57-140.57 140.57-77.636 0-140.57-62.935-140.57-140.57z" fill="none"/><path d="M15340.884738 110.403518c-57.960878-1.844934-105.875398 43.742673-106.833443 101.720787-.408059 24.64249 7.828766 47.373447 21.871428 65.367613l-12.975112 22.268884c-4.348997 7.458767.986737 16.82861 9.62145 16.899058l83.273228.679406c57.570084.4697 105.368827-46.24889 105.194524-103.821228-.154867-55.78712-44.545688-101.341798-100.152075-103.11452z" fill="#ffffff" fill-opacity=".984418"/><path d="M15293.097007 188.989258c7.82974.06388 14.22831-6.231126 14.292183-14.059866.06388-7.82974-6.231126-14.22831-14.060866-14.29219-7.829739-.063881-14.22831 6.231125-14.29219 14.060865-.063873 7.82874 6.231134 14.22731 14.060873 14.29119zM15382.468033 189.718414c7.82974.06388 14.22831-6.231126 14.292182-14.059866.063881-7.82974-6.231126-14.22831-14.060865-14.29219-7.82974-.063882-14.22831 6.231125-14.29219 14.060865-.063874 7.82874 6.231133 14.22731 14.060873 14.29119z" fill="#cabaff"/><path d="M15292.781486 227.66197c7.82974.063882 14.22831-6.231125 14.292191-14.060865.063873-7.82874-6.231126-14.22831-14.060865-14.29219-7.82974-.063882-14.228319 6.232125-14.292191 14.060865-.063881 7.82974 6.231126 14.22831 14.060865 14.29219zM15337.429 228.026239c7.82874.063872 14.22831-6.231126 14.292191-14.060866.063873-7.82874-6.232126-14.228318-14.060865-14.29219-7.82974-.063882-14.229318 6.232117-14.293191 14.060856-.063881 7.82974 6.232126 14.228319 14.061865 14.2922zM15382.152512 228.391126c7.82974.063881 14.22831-6.231126 14.29219-14.060865.063873-7.82874-6.231125-14.22831-14.060865-14.29219-7.82974-.063882-14.228318 6.232125-14.29219 14.060865-.063882 7.829739 6.231125 14.22831 14.060865 14.29219z" fill="#a98dff"/><g><path d="M15292.465973 266.333684c7.82974.06388 14.22831-6.231126 14.292183-14.059866.063881-7.82974-6.231126-14.22831-14.060865-14.29219-7.82974-.063882-14.22831 6.231125-14.292191 14.060865-.063873 7.82874 6.231134 14.22731 14.060873 14.29119zM15337.113487 266.697951c7.82874.063873 14.22831-6.231126 14.292183-14.059865.063881-7.82974-6.232126-14.228318-14.060865-14.29219-7.82974-.063882-14.22931 6.231117-14.293191 14.060856-.063873 7.82874 6.232134 14.227319 14.061873 14.2912zM15381.836999 267.06284c7.82974.06388 14.22831-6.231127 14.292183-14.059866.06388-7.82974-6.231126-14.22831-14.060866-14.292191-7.82974-.06388-14.22831 6.231126-14.29219 14.060865-.063873 7.82874 6.231134 14.22731 14.060873 14.291191z" fill="#7753ff"/></g></g><g><path d="M15552 0h432v432h-432z" fill="#7152ff"/><path d="M15627.43 216c0-77.635 62.934-140.57 140.57-140.57 77.635 0 140.57 62.935 140.57 140.57 0 77.635-62.935 140.57-140.57 140.57-77.636 0-140.57-62.935-140.57-140.57z" fill="none"/><path d="M15772.395475 109.08401c-57.968644-1.582206-105.676045 44.222107-106.371293 102.203967-.296362 24.644087 8.043406 47.337477 22.167483 65.267809l-12.874044 22.327465c-4.315145 7.478402 1.063003 16.823965 9.697946 16.855276l83.275453.30196c57.571621.208758 105.15812-46.726001 104.722871-104.296958-.407722-55.785845-45.004564-101.138852-100.618416-102.65952z" fill="#ffffff" fill-opacity=".993075"/><path d="M15724.964427 187.885542c7.829949.028391 14.199922-6.295553 14.22831-14.124501.028391-7.829949-6.295552-14.199921-14.125501-14.228313-7.829949-.028392-14.199921 6.295552-14.228313 14.1255-.028388 7.82895 6.295556 14.198922 14.125504 14.227314zM15814.33784 188.209614c7.829948.028391 14.199921-6.295552 14.22831-14.124501.02839-7.829949-6.295553-14.199921-14.125502-14.228313-7.829948-.028392-14.19992 6.295552-14.228312 14.1255-.028389 7.82895 6.295555 14.198922 14.125504 14.227314z" fill="#cabaff"/><path d="M15724.824195 226.559287c7.829948.028392 14.19992-6.295552 14.228313-14.1255.028388-7.828949-6.295553-14.199922-14.125501-14.228313-7.829949-.028392-14.199925 6.296552-14.228313 14.1255-.028392 7.829949 6.295552 14.199922 14.1255 14.228313zM15769.472901 226.721186c7.828949.028388 14.199921-6.295553 14.228313-14.125501.028388-7.828949-6.296552-14.199925-14.1255-14.228313-7.82995-.028392-14.200925 6.296549-14.229314 14.125497-.028391 7.829949 6.296553 14.199925 14.126501 14.228317zM15814.197607 226.88336c7.829949.028391 14.199921-6.295553 14.228313-14.125501.028388-7.828949-6.295552-14.199921-14.1255-14.228313-7.82995-.028392-14.199926 6.296552-14.228314 14.1255-.028391 7.829949 6.295553 14.199922 14.125501 14.228313z" fill="#a98dff"/><g><path d="M15724.683965 265.232033c7.829949.028392 14.199922-6.295552 14.22831-14.1245.028391-7.82995-6.295552-14.199922-14.125501-14.228314-7.829948-.028391-14.199921 6.295553-14.228313 14.125501-.028388 7.828949 6.295556 14.198921 14.125504 14.227313zM15769.332672 265.393931c7.828948.028388 14.199921-6.295552 14.22831-14.1245.028391-7.829949-6.296553-14.199925-14.125501-14.228313-7.829949-.028392-14.200922 6.295548-14.229313 14.125497-.028389 7.828948 6.296555 14.198925 14.126504 14.227316zM15814.057378 265.556105c7.829948.028392 14.199921-6.295552 14.22831-14.1245.02839-7.829949-6.295553-14.199922-14.125502-14.228313-7.829948-.028392-14.19992 6.295552-14.228312 14.1255-.028389 7.828949 6.295555 14.198921 14.125504 14.227313z" fill="#7753ff"/></g></g><g><path d="M15984 0h432v432h-432z" fill="#7152ff"/><path d="M16059.43 216c0-77.635 62.934-140.57 140.57-140.57 77.635 0 140.57 62.935 140.57 140.57 0 77.635-62.935 140.57-140.57 140.57-77.636 0-140.57-62.935-140.57-140.57z" fill="none"/><path d="M16204.101874 108.29337c-57.972732-1.424554-105.555391 44.50933-106.092954 102.492867-.229341 24.644803 8.172111 47.315428 22.344898 65.207283l-12.813277 22.362394c-4.294791 7.49011 1.108752 16.821012 9.743749 16.82884l83.275965.07549c57.571977.05219 105.03066-47.011808 104.438847-104.581369-.55943-55.78453-45.279447-101.016087-100.897228-102.385506z" fill="#ffffff" fill-opacity=".998269"/><path d="M16156.885304 187.2236c7.829997.007098 14.182748-6.334146 14.189845-14.163143.007098-7.829997-6.334146-14.182748-14.164143-14.189846-7.829997-.007098-14.182748 6.334146-14.189846 14.164143-.007097 7.828997 6.334147 14.181748 14.164144 14.188846zM16246.259267 187.304618c7.829997.007098 14.182748-6.334146 14.189845-14.163143.007098-7.829997-6.334146-14.182748-14.164143-14.189846-7.829997-.007098-14.182748 6.334146-14.189846 14.164143-.007097 7.828997 6.334147 14.181748 14.164144 14.188846z" fill="#cabaff"/><path d="M16156.850245 225.897584c7.829997.007098 14.182748-6.334146 14.189846-14.164143.007097-7.828997-6.334146-14.182748-14.164142-14.189846-7.829997-.007098-14.18275 6.335146-14.189846 14.164143-.007098 7.829997 6.334146 14.182748 14.164142 14.189846zM16201.499227 225.938058c7.828997.007097 14.182748-6.334146 14.189846-14.164142.007097-7.828997-6.335146-14.182749-14.164143-14.189846-7.829997-.007098-14.183748 6.335145-14.190846 14.164142-.007097 7.829996 6.335146 14.182748 14.165143 14.189846zM16246.224209 225.978602c7.829997.007098 14.182748-6.334146 14.189845-14.164143.007098-7.828997-6.334145-14.182748-14.164142-14.189845-7.829997-.007098-14.182749 6.335145-14.189846 14.164142-.007098 7.829997 6.334146 14.182748 14.164143 14.189846z" fill="#a98dff"/><g><path d="M16156.815188 264.570568c7.829997.007098 14.182748-6.334146 14.189845-14.163143.007098-7.829997-6.334146-14.182748-14.164143-14.189846-7.829996-.007098-14.182747 6.334146-14.189845 14.164143-.007097 7.828997 6.334146 14.181748 14.164143 14.188846zM16201.46417 264.611042c7.828997.007097 14.182748-6.334145 14.189845-14.163142.007098-7.829997-6.335146-14.182749-14.164143-14.189846-7.829997-.007098-14.183748 6.334145-14.190846 14.164142-.007097 7.828997 6.335147 14.181748 14.165144 14.188846zM16246.189151 264.651586c7.829997.007098 14.182748-6.334146 14.189845-14.163143.007098-7.829996-6.334146-14.182747-14.164142-14.189845-7.829997-.007098-14.182748 6.334145-14.189846 14.164142-.007097 7.828997 6.334147 14.181748 14.164143 14.188846z" fill="#7753ff"/></g></g><g><path d="M16416 0h432v432h-432z" fill="#7152ff"/><path d="M16491.43 216c0-77.635 62.934-140.57 140.57-140.57 77.635 0 140.57 62.935 140.57 140.57 0 77.635-62.935 140.57-140.57 140.57-77.636 0-140.57-62.935-140.57-140.57z" fill="none"/><path d="M16636.004 108.03c-57.974-1.372-105.515 44.605-106 102.589-.207 24.645 8.215 47.308 22.404 65.187l-12.793 22.374c-4.288 7.494 1.124 16.82 9.759 16.82h83.276c57.572 0 104.988-47.107 104.344-104.676-.61-55.784-45.371-100.975-100.99-102.294z" fill="#ffffff"/><path d="M16588.859 187.003c7.83 0 14.177-6.347 14.177-14.176 0-7.83-6.347-14.177-14.177-14.177-7.83 0-14.177 6.347-14.177 14.177 0 7.829 6.347 14.176 14.177 14.176zM16678.233 187.003c7.83 0 14.177-6.347 14.177-14.176 0-7.83-6.347-14.177-14.177-14.177-7.83 0-14.177 6.347-14.177 14.177 0 7.829 6.347 14.176 14.177 14.176z" fill="#cabaff"/><path d="M16588.859 225.677c7.83 0 14.177-6.347 14.177-14.177 0-7.829-6.347-14.177-14.177-14.177-7.83 0-14.177 6.348-14.177 14.177 0 7.83 6.347 14.177 14.177 14.177zM16633.508 225.677c7.829 0 14.177-6.347 14.177-14.177 0-7.829-6.348-14.177-14.177-14.177-7.83 0-14.178 6.348-14.178 14.177 0 7.83 6.348 14.177 14.178 14.177zM16678.233 225.677c7.83 0 14.177-6.347 14.177-14.177 0-7.829-6.347-14.177-14.177-14.177-7.83 0-14.177 6.348-14.177 14.177 0 7.83 6.347 14.177 14.177 14.177z" fill="#a98dff"/><g><path d="M16588.859 264.35c7.83 0 14.177-6.347 14.177-14.176 0-7.83-6.347-14.177-14.177-14.177-7.83 0-14.177 6.347-14.177 14.177 0 7.829 6.347 14.176 14.177 14.176zM16633.508 264.35c7.829 0 14.177-6.347 14.177-14.176 0-7.83-6.348-14.177-14.177-14.177-7.83 0-14.178 6.347-14.178 14.177 0 7.829 6.348 14.176 14.178 14.176zM16678.233 264.35c7.83 0 14.177-6.347 14.177-14.176 0-7.83-6.347-14.177-14.177-14.177-7.83 0-14.177 6.347-14.177 14.177 0 7.829 6.347 14.176 14.177 14.176z" fill="#7753ff"/></g></g></svg>