<svg width="512" height="512" viewBox="0 0 512 512" fill="none" xmlns="http://www.w3.org/2000/svg">
<path d="M262.43 64.0532C227.471 63.2125 192.996 72.3506 163.044 90.3969C133.091 108.443 108.902 134.651 93.3079 165.949C77.7142 197.248 71.3624 232.342 74.9964 267.121C78.6303 301.899 92.0997 334.923 113.827 362.322L107.234 373.888L91.0835 402.097C89.3437 405.136 88.4332 408.579 88.4433 412.08C88.4534 415.582 89.3836 419.019 91.1409 422.048C92.8981 425.077 95.4205 427.59 98.4554 429.337C101.49 431.084 104.931 432.002 108.433 432H256.489C358.839 432 443.124 348.254 441.989 245.897C441.444 198.233 422.422 152.639 388.929 118.72C355.436 84.8003 310.086 65.2023 262.43 64.0532Z" fill="url(#paint0_linear_313_2668)"/>
<path d="M262.43 64.0532C227.471 63.2125 192.996 72.3506 163.044 90.3969C133.091 108.443 108.902 134.651 93.3079 165.949C77.7142 197.248 71.3624 232.342 74.9964 267.121C78.6303 301.899 92.0997 334.923 113.827 362.322L107.234 373.888L91.0835 402.097C89.3437 405.136 88.4332 408.579 88.4433 412.08C88.4534 415.582 89.3836 419.019 91.1409 422.048C92.8981 425.077 95.4205 427.59 98.4554 429.337C101.49 431.084 104.931 432.002 108.433 432H256.489C358.839 432 443.124 348.254 441.989 245.897C441.444 198.233 422.422 152.639 388.929 118.72C355.436 84.8003 310.086 65.2023 262.43 64.0532Z" fill="url(#paint1_linear_313_2668)"/>
<path d="M262.43 64.0532C227.471 63.2125 192.996 72.3506 163.044 90.3969C133.091 108.443 108.902 134.651 93.3079 165.949C77.7142 197.248 71.3624 232.342 74.9964 267.121C78.6303 301.899 92.0997 334.923 113.827 362.322L107.234 373.888L91.0835 402.097C89.3437 405.136 88.4332 408.579 88.4433 412.08C88.4534 415.582 89.3836 419.019 91.1409 422.048C92.8981 425.077 95.4205 427.59 98.4554 429.337C101.49 431.084 104.931 432.002 108.433 432H256.489C358.839 432 443.124 348.254 441.989 245.897C441.444 198.233 422.422 152.639 388.929 118.72C355.436 84.8003 310.086 65.2023 262.43 64.0532Z" fill="url(#paint2_linear_313_2668)"/>
<path d="M262.43 64.0532C227.471 63.2125 192.996 72.3506 163.044 90.3969C133.091 108.443 108.902 134.651 93.3079 165.949C77.7142 197.248 71.3624 232.342 74.9964 267.121C78.6303 301.899 92.0997 334.923 113.827 362.322L107.234 373.888L91.0835 402.097C89.3437 405.136 88.4332 408.579 88.4433 412.08C88.4534 415.582 89.3836 419.019 91.1409 422.048C92.8981 425.077 95.4205 427.59 98.4554 429.337C101.49 431.084 104.931 432.002 108.433 432H256.489C358.839 432 443.124 348.254 441.989 245.897C441.444 198.233 422.422 152.639 388.929 118.72C355.436 84.8003 310.086 65.2023 262.43 64.0532Z" fill="url(#paint3_linear_313_2668)"/>
<g style="mix-blend-mode:multiply">
<g filter="url(#filter0_d_313_2668)">
<path d="M256.375 338.4L243.325 326.7C228.175 313.05 215.65 301.275 205.75 291.375C195.85 281.475 187.975 272.588 182.125 264.713C176.275 256.838 172.188 249.6 169.862 243C167.538 236.4 166.375 229.65 166.375 222.75C166.375 208.65 171.1 196.875 180.55 187.425C190 177.975 201.775 173.25 215.875 173.25C223.675 173.25 231.1 174.9 238.15 178.2C245.2 181.5 251.275 186.15 256.375 192.15C261.475 186.15 267.55 181.5 274.6 178.2C281.65 174.9 289.075 173.25 296.875 173.25C310.975 173.25 322.75 177.975 332.2 187.425C341.65 196.875 346.375 208.65 346.375 222.75C346.375 229.65 345.212 236.4 342.887 243C340.562 249.6 336.475 256.838 330.625 264.713C324.775 272.588 316.9 281.475 307 291.375C297.1 301.275 284.575 313.05 269.425 326.7L256.375 338.4Z" fill="url(#paint4_linear_313_2668)"/>
</g>
</g>
<defs>
<filter id="filter0_d_313_2668" x="156.075" y="168.95" width="200.6" height="185.75" filterUnits="userSpaceOnUse" color-interpolation-filters="sRGB">
<feFlood flood-opacity="0" result="BackgroundImageFix"/>
<feColorMatrix in="SourceAlpha" type="matrix" values="0 0 0 0 0 0 0 0 0 0 0 0 0 0 0 0 0 0 127 0" result="hardAlpha"/>
<feOffset dy="6"/>
<feGaussianBlur stdDeviation="5.15"/>
<feComposite in2="hardAlpha" operator="out"/>
<feColorMatrix type="matrix" values="0 0 0 0 0.854902 0 0 0 0 0.145098 0 0 0 0 0.419608 0 0 0 0.25 0"/>
<feBlend mode="screen" in2="BackgroundImageFix" result="effect1_dropShadow_313_2668"/>
<feBlend mode="normal" in="SourceGraphic" in2="effect1_dropShadow_313_2668" result="shape"/>
</filter>
<linearGradient id="paint0_linear_313_2668" x1="257.993" y1="432" x2="257.993" y2="64.0006" gradientUnits="userSpaceOnUse">
<stop stop-color="#7661FF"/>
<stop offset="1" stop-color="#9C75FF"/>
</linearGradient>
<linearGradient id="paint1_linear_313_2668" x1="383.673" y1="465.673" x2="132.327" y2="30.3266" gradientUnits="userSpaceOnUse">
<stop offset="0.13" stop-color="#553BFF"/>
<stop offset="0.86" stop-color="#9064FF"/>
</linearGradient>
<linearGradient id="paint2_linear_313_2668" x1="257.993" y1="432" x2="257.993" y2="63.9957" gradientUnits="userSpaceOnUse">
<stop stop-color="#FFDAF5"/>
<stop offset="0.56" stop-color="white"/>
</linearGradient>
<linearGradient id="paint3_linear_313_2668" x1="257.993" y1="432" x2="257.993" y2="63.9957" gradientUnits="userSpaceOnUse">
<stop stop-color="#E1D6FF"/>
<stop offset="1" stop-color="white"/>
</linearGradient>
<linearGradient id="paint4_linear_313_2668" x1="256.375" y1="173.25" x2="256.375" y2="338.4" gradientUnits="userSpaceOnUse">
<stop stop-color="#FF9C7D"/>
<stop offset="1" stop-color="#EC1D69"/>
</linearGradient>
</defs>
</svg>
