<svg width="512" height="512" viewBox="0 0 512 512" fill="none" xmlns="http://www.w3.org/2000/svg">
<path fill-rule="evenodd" clip-rule="evenodd" d="M163.044 90.3969C192.996 72.3506 227.471 63.2125 262.43 64.0532C310.086 65.2023 355.436 84.8003 388.929 118.72C422.422 152.639 441.444 198.233 441.989 245.897C443.124 348.254 358.839 432 256.489 432H108.433C104.931 432.002 101.49 431.084 98.4554 429.337C95.4205 427.59 92.8981 425.077 91.1409 422.048C89.3836 419.019 88.4534 415.582 88.4433 412.08C88.4332 408.579 89.3437 405.136 91.0835 402.097L107.234 373.888L113.827 362.322C92.0997 334.923 78.6303 301.899 74.9964 267.121C71.3624 232.342 77.7142 197.248 93.3079 165.949C108.902 134.651 133.091 108.443 163.044 90.3969ZM243.325 326.7L256.375 338.4L269.425 326.7C284.575 313.05 297.1 301.275 307 291.375C316.9 281.475 324.775 272.588 330.625 264.713C336.475 256.838 340.563 249.6 342.888 243C345.213 236.4 346.375 229.65 346.375 222.75C346.375 208.65 341.65 196.875 332.2 187.425C322.75 177.975 310.975 173.25 296.875 173.25C289.075 173.25 281.65 174.9 274.6 178.2C267.55 181.5 261.475 186.15 256.375 192.15C251.275 186.15 245.2 181.5 238.15 178.2C231.1 174.9 223.675 173.25 215.875 173.25C201.775 173.25 190 177.975 180.55 187.425C171.1 196.875 166.375 208.65 166.375 222.75C166.375 229.65 167.538 236.4 169.863 243C172.188 249.6 176.275 256.838 182.125 264.713C187.975 272.588 195.85 281.475 205.75 291.375C215.65 301.275 228.175 313.05 243.325 326.7Z" fill="black"/>
</svg>
