<?xml version="1.0" encoding="UTF-8"?>
<svg width="470" height="470" fill="none" version="1.1" viewBox="0 0 470 470" xmlns="http://www.w3.org/2000/svg">
 <path d="m240.67 0.067143c-131.63-3.102-239.57 101.28-240.67 232.95-0.47 55.956 18.639 107.42 50.867 148l-29.046 50.8c-9.7223 17.014 2.5648 38.191 22.17 38.191h189.07c130.71 0 238.36-106.96 236.91-237.66-1.397-126.67-103.02-229.28-229.31-232.27zm-107.04 354.94c-17.78 0-32.202-14.422-32.202-32.202 0-17.779 14.422-32.188 32.202-32.188 17.779 0 32.188 14.409 32.188 32.188 0 17.78-14.409 32.202-32.188 32.202zm0-87.809c-17.78 0-32.202-14.423-32.202-32.202s14.422-32.188 32.202-32.188c17.779 0 32.188 14.409 32.188 32.188s-14.409 32.202-32.188 32.202zm0-87.81c-17.78 0-32.202-14.409-32.202-32.188s14.422-32.202 32.202-32.202c17.779 0 32.188 14.423 32.188 32.202s-14.409 32.188-32.188 32.188zm101.37 175.62c-17.78 0-32.188-14.422-32.188-32.202 0-17.779 14.408-32.188 32.188-32.188 17.779 0 32.202 14.409 32.202 32.188 0 17.78-14.423 32.202-32.202 32.202zm0-87.809c-17.78 0-32.188-14.423-32.188-32.202s14.408-32.188 32.188-32.188c17.779 0 32.202 14.409 32.202 32.188s-14.423 32.202-32.202 32.202zm101.56 87.809c-17.793 0-32.202-14.422-32.202-32.202 0-17.779 14.409-32.188 32.202-32.188s32.188 14.409 32.188 32.188c0 17.78-14.408 32.202-32.188 32.202zm0-87.809c-17.793 0-32.202-14.423-32.202-32.202s14.409-32.188 32.202-32.188 32.188 14.409 32.188 32.188-14.408 32.202-32.188 32.202zm0-87.81c-17.793 0-32.202-14.409-32.202-32.188s14.409-32.202 32.202-32.202 32.188 14.423 32.188 32.202-14.408 32.188-32.188 32.188z" fill="#000"/>
</svg>
