<?xml version="1.0" encoding="UTF-8"?>
<svg width="470" height="470" fill="none" version="1.1" viewBox="0 0 470 470" xmlns="http://www.w3.org/2000/svg">
 <path d="m240.7 0.099609c-131.7-3.1-239.6 101.2-240.7 232.9-0.5 56 18.6 107.4 50.9 148-9.6788 16.927-19.337 33.865-29 50.801-9.7 17 2.5992 38.199 22.199 38.199h189.1c130.7 0 238.4-107 236.9-237.7-1.5-126.6-103.2-229.2-229.4-232.2zm70.602 124.6 39.1 38.701c3.7 3.5 5.6 8.4004 5.5 13.4-0.63007 15.752-19.795 22.888-30.9 12.1l-8-7.9004v151.8c0 23.197-36.6 23.067-36.6 0v-151.8l-8 7.9004c-17.919 16.247-40.98-8.3138-25.5-25.5l39.1-38.701c6.991-6.8912 18.31-6.891 25.301 0zm-140-5.0996c10.1 0 18.299 8.0012 18.299 17.701v151.7l8-7.9004c17.919-16.247 40.98 8.3138 25.5 25.5l-39.1 38.701c-7 6.9-18.301 6.9-25.301 0l-39.1-38.701c-3.7-3.5-5.6-8.4004-5.5-13.4 0.63007-15.752 19.795-22.888 30.9-12.1l8 7.9004v-151.7c0-9.8 8.2008-17.701 18.301-17.701z" fill="#000"/>
</svg>
