<?xml version="1.0" encoding="UTF-8"?>
<svg width="470" height="470" fill="none" version="1.1" viewBox="0 0 470 470" xmlns="http://www.w3.org/2000/svg">
 <path d="m240.66 0.067957c-138.53-3.3317-254.34 116.24-239.39 259.35 4.64 44.418 21.841 86.595 49.589 121.59-9.6973 16.894-19.33 33.825-28.98 50.746-2.232 3.884-3.4028 8.286-3.3947 12.766 8e-3 4.479 1.1946 8.877 3.4405 12.753 4.566 7.8777 13.015 12.738 22.118 12.728h189.02c130.72 0 238.37-106.96 236.92-237.68-1.4373-126.26-103.08-229.21-229.32-232.26zm-76.378 312.85c0 18.172-14.804 32.974-32.975 32.974-17.192-0.0318-32.958-13.956-32.916-33.047v-155.69c0-18.178 14.808-32.974 32.975-32.974 18.16 0.0166 32.945 14.812 32.945 32.974zm103.65 0c0 18.172-14.804 32.974-32.975 32.974-18.175 0-32.975-14.806-32.975-32.974v-89.932c0-18.168 14.801-32.974 32.975-32.974 18.172 0 32.975 14.802 32.975 32.974zm103.65-0.073c0 18.169-14.801 32.974-32.975 32.974-18.163-0.0166-32.952-14.812-32.96-32.974v-155.69c8e-3 -18.176 14.817-32.974 32.989-32.974 18.163 0.0166 32.946 14.815 32.946 32.974z" fill="#000"/>
</svg>
