<?xml version="1.0" encoding="UTF-8"?>
<svg width="470" height="470" fill="none" version="1.1" viewBox="0 0 470 470" xmlns="http://www.w3.org/2000/svg">
 <path d="m240.66 0.069986c-131.62-3.12-239.56 101.27-240.66 232.93-0.46 55.96 18.65 107.42 50.87 148l-8.42 14.72-20.62 36.07c-9.73 17.02 2.56 38.2 22.16 38.2h189.07c130.72 0 238.37-106.96 236.91-237.67-1.39-126.66-103.02-229.26-229.31-232.25zm130.28 252.74c-10.078 76.774-80.851 127.66-153.78 118.12-55.81-7.32-100.93-47.27-114.95-101.79-12.75-49.59 3.32-102.34 41.02-136.34h-27.9c-22.813 0-22.826-34.92 0-34.92h74.78c9.63 0 17.46 7.83 17.46 17.46v74.79c0 22.821-34.92 22.821-34.92 0v-36.47c-32.18 24.71-46.867 66.992-36.63 106.81 10.443 40.622 44.08 70.4 85.68 75.86 55.87 7.31 107.29-32.19 114.62-88.05 3.54-27.08-3.66-53.91-20.28-75.53-16.63-21.65-40.69-35.53-67.76-39.08-22.748-2.9322-18.03-37.589 4.53-34.61 76.191 9.9881 127.7 79.85 118.12 153.75z" fill="#000"/>
</svg>
