<?xml version="1.0" encoding="UTF-8"?>
<svg width="470" height="470" fill="none" version="1.1" viewBox="0 0 470 470" xmlns="http://www.w3.org/2000/svg">
 <g clip-path="url(#a)" fill="#000">
  <path d="m235 255.82c-15.86 0-28.78 12.91-28.78 28.78s12.91 28.78 28.78 28.78 28.78-12.91 28.78-28.78-12.91-28.78-28.78-28.78z"/>
  <path d="m240.66 0.069986c-131.62-3.12-239.56 101.27-240.66 232.93-0.46 55.96 18.65 107.42 50.87 148-9.6847 16.927-19.361 33.859-29.04 50.79-9.73 17.02 2.56 38.2 22.16 38.2h189.08c130.72 0 238.37-106.96 236.91-237.67-1.4-126.66-103.03-229.26-229.32-232.25zm109.45 327.7c0 23.8-19.36 43.17-43.17 43.17h-143.89c-23.8 0-43.17-19.36-43.17-43.17v-86.33c0-23.8 19.36-43.17 43.17-43.17h115.11v-40.57c0-23.8-19.36-43.17-43.17-43.17s-43.17 19.36-43.17 43.17c0 7.95-6.44 14.39-14.39 14.39s-14.39-6.44-14.39-14.39c0-39.67 32.28-71.94 71.94-71.94s71.94 32.28 71.94 71.94v40.57c23.8 0 43.17 19.36 43.17 43.17v86.33z"/>
 </g>
 <defs>
  <clipPath id="a">
   <rect width="470" height="470" fill="#fff"/>
  </clipPath>
 </defs>
</svg>
