<svg width="512" height="512" viewBox="0 0 512 512" fill="none" xmlns="http://www.w3.org/2000/svg">
<path fill-rule="evenodd" clip-rule="evenodd" d="M295.942 108.823L287.285 117.248L290.614 136.64L290.614 136.642C290.933 138.499 290.753 140.406 290.092 142.17C289.43 143.935 288.311 145.492 286.849 146.681C285.387 147.871 283.635 148.65 281.773 148.939C279.911 149.227 278.005 149.016 276.251 148.325L276.069 148.253L275.358 147.926L257.824 138.686L240.414 147.84C238.748 148.717 236.879 149.135 234.998 149.052C233.117 148.969 231.292 148.388 229.709 147.367C228.127 146.347 226.844 144.924 225.992 143.245C225.141 141.566 224.75 139.691 224.862 137.812L224.874 137.607L224.966 136.823L228.324 117.248L219.748 108.9C204.216 112.725 189.268 118.876 175.429 127.213C149.384 142.906 128.349 165.695 114.789 192.911C101.23 220.127 95.7064 250.644 98.8664 280.886C102.026 311.128 113.739 339.844 132.632 363.67L126.899 373.727L112.855 398.257C111.342 400.9 110.551 403.893 110.559 406.938C110.568 409.983 111.377 412.972 112.905 415.605C114.433 418.239 116.627 420.425 119.266 421.944C121.905 423.463 124.896 424.261 127.941 424.259H256.686C345.686 424.259 418.978 351.437 417.99 262.431C417.517 220.983 400.976 181.337 371.851 151.842C350.866 130.589 324.527 115.802 295.942 108.823ZM188.927 175.564C188.523 175.564 188.122 175.645 187.748 175.802C187.374 175.958 187.035 176.188 186.748 176.478C186.547 176.682 186.375 176.913 186.237 177.164C184.439 177.455 183.217 178.028 183.217 178.687L183.217 178.7V183.324C173.909 185.855 167.065 194.365 167.065 204.474C167.065 216.578 176.877 226.39 188.98 226.39C201.084 226.39 210.896 216.578 210.896 204.474C210.896 194.327 203.999 185.79 194.637 183.296V178.687H194.637V178.687C194.637 178.028 193.415 177.455 191.618 177.164C191.479 176.913 191.307 176.682 191.106 176.478C190.82 176.188 190.48 175.958 190.106 175.802C189.732 175.645 189.332 175.564 188.927 175.564ZM190.617 177.038C190.607 177.027 190.596 177.016 190.586 177.006C190.368 176.785 190.109 176.61 189.825 176.49C189.54 176.371 189.235 176.309 188.927 176.309C188.619 176.309 188.314 176.371 188.03 176.49C187.745 176.61 187.487 176.785 187.269 177.006L187.247 177.027L187.237 177.038C187.771 176.988 188.339 176.961 188.927 176.961C189.515 176.961 190.083 176.988 190.617 177.038ZM188.248 235.802C188.622 235.645 189.023 235.564 189.427 235.564C189.832 235.564 190.233 235.645 190.607 235.802C190.98 235.959 191.32 236.189 191.606 236.479C191.808 236.683 191.98 236.914 192.118 237.165C193.915 237.455 195.138 238.028 195.138 238.687V238.687H195.138V243.296C204.5 245.79 211.396 254.327 211.396 264.474C211.396 276.578 201.584 286.39 189.481 286.39C177.377 286.39 167.565 276.578 167.565 264.474C167.565 254.365 174.41 245.855 183.717 243.325V238.701L183.717 238.687C183.717 238.028 184.94 237.455 186.737 237.165C186.875 236.914 187.047 236.683 187.249 236.479C187.535 236.189 187.875 235.959 188.248 235.802ZM191.086 237.006C191.097 237.016 191.107 237.027 191.117 237.038C190.583 236.988 190.016 236.961 189.427 236.961C188.839 236.961 188.272 236.988 187.738 237.038C187.748 237.027 187.758 237.016 187.769 237.006C187.987 236.785 188.245 236.61 188.53 236.491C188.815 236.371 189.12 236.31 189.427 236.31C189.735 236.31 190.04 236.371 190.325 236.491C190.61 236.61 190.868 236.785 191.086 237.006ZM258.124 235.565C257.72 235.565 257.319 235.646 256.945 235.803C256.571 235.96 256.232 236.189 255.946 236.479C255.744 236.683 255.572 236.914 255.434 237.165C253.637 237.456 252.414 238.028 252.414 238.687V243.325C243.106 245.855 236.261 254.366 236.261 264.475C236.261 276.578 246.073 286.39 258.176 286.39C270.28 286.39 280.092 276.578 280.092 264.475C280.092 254.328 273.196 245.791 263.834 243.297V238.695L263.834 238.688C263.834 238.029 262.612 237.456 260.815 237.165C260.676 236.914 260.504 236.683 260.303 236.479C260.017 236.189 259.677 235.96 259.303 235.803C258.93 235.646 258.529 235.565 258.124 235.565ZM259.814 237.039C259.804 237.028 259.793 237.017 259.783 237.007C259.565 236.786 259.306 236.611 259.022 236.491C258.737 236.372 258.432 236.311 258.124 236.311C257.816 236.311 257.511 236.372 257.227 236.491C256.942 236.611 256.684 236.786 256.466 237.007C256.455 237.017 256.445 237.028 256.434 237.039C256.968 236.989 257.536 236.962 258.124 236.962C258.712 236.962 259.28 236.989 259.814 237.039ZM325.642 235.803C326.016 235.646 326.416 235.565 326.821 235.565C327.226 235.565 327.626 235.646 328 235.803C328.374 235.96 328.714 236.19 329 236.48C329.201 236.684 329.373 236.915 329.511 237.166C331.308 237.456 332.53 238.029 332.531 238.687H332.532V243.297C341.892 245.792 348.788 254.328 348.788 264.475C348.788 276.579 338.976 286.391 326.873 286.391C314.769 286.391 304.957 276.579 304.957 264.475C304.957 254.366 311.802 245.855 321.111 243.325V238.71C321.111 238.702 321.11 238.695 321.11 238.688C321.11 238.029 322.333 237.456 324.131 237.166C324.269 236.915 324.441 236.684 324.642 236.48C324.928 236.19 325.268 235.96 325.642 235.803ZM328.479 237.007C328.49 237.018 328.5 237.028 328.511 237.039C327.977 236.989 327.409 236.962 326.821 236.962C326.233 236.962 325.665 236.989 325.131 237.039C325.142 237.028 325.152 237.018 325.163 237.007C325.38 236.786 325.639 236.611 325.923 236.492C326.208 236.372 326.513 236.311 326.821 236.311C327.129 236.311 327.434 236.372 327.719 236.492C328.003 236.611 328.262 236.786 328.479 237.007ZM326.821 295.565C326.416 295.565 326.016 295.646 325.642 295.803C325.268 295.96 324.928 296.19 324.642 296.48C324.441 296.684 324.269 296.915 324.131 297.166C322.333 297.456 321.11 298.029 321.11 298.688L321.11 298.699L321.111 298.71V303.325C311.802 305.855 304.957 314.366 304.957 324.475C304.957 336.579 314.769 346.391 326.873 346.391C338.976 346.391 348.788 336.579 348.788 324.475C348.788 314.328 341.892 305.792 332.532 303.297V298.687H332.531C332.53 298.029 331.308 297.456 329.511 297.166C329.373 296.915 329.201 296.684 329 296.48C328.714 296.19 328.374 295.96 328 295.803C327.626 295.646 327.226 295.565 326.821 295.565ZM328.511 297.039C328.5 297.028 328.49 297.018 328.479 297.007C328.262 296.786 328.003 296.611 327.719 296.492C327.434 296.372 327.129 296.311 326.821 296.311C326.513 296.311 326.208 296.372 325.923 296.492C325.639 296.611 325.38 296.786 325.163 297.007L325.141 297.029L325.131 297.039C325.665 296.989 326.233 296.962 326.821 296.962C327.409 296.962 327.977 296.989 328.511 297.039ZM256.945 295.803C257.319 295.646 257.72 295.566 258.124 295.566C258.529 295.566 258.93 295.646 259.303 295.803C259.677 295.96 260.017 296.19 260.303 296.48C260.504 296.684 260.676 296.915 260.815 297.166C262.612 297.457 263.834 298.029 263.834 298.688L263.834 298.696V303.297C273.196 305.792 280.092 314.328 280.092 324.475C280.092 336.579 270.28 346.391 258.176 346.391C246.073 346.391 236.261 336.579 236.261 324.475C236.261 314.366 243.106 305.856 252.414 303.326V298.688C252.414 298.029 253.637 297.456 255.434 297.166C255.572 296.915 255.744 296.684 255.946 296.48C256.232 296.19 256.571 295.96 256.945 295.803ZM259.783 297.007C259.793 297.018 259.804 297.029 259.814 297.04C259.28 296.99 258.712 296.963 258.124 296.963C257.536 296.963 256.968 296.99 256.434 297.04L256.444 297.03L256.466 297.007C256.684 296.787 256.942 296.612 257.227 296.492C257.511 296.373 257.816 296.311 258.124 296.311C258.432 296.311 258.737 296.373 259.022 296.492C259.306 296.612 259.565 296.787 259.783 297.007ZM189.427 295.565C189.023 295.565 188.622 295.646 188.248 295.803C187.875 295.96 187.535 296.19 187.249 296.48C187.047 296.684 186.875 296.915 186.737 297.166C184.94 297.456 183.717 298.029 183.717 298.688L183.717 298.702V303.326C174.41 305.856 167.565 314.366 167.565 324.475C167.565 336.579 177.377 346.391 189.481 346.391C201.584 346.391 211.396 336.579 211.396 324.475C211.396 314.328 204.5 305.791 195.138 303.297V298.688H195.138V298.688C195.138 298.029 193.915 297.456 192.118 297.166C191.98 296.915 191.808 296.684 191.606 296.48C191.32 296.19 190.98 295.96 190.607 295.803C190.233 295.646 189.832 295.565 189.427 295.565ZM191.117 297.039C191.107 297.028 191.097 297.017 191.086 297.007C190.868 296.786 190.61 296.611 190.325 296.492C190.04 296.372 189.735 296.311 189.427 296.311C189.12 296.311 188.815 296.372 188.53 296.492C188.245 296.611 187.987 296.786 187.769 297.007C187.758 297.017 187.748 297.028 187.738 297.039C188.272 296.989 188.839 296.962 189.427 296.962C190.016 296.962 190.583 296.989 191.117 297.039ZM325.642 175.804C326.016 175.647 326.416 175.566 326.821 175.566C327.226 175.566 327.626 175.647 328 175.804C328.374 175.96 328.714 176.19 329 176.48C329.201 176.684 329.373 176.915 329.511 177.166C331.308 177.457 332.53 178.029 332.531 178.688H332.532V183.298C341.892 185.793 348.788 194.329 348.788 204.476C348.788 216.579 338.976 226.391 326.873 226.391C314.769 226.391 304.957 216.579 304.957 204.476C304.957 194.366 311.802 185.855 321.111 183.326V178.71C321.111 178.703 321.11 178.696 321.11 178.689C321.11 178.03 322.333 177.457 324.131 177.166C324.269 176.915 324.441 176.684 324.642 176.48C324.928 176.19 325.268 175.96 325.642 175.804ZM328.479 177.008C328.49 177.018 328.5 177.029 328.511 177.04C327.977 176.99 327.409 176.963 326.821 176.963C326.233 176.963 325.665 176.99 325.131 177.04C325.142 177.029 325.152 177.018 325.163 177.008C325.38 176.787 325.639 176.612 325.923 176.492C326.208 176.373 326.513 176.311 326.821 176.311C327.129 176.311 327.434 176.373 327.718 176.492C328.003 176.612 328.262 176.787 328.479 177.008Z" fill="black"/>
<path d="M244.219 88.9637L221.103 92.3151L220.694 92.3984C220.074 92.563 219.509 92.8891 219.056 93.3434C218.604 93.7977 218.28 94.364 218.118 94.9844C217.956 95.6048 217.961 96.2572 218.133 96.8748C218.306 97.4924 218.639 98.0532 219.099 98.4999L235.846 114.801L231.896 137.826L231.849 138.225C231.811 138.866 231.945 139.505 232.235 140.078C232.526 140.65 232.963 141.136 233.503 141.484C234.042 141.832 234.665 142.03 235.306 142.058C235.948 142.087 236.585 141.944 237.154 141.645L257.828 130.775L278.454 141.645L278.817 141.811C279.415 142.047 280.065 142.119 280.7 142.021C281.335 141.922 281.933 141.657 282.431 141.251C282.93 140.845 283.312 140.314 283.537 139.712C283.763 139.11 283.824 138.459 283.715 137.826L279.762 114.801L296.516 98.4963L296.799 98.1883C297.202 97.6911 297.467 97.0957 297.566 96.4629C297.664 95.8301 297.594 95.1824 297.361 94.5859C297.127 93.9893 296.74 93.4652 296.239 93.067C295.737 92.6687 295.139 92.4105 294.505 92.3187L271.389 88.9637L261.056 68.0216C260.757 67.4149 260.294 66.9039 259.72 66.5466C259.145 66.1894 258.482 66 257.806 66C257.129 66 256.467 66.1894 255.892 66.5466C255.318 66.9039 254.855 67.4149 254.556 68.0216L244.219 88.9637Z" fill="black"/>
</svg>
